{"glyphs":{"0":{"ha":833,"x_min":0,"x_max":0,"o":"m 417 -14 b 86 486 210 -14 86 172 b 417 986 86 800 210 986 b 747 486 624 986 747 800 b 417 -14 747 172 624 -14 m 592 743 b 417 881 556 832 496 881 b 203 486 279 881 203 738 b 215 326 203 426 207 372 m 417 92 b 631 486 554 92 631 235 b 618 646 631 546 626 600 l 242 229 b 417 92 278 140 338 92 "},"1":{"ha":833,"x_min":0,"x_max":0,"o":"m 121 106 l 374 106 l 374 844 l 121 682 l 121 803 l 383 972 l 494 972 l 494 106 l 740 106 l 740 0 l 121 0 "},"2":{"ha":833,"x_min":0,"x_max":0,"o":"m 117 47 b 367 421 117 157 186 261 b 574 719 515 553 574 633 b 400 879 574 815 503 879 b 218 739 303 879 226 821 l 101 739 b 404 986 106 879 235 986 b 694 724 574 986 694 878 b 449 344 694 604 622 497 b 253 106 335 244 275 174 l 736 106 l 736 0 l 117 0 "},"3":{"ha":833,"x_min":0,"x_max":0,"o":"m 119 739 b 406 986 119 882 240 986 b 697 729 575 986 697 878 b 556 524 697 631 644 558 l 556 518 b 733 276 667 482 733 394 b 411 -14 733 108 599 -14 b 96 247 231 -14 96 99 l 213 247 b 411 92 215 158 300 92 b 617 278 532 92 617 169 b 421 458 617 383 536 458 l 335 458 l 335 568 l 415 568 b 583 719 514 568 583 631 b 407 881 583 813 508 881 b 235 739 311 881 238 821 "},"4":{"ha":833,"x_min":0,"x_max":0,"o":"m 56 346 l 447 972 l 614 972 l 614 338 l 786 338 l 786 229 l 614 229 l 614 0 l 497 0 l 497 229 l 56 229 m 165 338 l 497 338 l 497 865 l 492 865 "},"5":{"ha":833,"x_min":0,"x_max":0,"o":"m 222 247 b 413 92 233 156 313 92 b 617 304 532 92 617 181 b 415 515 617 428 533 515 b 244 422 340 515 278 481 l 139 442 l 196 972 l 689 972 l 689 867 l 299 867 l 264 554 l 269 553 b 444 617 314 594 375 617 b 738 306 614 617 738 485 b 415 -14 738 119 603 -14 b 107 247 247 -14 119 94 l 222 247 "},"6":{"ha":833,"x_min":0,"x_max":0,"o":"m 442 881 b 199 476 293 881 200 725 l 206 476 b 454 619 256 567 344 619 b 750 307 625 619 750 489 b 432 -14 750 119 615 -14 b 82 474 217 -14 82 172 b 442 986 82 782 221 986 b 732 739 599 986 717 883 l 622 739 b 442 881 601 826 531 881 m 235 300 b 433 92 235 182 319 92 b 633 306 549 92 633 182 b 439 517 633 428 551 517 b 235 300 324 517 235 422 "},"7":{"ha":833,"x_min":0,"x_max":0,"o":"m 296 0 b 601 864 296 326 394 606 l 85 864 l 85 972 l 728 972 l 728 872 b 417 0 514 597 421 338 l 296 0 "},"8":{"ha":833,"x_min":0,"x_max":0,"o":"m 417 -14 b 94 268 235 -14 94 110 b 275 514 94 381 167 474 l 275 519 b 129 732 188 558 129 636 b 417 986 129 876 254 986 b 704 732 579 986 704 876 b 560 519 704 636 647 558 l 560 514 b 739 268 668 472 739 381 b 417 -14 739 110 599 -14 m 417 882 b 249 724 321 882 249 814 b 417 565 249 633 321 565 b 585 724 513 565 585 633 b 417 882 585 814 513 882 m 417 458 b 217 276 301 458 217 382 b 417 92 217 171 303 92 b 617 276 531 92 617 171 b 417 458 617 382 532 458 "},"9":{"ha":833,"x_min":0,"x_max":0,"o":"m 392 92 b 635 496 540 92 633 247 l 628 496 b 379 353 578 406 489 353 b 83 665 208 353 83 483 b 401 986 83 853 218 986 b 751 499 617 986 751 800 b 392 -14 751 190 613 -14 b 101 233 235 -14 117 89 l 211 233 b 392 92 232 146 303 92 m 599 672 b 400 881 599 790 514 881 b 200 667 285 881 200 790 b 394 456 200 544 282 456 b 599 672 510 456 599 550 "},"\u0000":{"ha":833,"x_min":0,"x_max":0,"o":""},"\r":{"ha":833,"x_min":0,"x_max":0,"o":""}," ":{"ha":833,"x_min":0,"x_max":0,"o":""},"A":{"ha":833,"x_min":0,"x_max":0,"o":"m 39 0 l 335 972 l 499 972 l 794 0 l 674 0 l 590 274 l 240 274 l 157 0 m 558 381 l 418 844 l 413 844 l 272 381 "},"Æ":{"ha":833,"x_min":0,"x_max":0,"o":"m 301 972 l 797 972 l 797 864 l 513 864 l 513 558 l 750 558 l 750 450 l 513 450 l 513 108 l 797 108 l 797 0 l 394 0 l 394 293 l 208 293 l 117 0 l 0 0 m 394 400 l 394 865 l 388 865 l 240 400 "},"Ǽ":{"ha":833,"x_min":0,"x_max":0,"o":"m 301 972 l 797 972 l 797 864 l 513 864 l 513 558 l 750 558 l 750 450 l 513 450 l 513 108 l 797 108 l 797 0 l 394 0 l 394 293 l 208 293 l 117 0 l 0 0 m 394 400 l 394 865 l 388 865 l 240 400 m 571 1100 l 469 1100 l 578 1357 l 732 1357 "},"Á":{"ha":833,"x_min":0,"x_max":0,"o":"m 39 0 l 335 972 l 499 972 l 794 0 l 674 0 l 590 274 l 240 274 l 157 0 m 558 381 l 418 844 l 413 844 l 272 381 m 442 1100 l 340 1100 l 449 1357 l 603 1357 "},"Ă":{"ha":833,"x_min":0,"x_max":0,"o":"m 39 0 l 335 972 l 499 972 l 794 0 l 674 0 l 590 274 l 240 274 l 157 0 m 558 381 l 418 844 l 413 844 l 272 381 m 326 1282 b 417 1181 332 1221 368 1181 b 507 1282 465 1181 501 1221 l 603 1282 b 417 1092 603 1171 525 1092 b 231 1282 308 1092 231 1171 l 326 1282 "},"Â":{"ha":833,"x_min":0,"x_max":0,"o":"m 39 0 l 335 972 l 499 972 l 794 0 l 674 0 l 590 274 l 240 274 l 157 0 m 558 381 l 418 844 l 413 844 l 272 381 m 356 1335 l 478 1335 l 632 1090 l 531 1090 l 417 1235 l 303 1090 l 201 1090 "},"Ä":{"ha":833,"x_min":0,"x_max":0,"o":"m 39 0 l 335 972 l 499 972 l 794 0 l 674 0 l 590 274 l 240 274 l 157 0 m 558 381 l 418 844 l 413 844 l 272 381 m 178 1215 b 272 1310 178 1268 219 1310 b 367 1215 326 1310 367 1268 b 272 1119 367 1163 326 1119 b 178 1215 219 1119 178 1163 m 467 1215 b 561 1310 467 1268 508 1310 b 656 1215 615 1310 656 1268 b 561 1119 656 1163 615 1119 b 467 1215 508 1119 467 1163 "},"À":{"ha":833,"x_min":0,"x_max":0,"o":"m 39 0 l 335 972 l 499 972 l 794 0 l 674 0 l 590 274 l 240 274 l 157 0 m 558 381 l 418 844 l 413 844 l 272 381 m 392 1100 l 231 1357 l 385 1357 l 493 1100 "},"Α":{"ha":833,"x_min":0,"x_max":0,"o":"m 39 0 l 335 972 l 499 972 l 794 0 l 674 0 l 590 274 l 240 274 l 157 0 m 558 381 l 418 844 l 413 844 l 272 381 "},"Ά":{"ha":833,"x_min":0,"x_max":0,"o":"m 39 0 l 335 972 l 499 972 l 794 0 l 674 0 l 590 274 l 240 274 l 157 0 m 558 381 l 418 844 l 413 844 l 272 381 m 188 794 l 94 794 l 142 1075 l 279 1075 "},"Ā":{"ha":833,"x_min":0,"x_max":0,"o":"m 39 0 l 335 972 l 499 972 l 794 0 l 674 0 l 590 274 l 240 274 l 157 0 m 558 381 l 418 844 l 413 844 l 272 381 m 203 1250 l 631 1250 l 631 1153 l 203 1153 "},"Ą":{"ha":833,"x_min":0,"x_max":0,"o":"m 39 0 l 335 972 l 499 972 l 794 0 l 733 0 b 608 -121 650 -32 608 -72 b 693 -197 608 -167 644 -197 b 729 -193 703 -197 717 -196 l 729 -278 b 672 -285 714 -282 694 -285 b 507 -140 574 -285 507 -225 b 661 39 507 -65 558 -3 l 590 274 l 240 274 l 157 0 m 558 381 l 418 844 l 413 844 l 272 381 "},"Å":{"ha":833,"x_min":0,"x_max":0,"o":"m 39 0 l 335 972 l 499 972 l 794 0 l 674 0 l 590 274 l 240 274 l 157 0 m 558 381 l 418 844 l 413 844 l 272 381 m 256 1235 b 417 1393 256 1324 325 1393 b 578 1235 508 1393 578 1324 b 417 1074 578 1144 507 1074 b 256 1235 326 1074 256 1144 m 417 1153 b 494 1233 461 1153 494 1186 b 417 1314 494 1281 461 1314 b 339 1233 372 1314 339 1281 b 417 1153 339 1186 372 1153 "},"Ǻ":{"ha":833,"x_min":0,"x_max":0,"o":"m 39 0 l 321 928 b 256 1058 281 957 256 1004 b 368 1210 256 1131 301 1190 l 447 1399 l 601 1399 l 479 1204 b 578 1058 539 1181 578 1125 b 513 928 578 1004 553 957 l 794 0 l 674 0 l 590 274 l 240 274 l 157 0 m 558 381 l 418 844 l 413 844 l 272 381 m 417 976 b 494 1057 461 976 494 1010 b 417 1138 494 1104 461 1138 b 339 1057 372 1138 339 1104 b 417 976 339 1010 372 976 "},"Ã":{"ha":833,"x_min":0,"x_max":0,"o":"m 39 0 l 335 972 l 499 972 l 794 0 l 674 0 l 590 274 l 240 274 l 157 0 m 558 381 l 418 844 l 413 844 l 272 381 m 172 1182 b 317 1344 172 1282 228 1344 b 518 1218 444 1344 458 1218 b 560 1296 544 1218 558 1243 l 561 1325 l 661 1325 l 661 1288 b 517 1125 661 1188 606 1125 b 317 1251 389 1125 375 1251 b 274 1174 290 1251 275 1226 l 272 1144 l 172 1144 "},"B":{"ha":833,"x_min":0,"x_max":0,"o":"m 125 972 l 453 972 b 721 724 608 972 721 868 b 592 511 721 628 671 550 l 592 506 b 751 268 690 469 751 382 b 471 0 751 113 633 0 l 125 0 m 458 558 b 601 714 543 558 601 624 b 458 864 601 804 544 864 l 246 864 l 246 558 m 475 108 b 629 279 567 108 629 178 b 475 450 629 381 567 450 l 246 450 l 246 108 "},"Β":{"ha":833,"x_min":0,"x_max":0,"o":"m 125 972 l 453 972 b 721 724 608 972 721 868 b 592 511 721 628 671 550 l 592 506 b 751 268 690 469 751 382 b 471 0 751 113 633 0 l 125 0 m 458 558 b 601 714 543 558 601 624 b 458 864 601 804 544 864 l 246 864 l 246 558 m 475 108 b 629 279 567 108 629 178 b 475 450 629 381 567 450 l 246 450 l 246 108 "},"C":{"ha":833,"x_min":0,"x_max":0,"o":"m 763 247 b 453 -14 742 94 613 -14 b 81 486 232 -14 81 190 b 450 986 81 783 232 986 b 754 739 606 986 731 883 l 638 739 b 454 875 618 821 544 875 b 203 485 301 875 203 721 b 456 97 203 249 301 97 b 647 247 551 97 628 157 "},"Ć":{"ha":833,"x_min":0,"x_max":0,"o":"m 763 247 b 453 -14 742 94 613 -14 b 81 486 232 -14 81 190 b 450 986 81 783 232 986 b 754 739 606 986 731 883 l 638 739 b 454 875 618 821 544 875 b 203 485 301 875 203 721 b 456 97 203 249 301 97 b 647 247 551 97 628 157 m 468 1100 l 367 1100 l 475 1357 l 629 1357 "},"Č":{"ha":833,"x_min":0,"x_max":0,"o":"m 763 247 b 453 -14 742 94 613 -14 b 81 486 232 -14 81 190 b 450 986 81 783 232 986 b 754 739 606 986 731 883 l 638 739 b 454 875 618 821 544 875 b 203 485 301 875 203 721 b 456 97 203 249 301 97 b 647 247 551 97 628 157 m 228 1335 l 329 1335 l 443 1192 l 557 1335 l 658 1335 l 504 1090 l 382 1090 "},"Ç":{"ha":833,"x_min":0,"x_max":0,"o":"m 394 -221 b 472 -282 400 -257 431 -282 b 546 -214 515 -282 546 -254 b 471 -144 546 -172 514 -144 b 419 -161 450 -144 432 -151 l 360 -140 l 383 -7 b 81 486 201 31 81 222 b 450 986 81 783 232 986 b 754 739 606 986 731 883 l 638 739 b 454 875 618 821 544 875 b 203 485 301 875 203 721 b 456 97 203 249 301 97 b 647 247 551 97 628 157 l 763 247 b 483 -12 743 104 629 0 l 472 -74 b 640 -210 567 -61 640 -121 b 469 -362 640 -297 568 -362 b 301 -221 375 -362 304 -303 l 394 -221 "},"Ĉ":{"ha":833,"x_min":0,"x_max":0,"o":"m 763 247 b 453 -14 742 94 613 -14 b 81 486 232 -14 81 190 b 450 986 81 783 232 986 b 754 739 606 986 731 883 l 638 739 b 454 875 618 821 544 875 b 203 485 301 875 203 721 b 456 97 203 249 301 97 b 647 247 551 97 628 157 m 382 1335 l 504 1335 l 658 1090 l 557 1090 l 443 1235 l 329 1090 l 228 1090 "},"Ċ":{"ha":833,"x_min":0,"x_max":0,"o":"m 763 247 b 453 -14 742 94 613 -14 b 81 486 232 -14 81 190 b 450 986 81 783 232 986 b 754 739 606 986 731 883 l 638 739 b 454 875 618 821 544 875 b 203 485 301 875 203 721 b 456 97 203 249 301 97 b 647 247 551 97 628 157 m 340 1214 b 443 1315 340 1271 388 1315 b 546 1214 500 1315 546 1271 b 443 1111 546 1157 500 1111 b 340 1214 388 1111 340 1157 "},"Χ":{"ha":833,"x_min":0,"x_max":0,"o":"m 342 506 l 38 972 l 175 972 l 417 604 l 658 972 l 793 972 l 490 507 l 818 0 l 681 0 l 415 407 l 150 0 l 15 0 "},"D":{"ha":833,"x_min":0,"x_max":0,"o":"m 111 972 l 388 972 b 782 486 622 972 782 775 b 388 0 782 197 622 0 l 111 0 m 388 108 b 660 486 553 108 660 256 b 388 864 660 717 553 864 l 232 864 l 232 108 "},"Ď":{"ha":833,"x_min":0,"x_max":0,"o":"m 111 972 l 388 972 b 782 486 622 972 782 775 b 388 0 782 197 622 0 l 111 0 m 388 108 b 660 486 553 108 660 256 b 388 864 660 717 553 864 l 232 864 l 232 108 m 201 1335 l 303 1335 l 417 1192 l 531 1335 l 632 1335 l 478 1090 l 356 1090 "},"Đ":{"ha":833,"x_min":0,"x_max":0,"o":"m 111 436 l 28 436 l 28 538 l 111 538 l 111 972 l 388 972 b 782 486 622 972 782 775 b 388 0 782 197 622 0 l 111 0 m 388 108 b 660 486 553 108 660 256 b 388 864 660 717 553 864 l 232 864 l 232 538 l 444 538 l 444 436 l 232 436 l 232 108 "},"Δ":{"ha":833,"x_min":0,"x_max":0,"o":"m 335 972 l 499 972 l 794 0 l 39 0 m 642 108 l 418 844 l 413 844 l 189 108 "},"E":{"ha":833,"x_min":0,"x_max":0,"o":"m 157 972 l 735 972 l 735 864 l 278 864 l 278 558 l 674 558 l 674 450 l 278 450 l 278 108 l 735 108 l 735 0 l 157 0 "},"É":{"ha":833,"x_min":0,"x_max":0,"o":"m 157 972 l 735 972 l 735 864 l 278 864 l 278 558 l 674 558 l 674 450 l 278 450 l 278 108 l 735 108 l 735 0 l 157 0 m 468 1100 l 367 1100 l 475 1357 l 629 1357 "},"Ĕ":{"ha":833,"x_min":0,"x_max":0,"o":"m 157 972 l 735 972 l 735 864 l 278 864 l 278 558 l 674 558 l 674 450 l 278 450 l 278 108 l 735 108 l 735 0 l 157 0 m 353 1282 b 443 1181 358 1221 394 1181 b 533 1282 492 1181 528 1221 l 629 1282 b 443 1092 629 1171 551 1092 b 257 1282 335 1092 257 1171 l 353 1282 "},"Ě":{"ha":833,"x_min":0,"x_max":0,"o":"m 157 972 l 735 972 l 735 864 l 278 864 l 278 558 l 674 558 l 674 450 l 278 450 l 278 108 l 735 108 l 735 0 l 157 0 m 228 1335 l 329 1335 l 443 1192 l 557 1335 l 658 1335 l 504 1090 l 382 1090 "},"Ê":{"ha":833,"x_min":0,"x_max":0,"o":"m 157 972 l 735 972 l 735 864 l 278 864 l 278 558 l 674 558 l 674 450 l 278 450 l 278 108 l 735 108 l 735 0 l 157 0 m 382 1335 l 504 1335 l 658 1090 l 557 1090 l 443 1235 l 329 1090 l 228 1090 "},"Ë":{"ha":833,"x_min":0,"x_max":0,"o":"m 157 972 l 735 972 l 735 864 l 278 864 l 278 558 l 674 558 l 674 450 l 278 450 l 278 108 l 735 108 l 735 0 l 157 0 m 204 1215 b 299 1310 204 1268 246 1310 b 393 1215 353 1310 393 1268 b 299 1119 393 1163 353 1119 b 204 1215 246 1119 204 1163 m 493 1215 b 588 1310 493 1268 535 1310 b 682 1215 642 1310 682 1268 b 588 1119 682 1163 642 1119 b 493 1215 535 1119 493 1163 "},"Ė":{"ha":833,"x_min":0,"x_max":0,"o":"m 157 972 l 735 972 l 735 864 l 278 864 l 278 558 l 674 558 l 674 450 l 278 450 l 278 108 l 735 108 l 735 0 l 157 0 m 340 1214 b 443 1315 340 1271 388 1315 b 546 1214 500 1315 546 1271 b 443 1111 546 1157 500 1111 b 340 1214 388 1111 340 1157 "},"È":{"ha":833,"x_min":0,"x_max":0,"o":"m 157 972 l 735 972 l 735 864 l 278 864 l 278 558 l 674 558 l 674 450 l 278 450 l 278 108 l 735 108 l 735 0 l 157 0 m 418 1100 l 257 1357 l 411 1357 l 519 1100 "},"Ē":{"ha":833,"x_min":0,"x_max":0,"o":"m 157 972 l 735 972 l 735 864 l 278 864 l 278 558 l 674 558 l 674 450 l 278 450 l 278 108 l 735 108 l 735 0 l 157 0 m 229 1250 l 657 1250 l 657 1153 l 229 1153 "},"Ŋ":{"ha":833,"x_min":0,"x_max":0,"o":"m 635 972 l 747 972 l 747 -26 b 501 -292 747 -154 706 -292 b 357 -260 436 -292 389 -278 l 357 -162 b 483 -193 393 -181 436 -193 b 631 -26 610 -193 631 -107 l 631 0 l 592 0 l 204 847 l 199 847 l 199 0 l 86 0 l 86 972 l 264 972 l 629 176 l 635 176 "},"Ę":{"ha":833,"x_min":0,"x_max":0,"o":"m 157 972 l 735 972 l 735 864 l 278 864 l 278 558 l 674 558 l 674 450 l 278 450 l 278 108 l 735 108 l 735 1 l 738 0 b 613 -121 654 -32 613 -72 b 697 -197 613 -167 649 -197 b 733 -193 707 -197 721 -196 l 733 -278 b 676 -285 718 -282 699 -285 b 511 -140 578 -285 511 -225 b 593 0 511 -86 538 -39 l 157 0 "},"Ε":{"ha":833,"x_min":0,"x_max":0,"o":"m 157 972 l 735 972 l 735 864 l 278 864 l 278 558 l 674 558 l 674 450 l 278 450 l 278 108 l 735 108 l 735 0 l 157 0 "},"Έ":{"ha":833,"x_min":0,"x_max":0,"o":"m 157 972 l 735 972 l 735 864 l 278 864 l 278 558 l 674 558 l 674 450 l 278 450 l 278 108 l 735 108 l 735 0 l 157 0 m 44 794 l -49 794 l -1 1075 l 136 1075 "},"Η":{"ha":833,"x_min":0,"x_max":0,"o":"m 92 972 l 213 972 l 213 558 l 621 558 l 621 972 l 742 972 l 742 0 l 621 0 l 621 447 l 213 447 l 213 0 l 92 0 "},"Ή":{"ha":833,"x_min":0,"x_max":0,"o":"m 92 972 l 213 972 l 213 558 l 621 558 l 621 972 l 742 972 l 742 0 l 621 0 l 621 447 l 213 447 l 213 0 l 92 0 m -19 794 l -112 794 l -65 1075 l 72 1075 "},"Ð":{"ha":833,"x_min":0,"x_max":0,"o":"m 111 436 l 28 436 l 28 538 l 111 538 l 111 972 l 388 972 b 782 486 622 972 782 775 b 388 0 782 197 622 0 l 111 0 m 388 108 b 660 486 553 108 660 256 b 388 864 660 717 553 864 l 232 864 l 232 538 l 444 538 l 444 436 l 232 436 l 232 108 "},"€":{"ha":833,"x_min":0,"x_max":0,"o":"m 19 635 l 94 635 b 450 986 136 849 271 986 b 754 739 606 986 731 883 l 638 739 b 453 875 618 821 544 875 b 218 635 336 875 251 785 l 590 635 l 565 540 l 206 540 b 203 485 204 522 203 504 b 204 446 203 471 203 458 l 547 446 l 522 351 l 215 351 b 454 97 246 193 333 97 b 647 247 551 97 628 157 l 763 247 b 451 -14 742 94 613 -14 b 93 351 268 -14 132 131 l 19 351 l 19 446 l 82 446 b 81 486 82 460 81 472 b 83 540 81 504 82 522 l 19 540 "},"F":{"ha":833,"x_min":0,"x_max":0,"o":"m 161 972 l 739 972 l 739 864 l 283 864 l 283 540 l 678 540 l 678 432 l 283 432 l 283 0 l 161 0 "},"G":{"ha":833,"x_min":0,"x_max":0,"o":"m 413 524 l 747 524 l 747 0 l 638 0 l 638 147 l 633 147 b 392 -14 583 47 497 -14 b 58 481 199 -14 58 192 b 431 986 58 781 210 986 b 740 739 588 986 715 883 l 622 739 b 435 875 601 821 526 875 b 179 483 279 875 179 722 b 413 94 179 251 274 94 b 631 415 540 94 631 226 l 413 415 "},"Γ":{"ha":833,"x_min":0,"x_max":0,"o":"m 167 972 l 744 972 l 744 864 l 289 864 l 289 0 l 167 0 "},"Ğ":{"ha":833,"x_min":0,"x_max":0,"o":"m 413 524 l 747 524 l 747 0 l 638 0 l 638 147 l 633 147 b 392 -14 583 47 497 -14 b 58 481 199 -14 58 192 b 431 986 58 781 210 986 b 740 739 588 986 715 883 l 622 739 b 435 875 601 821 526 875 b 179 483 279 875 179 722 b 413 94 179 251 274 94 b 631 415 540 94 631 226 l 413 415 m 332 1282 b 422 1181 338 1221 374 1181 b 513 1282 471 1181 507 1221 l 608 1282 b 422 1092 608 1171 531 1092 b 236 1282 314 1092 236 1171 l 332 1282 "},"Ĝ":{"ha":833,"x_min":0,"x_max":0,"o":"m 413 524 l 747 524 l 747 0 l 638 0 l 638 147 l 633 147 b 392 -14 583 47 497 -14 b 58 481 199 -14 58 192 b 431 986 58 781 210 986 b 740 739 588 986 715 883 l 622 739 b 435 875 601 821 526 875 b 179 483 279 875 179 722 b 413 94 179 251 274 94 b 631 415 540 94 631 226 l 413 415 m 361 1335 l 483 1335 l 638 1090 l 536 1090 l 422 1235 l 308 1090 l 207 1090 "},"Ģ":{"ha":833,"x_min":0,"x_max":0,"o":"m 413 524 l 747 524 l 747 0 l 638 0 l 638 147 l 633 147 b 392 -14 583 47 497 -14 b 58 481 199 -14 58 192 b 431 986 58 781 210 986 b 740 739 588 986 715 883 l 622 739 b 435 875 601 821 526 875 b 179 483 279 875 179 722 b 413 94 179 251 274 94 b 631 415 540 94 631 226 l 413 415 m 308 -358 l 207 -358 l 314 -101 l 468 -101 "},"Ġ":{"ha":833,"x_min":0,"x_max":0,"o":"m 413 524 l 747 524 l 747 0 l 638 0 l 638 147 l 633 147 b 392 -14 583 47 497 -14 b 58 481 199 -14 58 192 b 431 986 58 781 210 986 b 740 739 588 986 715 883 l 622 739 b 435 875 601 821 526 875 b 179 483 279 875 179 722 b 413 94 179 251 274 94 b 631 415 540 94 631 226 l 413 415 m 319 1214 b 422 1315 319 1271 367 1315 b 525 1214 479 1315 525 1271 b 422 1111 525 1157 479 1111 b 319 1214 367 1111 319 1157 "},"H":{"ha":833,"x_min":0,"x_max":0,"o":"m 92 972 l 213 972 l 213 558 l 621 558 l 621 972 l 742 972 l 742 0 l 621 0 l 621 447 l 213 447 l 213 0 l 92 0 "},"Ħ":{"ha":833,"x_min":0,"x_max":0,"o":"m 92 697 l 31 697 l 31 782 l 92 782 l 92 972 l 213 972 l 213 782 l 621 782 l 621 972 l 742 972 l 742 782 l 803 782 l 803 697 l 742 697 l 742 0 l 621 0 l 621 397 l 213 397 l 213 0 l 92 0 m 621 697 l 213 697 l 213 508 l 621 508 "},"Ĥ":{"ha":833,"x_min":0,"x_max":0,"o":"m 92 972 l 213 972 l 213 558 l 621 558 l 621 972 l 742 972 l 742 0 l 621 0 l 621 447 l 213 447 l 213 0 l 92 0 m 356 1335 l 478 1335 l 632 1090 l 531 1090 l 417 1235 l 303 1090 l 201 1090 "},"I":{"ha":833,"x_min":0,"x_max":0,"o":"m 136 108 l 357 108 l 357 864 l 139 864 l 139 972 l 694 972 l 694 864 l 478 864 l 478 108 l 697 108 l 697 0 l 136 0 "},"Ĳ":{"ha":833,"x_min":0,"x_max":0,"o":"m 111 972 l 232 972 l 232 386 l 111 386 m 225 247 b 415 94 231 157 308 94 b 601 261 526 94 601 163 l 601 864 l 357 864 l 357 972 l 722 972 l 722 260 b 417 -14 722 101 594 -14 b 113 247 244 -14 115 96 "},"Í":{"ha":833,"x_min":0,"x_max":0,"o":"m 136 108 l 357 108 l 357 864 l 139 864 l 139 972 l 694 972 l 694 864 l 478 864 l 478 108 l 697 108 l 697 0 l 136 0 m 442 1100 l 340 1100 l 449 1357 l 603 1357 "},"Ĭ":{"ha":833,"x_min":0,"x_max":0,"o":"m 136 108 l 357 108 l 357 864 l 139 864 l 139 972 l 694 972 l 694 864 l 478 864 l 478 108 l 697 108 l 697 0 l 136 0 m 326 1282 b 417 1181 332 1221 368 1181 b 507 1282 465 1181 501 1221 l 603 1282 b 417 1092 603 1171 525 1092 b 231 1282 308 1092 231 1171 l 326 1282 "},"Î":{"ha":833,"x_min":0,"x_max":0,"o":"m 136 108 l 357 108 l 357 864 l 139 864 l 139 972 l 694 972 l 694 864 l 478 864 l 478 108 l 697 108 l 697 0 l 136 0 m 356 1335 l 478 1335 l 632 1090 l 531 1090 l 417 1235 l 303 1090 l 201 1090 "},"Ï":{"ha":833,"x_min":0,"x_max":0,"o":"m 136 108 l 357 108 l 357 864 l 139 864 l 139 972 l 694 972 l 694 864 l 478 864 l 478 108 l 697 108 l 697 0 l 136 0 m 178 1215 b 272 1310 178 1268 219 1310 b 367 1215 326 1310 367 1268 b 272 1119 367 1163 326 1119 b 178 1215 219 1119 178 1163 m 467 1215 b 561 1310 467 1268 508 1310 b 656 1215 615 1310 656 1268 b 561 1119 656 1163 615 1119 b 467 1215 508 1119 467 1163 "},"İ":{"ha":833,"x_min":0,"x_max":0,"o":"m 136 108 l 357 108 l 357 864 l 139 864 l 139 972 l 694 972 l 694 864 l 478 864 l 478 108 l 697 108 l 697 0 l 136 0 m 314 1214 b 417 1315 314 1271 361 1315 b 519 1214 474 1315 519 1271 b 417 1111 519 1157 474 1111 b 314 1214 361 1111 314 1157 "},"Ì":{"ha":833,"x_min":0,"x_max":0,"o":"m 136 108 l 357 108 l 357 864 l 139 864 l 139 972 l 694 972 l 694 864 l 478 864 l 478 108 l 697 108 l 697 0 l 136 0 m 392 1100 l 231 1357 l 385 1357 l 493 1100 "},"Ī":{"ha":833,"x_min":0,"x_max":0,"o":"m 136 108 l 357 108 l 357 864 l 139 864 l 139 972 l 694 972 l 694 864 l 478 864 l 478 108 l 697 108 l 697 0 l 136 0 m 203 1250 l 631 1250 l 631 1153 l 203 1153 "},"Į":{"ha":833,"x_min":0,"x_max":0,"o":"m 136 108 l 357 108 l 357 864 l 139 864 l 139 972 l 694 972 l 694 864 l 478 864 l 478 108 l 697 108 l 697 0 b 572 -121 614 -32 572 -72 b 657 -197 572 -167 608 -197 b 693 -193 667 -197 681 -196 l 693 -278 b 636 -285 678 -282 658 -285 b 471 -140 538 -285 471 -225 b 553 0 471 -86 497 -39 l 136 0 "},"Ι":{"ha":833,"x_min":0,"x_max":0,"o":"m 136 108 l 357 108 l 357 864 l 139 864 l 139 972 l 694 972 l 694 864 l 478 864 l 478 108 l 697 108 l 697 0 l 136 0 "},"Ϊ":{"ha":833,"x_min":0,"x_max":0,"o":"m 136 108 l 357 108 l 357 864 l 139 864 l 139 972 l 694 972 l 694 864 l 478 864 l 478 108 l 697 108 l 697 0 l 136 0 m 178 1215 b 272 1310 178 1268 219 1310 b 367 1215 326 1310 367 1268 b 272 1119 367 1163 326 1119 b 178 1215 219 1119 178 1163 m 467 1215 b 561 1310 467 1268 508 1310 b 656 1215 615 1310 656 1268 b 561 1119 656 1163 615 1119 b 467 1215 508 1119 467 1163 "},"Ί":{"ha":833,"x_min":0,"x_max":0,"o":"m 136 108 l 357 108 l 357 864 l 139 864 l 139 972 l 694 972 l 694 864 l 478 864 l 478 108 l 697 108 l 697 0 l 136 0 m 28 794 l -65 794 l -18 1075 l 119 1075 "},"Ĩ":{"ha":833,"x_min":0,"x_max":0,"o":"m 136 108 l 357 108 l 357 864 l 139 864 l 139 972 l 694 972 l 694 864 l 478 864 l 478 108 l 697 108 l 697 0 l 136 0 m 172 1182 b 317 1344 172 1282 228 1344 b 518 1218 444 1344 458 1218 b 560 1296 544 1218 558 1243 l 561 1325 l 661 1325 l 661 1288 b 517 1125 661 1188 606 1125 b 317 1251 389 1125 375 1251 b 274 1174 290 1251 275 1226 l 272 1144 l 172 1144 "},"J":{"ha":833,"x_min":0,"x_max":0,"o":"m 193 247 b 383 94 199 157 276 94 b 569 261 494 94 569 163 l 569 864 l 190 864 l 190 972 l 690 972 l 690 260 b 385 -14 690 101 563 -14 b 81 247 213 -14 83 96 "},"Ĵ":{"ha":833,"x_min":0,"x_max":0,"o":"m 193 247 b 383 94 199 157 276 94 b 569 261 494 94 569 163 l 569 864 l 190 864 l 190 972 l 690 972 l 690 260 b 385 -14 690 101 563 -14 b 81 247 213 -14 83 96 m 401 1335 l 524 1335 l 678 1090 l 576 1090 l 463 1235 l 349 1090 l 247 1090 "},"K":{"ha":833,"x_min":0,"x_max":0,"o":"m 221 479 l 658 972 l 807 972 l 447 564 l 825 0 l 685 0 l 367 472 l 221 308 l 221 0 l 100 0 l 100 972 l 221 972 "},"Κ":{"ha":833,"x_min":0,"x_max":0,"o":"m 221 479 l 658 972 l 807 972 l 447 564 l 825 0 l 685 0 l 367 472 l 221 308 l 221 0 l 100 0 l 100 972 l 221 972 "},"Ķ":{"ha":833,"x_min":0,"x_max":0,"o":"m 221 479 l 658 972 l 807 972 l 447 564 l 825 0 l 685 0 l 367 472 l 221 308 l 221 0 l 100 0 l 100 972 l 221 972 m 357 -358 l 256 -358 l 363 -101 l 517 -101 "},"L":{"ha":833,"x_min":0,"x_max":0,"o":"m 172 972 l 293 972 l 293 108 l 736 108 l 736 0 l 172 0 "},"Ĺ":{"ha":833,"x_min":0,"x_max":0,"o":"m 172 972 l 293 972 l 293 108 l 736 108 l 736 0 l 172 0 m 261 1100 l 160 1100 l 268 1357 l 422 1357 "},"Λ":{"ha":833,"x_min":0,"x_max":0,"o":"m 797 0 l 674 0 l 418 838 l 413 838 l 157 0 l 36 0 l 336 972 l 497 972 "},"Ľ":{"ha":833,"x_min":0,"x_max":0,"o":"m 172 972 l 293 972 l 293 108 l 736 108 l 736 0 l 172 0 m 375 733 b 553 901 478 735 553 807 b 551 918 553 907 551 913 b 503 900 539 907 521 900 b 421 992 456 900 421 940 b 521 1090 421 1049 465 1090 b 647 915 596 1090 647 1017 b 375 649 647 761 531 647 l 375 733 "},"Ļ":{"ha":833,"x_min":0,"x_max":0,"o":"m 172 972 l 293 972 l 293 108 l 736 108 l 736 0 l 172 0 m 367 -358 l 265 -358 l 372 -101 l 526 -101 "},"Ŀ":{"ha":833,"x_min":0,"x_max":0,"o":"m 172 972 l 293 972 l 293 108 l 736 108 l 736 0 l 172 0 m 538 526 b 644 633 538 585 586 633 b 751 526 704 633 751 585 b 644 419 751 467 704 419 b 538 526 586 419 538 467 "},"Ł":{"ha":833,"x_min":0,"x_max":0,"o":"m 172 425 l 36 353 l 36 464 l 172 536 l 172 972 l 293 972 l 293 601 l 567 746 l 567 635 l 293 489 l 293 108 l 736 108 l 736 0 l 172 0 "},"M":{"ha":833,"x_min":0,"x_max":0,"o":"m 172 0 l 58 0 l 58 972 l 232 972 l 414 357 l 419 357 l 601 972 l 775 972 l 775 0 l 661 0 l 661 831 l 656 831 l 471 211 l 363 211 l 178 831 l 172 831 "},"Μ":{"ha":833,"x_min":0,"x_max":0,"o":"m 172 0 l 58 0 l 58 972 l 232 972 l 414 357 l 419 357 l 601 972 l 775 972 l 775 0 l 661 0 l 661 831 l 656 831 l 471 211 l 363 211 l 178 831 l 172 831 "},"N":{"ha":833,"x_min":0,"x_max":0,"o":"m 635 972 l 747 972 l 747 0 l 592 0 l 204 847 l 199 847 l 199 0 l 86 0 l 86 972 l 264 972 l 629 176 l 635 176 "},"Ń":{"ha":833,"x_min":0,"x_max":0,"o":"m 635 972 l 747 972 l 747 0 l 592 0 l 204 847 l 199 847 l 199 0 l 86 0 l 86 972 l 264 972 l 629 176 l 635 176 m 442 1100 l 340 1100 l 449 1357 l 603 1357 "},"Ň":{"ha":833,"x_min":0,"x_max":0,"o":"m 635 972 l 747 972 l 747 0 l 592 0 l 204 847 l 199 847 l 199 0 l 86 0 l 86 972 l 264 972 l 629 176 l 635 176 m 201 1335 l 303 1335 l 417 1192 l 531 1335 l 632 1335 l 478 1090 l 356 1090 "},"Ņ":{"ha":833,"x_min":0,"x_max":0,"o":"m 635 972 l 747 972 l 747 0 l 592 0 l 204 847 l 199 847 l 199 0 l 86 0 l 86 972 l 264 972 l 629 176 l 635 176 m 322 -358 l 221 -358 l 328 -101 l 482 -101 "},"Ñ":{"ha":833,"x_min":0,"x_max":0,"o":"m 635 972 l 747 972 l 747 0 l 592 0 l 204 847 l 199 847 l 199 0 l 86 0 l 86 972 l 264 972 l 629 176 l 635 176 m 172 1182 b 317 1344 172 1282 228 1344 b 518 1218 444 1344 458 1218 b 560 1296 544 1218 558 1243 l 561 1325 l 661 1325 l 661 1288 b 517 1125 661 1188 606 1125 b 317 1251 389 1125 375 1251 b 274 1174 290 1251 275 1226 l 272 1144 l 172 1144 "},"Ν":{"ha":833,"x_min":0,"x_max":0,"o":"m 635 972 l 747 972 l 747 0 l 592 0 l 204 847 l 199 847 l 199 0 l 86 0 l 86 972 l 264 972 l 629 176 l 635 176 "},"O":{"ha":833,"x_min":0,"x_max":0,"o":"m 417 -14 b 50 486 201 -14 50 192 b 417 986 50 781 201 986 b 783 486 632 986 783 781 b 417 -14 783 192 632 -14 m 417 97 b 663 486 565 97 663 250 b 417 875 663 722 565 875 b 171 486 268 875 171 722 b 417 97 171 250 268 97 "},"Œ":{"ha":833,"x_min":0,"x_max":0,"o":"m 349 0 b 40 486 171 0 40 206 b 349 972 40 767 171 972 l 797 972 l 797 864 l 522 864 l 522 558 l 750 558 l 750 450 l 522 450 l 522 108 l 797 108 l 797 0 l 349 0 m 349 864 b 158 486 236 864 158 710 b 349 108 158 263 236 108 l 403 108 l 403 864 l 349 864 "},"Ó":{"ha":833,"x_min":0,"x_max":0,"o":"m 417 -14 b 50 486 201 -14 50 192 b 417 986 50 781 201 986 b 783 486 632 986 783 781 b 417 -14 783 192 632 -14 m 417 97 b 663 486 565 97 663 250 b 417 875 663 722 565 875 b 171 486 268 875 171 722 b 417 97 171 250 268 97 m 442 1100 l 340 1100 l 449 1357 l 603 1357 "},"Ŏ":{"ha":833,"x_min":0,"x_max":0,"o":"m 417 -14 b 50 486 201 -14 50 192 b 417 986 50 781 201 986 b 783 486 632 986 783 781 b 417 -14 783 192 632 -14 m 417 97 b 663 486 565 97 663 250 b 417 875 663 722 565 875 b 171 486 268 875 171 722 b 417 97 171 250 268 97 m 326 1282 b 417 1181 332 1221 368 1181 b 507 1282 465 1181 501 1221 l 603 1282 b 417 1092 603 1171 525 1092 b 231 1282 308 1092 231 1171 l 326 1282 "},"Ô":{"ha":833,"x_min":0,"x_max":0,"o":"m 417 -14 b 50 486 201 -14 50 192 b 417 986 50 781 201 986 b 783 486 632 986 783 781 b 417 -14 783 192 632 -14 m 417 97 b 663 486 565 97 663 250 b 417 875 663 722 565 875 b 171 486 268 875 171 722 b 417 97 171 250 268 97 m 356 1335 l 478 1335 l 632 1090 l 531 1090 l 417 1235 l 303 1090 l 201 1090 "},"Ö":{"ha":833,"x_min":0,"x_max":0,"o":"m 417 -14 b 50 486 201 -14 50 192 b 417 986 50 781 201 986 b 783 486 632 986 783 781 b 417 -14 783 192 632 -14 m 417 97 b 663 486 565 97 663 250 b 417 875 663 722 565 875 b 171 486 268 875 171 722 b 417 97 171 250 268 97 m 178 1215 b 272 1310 178 1268 219 1310 b 367 1215 326 1310 367 1268 b 272 1119 367 1163 326 1119 b 178 1215 219 1119 178 1163 m 467 1215 b 561 1310 467 1268 508 1310 b 656 1215 615 1310 656 1268 b 561 1119 656 1163 615 1119 b 467 1215 508 1119 467 1163 "},"Ò":{"ha":833,"x_min":0,"x_max":0,"o":"m 417 -14 b 50 486 201 -14 50 192 b 417 986 50 781 201 986 b 783 486 632 986 783 781 b 417 -14 783 192 632 -14 m 417 97 b 663 486 565 97 663 250 b 417 875 663 722 565 875 b 171 486 268 875 171 722 b 417 97 171 250 268 97 m 392 1100 l 231 1357 l 385 1357 l 493 1100 "},"Ω":{"ha":833,"x_min":0,"x_max":0,"o":"m 417 878 b 172 522 278 878 172 724 b 375 118 172 349 250 193 l 375 0 l 68 0 l 68 108 l 253 108 l 253 114 b 50 532 128 194 50 356 b 417 986 50 786 211 986 b 783 532 622 986 783 786 b 581 114 783 356 706 194 l 581 108 l 765 108 l 765 0 l 458 0 l 458 118 b 661 522 583 193 661 349 b 417 878 661 724 556 878 "},"Ő":{"ha":833,"x_min":0,"x_max":0,"o":"m 417 -14 b 50 486 201 -14 50 192 b 417 986 50 781 201 986 b 783 486 632 986 783 781 b 417 -14 783 192 632 -14 m 417 97 b 663 486 565 97 663 250 b 417 875 663 722 565 875 b 171 486 268 875 171 722 b 417 97 171 250 268 97 m 340 1100 l 239 1100 l 347 1357 l 501 1357 m 574 1100 l 472 1100 l 581 1357 l 735 1357 "},"Ō":{"ha":833,"x_min":0,"x_max":0,"o":"m 417 -14 b 50 486 201 -14 50 192 b 417 986 50 781 201 986 b 783 486 632 986 783 781 b 417 -14 783 192 632 -14 m 417 97 b 663 486 565 97 663 250 b 417 875 663 722 565 875 b 171 486 268 875 171 722 b 417 97 171 250 268 97 m 203 1250 l 631 1250 l 631 1153 l 203 1153 "},"Ω":{"ha":833,"x_min":0,"x_max":0,"o":"m 417 878 b 172 522 278 878 172 724 b 375 118 172 349 250 193 l 375 0 l 68 0 l 68 108 l 253 108 l 253 114 b 50 532 128 194 50 356 b 417 986 50 786 211 986 b 783 532 622 986 783 786 b 581 114 783 356 706 194 l 581 108 l 765 108 l 765 0 l 458 0 l 458 118 b 661 522 583 193 661 349 b 417 878 661 724 556 878 "},"Ώ":{"ha":833,"x_min":0,"x_max":0,"o":"m 417 878 b 172 522 278 878 172 724 b 375 118 172 349 250 193 l 375 0 l 68 0 l 68 108 l 253 108 l 253 114 b 50 532 128 194 50 356 b 417 986 50 786 211 986 b 783 532 622 986 783 786 b 581 114 783 356 706 194 l 581 108 l 765 108 l 765 0 l 458 0 l 458 118 b 661 522 583 193 661 349 b 417 878 661 724 556 878 m 46 794 l -47 794 l 0 1075 l 138 1075 "},"Ο":{"ha":833,"x_min":0,"x_max":0,"o":"m 417 -14 b 50 486 201 -14 50 192 b 417 986 50 781 201 986 b 783 486 632 986 783 781 b 417 -14 783 192 632 -14 m 417 97 b 663 486 565 97 663 250 b 417 875 663 722 565 875 b 171 486 268 875 171 722 b 417 97 171 250 268 97 "},"Ό":{"ha":833,"x_min":0,"x_max":0,"o":"m 417 -14 b 50 486 201 -14 50 192 b 417 986 50 781 201 986 b 783 486 632 986 783 781 b 417 -14 783 192 632 -14 m 417 97 b 663 486 565 97 663 250 b 417 875 663 722 565 875 b 171 486 268 875 171 722 b 417 97 171 250 268 97 m 46 794 l -47 794 l 0 1075 l 138 1075 "},"Ø":{"ha":833,"x_min":0,"x_max":0,"o":"m 158 118 b 50 486 90 207 50 335 b 417 986 50 781 201 986 b 611 919 490 986 556 963 l 693 1067 l 771 1022 l 676 853 b 783 486 743 765 783 638 b 417 -14 783 192 632 -14 b 224 53 343 -14 278 10 l 140 -94 l 63 -50 m 171 486 b 222 232 171 385 189 297 l 554 819 b 417 875 517 856 469 875 b 171 486 268 875 171 722 m 417 97 b 663 486 565 97 663 250 b 611 740 663 588 644 675 l 279 151 b 417 97 318 117 364 97 "},"Ǿ":{"ha":833,"x_min":0,"x_max":0,"o":"m 158 118 b 50 486 90 207 50 335 b 417 986 50 781 201 986 b 611 919 490 986 556 963 l 693 1067 l 771 1022 l 676 853 b 783 486 743 765 783 638 b 417 -14 783 192 632 -14 b 224 53 343 -14 278 10 l 140 -94 l 63 -50 m 171 486 b 222 232 171 385 189 297 l 554 819 b 417 875 517 856 469 875 b 171 486 268 875 171 722 m 417 97 b 663 486 565 97 663 250 b 611 740 663 588 644 675 l 279 151 b 417 97 318 117 364 97 m 439 1100 l 338 1100 l 446 1357 l 600 1357 "},"Õ":{"ha":833,"x_min":0,"x_max":0,"o":"m 417 -14 b 50 486 201 -14 50 192 b 417 986 50 781 201 986 b 783 486 632 986 783 781 b 417 -14 783 192 632 -14 m 417 97 b 663 486 565 97 663 250 b 417 875 663 722 565 875 b 171 486 268 875 171 722 b 417 97 171 250 268 97 m 172 1182 b 317 1344 172 1282 228 1344 b 518 1218 444 1344 458 1218 b 560 1296 544 1218 558 1243 l 561 1325 l 661 1325 l 661 1288 b 517 1125 661 1188 606 1125 b 317 1251 389 1125 375 1251 b 274 1174 290 1251 275 1226 l 272 1144 l 172 1144 "},"P":{"ha":833,"x_min":0,"x_max":0,"o":"m 132 972 l 488 972 b 771 692 654 972 771 856 b 488 411 771 528 654 411 l 253 411 l 253 0 l 132 0 m 494 519 b 654 692 590 519 654 589 b 494 864 654 796 590 864 l 253 864 l 253 519 "},"Φ":{"ha":833,"x_min":0,"x_max":0,"o":"m 357 0 l 357 110 b 50 486 174 136 50 283 b 357 863 50 689 174 836 l 357 972 l 476 972 l 476 863 b 783 486 660 836 783 689 b 476 110 783 283 660 136 l 476 0 m 168 486 b 357 222 168 346 242 247 l 357 750 b 168 486 242 725 168 626 m 665 486 b 476 750 665 626 592 725 l 476 222 b 665 486 592 247 665 346 "},"Π":{"ha":833,"x_min":0,"x_max":0,"o":"m 92 972 l 742 972 l 742 0 l 621 0 l 621 861 l 213 861 l 213 0 l 92 0 "},"Ψ":{"ha":833,"x_min":0,"x_max":0,"o":"m 772 633 b 476 285 772 443 656 308 l 476 0 l 357 0 l 357 285 b 61 633 178 308 61 443 l 61 972 l 179 972 l 179 633 b 357 397 179 507 247 419 l 357 972 l 476 972 l 476 397 b 654 633 586 419 654 507 l 654 972 l 772 972 "},"Q":{"ha":833,"x_min":0,"x_max":0,"o":"m 622 63 b 417 -14 565 14 496 -14 b 50 486 201 -14 50 192 b 417 986 50 781 201 986 b 783 486 632 986 783 781 b 683 129 783 342 747 218 l 839 -25 l 775 -89 m 417 97 b 543 143 465 97 507 113 l 365 321 l 429 385 l 601 213 b 663 486 640 279 663 374 b 417 875 663 722 565 875 b 171 486 268 875 171 722 b 417 97 171 250 268 97 "},"R":{"ha":833,"x_min":0,"x_max":0,"o":"m 488 539 b 640 701 579 539 640 604 b 488 864 640 799 579 864 l 250 864 l 250 539 m 129 972 l 481 972 b 757 701 643 972 757 861 b 560 440 757 569 679 471 l 785 0 l 653 0 l 432 431 l 250 431 l 250 0 l 129 0 "},"Ŕ":{"ha":833,"x_min":0,"x_max":0,"o":"m 488 539 b 640 701 579 539 640 604 b 488 864 640 799 579 864 l 250 864 l 250 539 m 129 972 l 481 972 b 757 701 643 972 757 861 b 560 440 757 569 679 471 l 785 0 l 653 0 l 432 431 l 250 431 l 250 0 l 129 0 m 458 1100 l 357 1100 l 465 1357 l 619 1357 "},"Ř":{"ha":833,"x_min":0,"x_max":0,"o":"m 488 539 b 640 701 579 539 640 604 b 488 864 640 799 579 864 l 250 864 l 250 539 m 129 972 l 481 972 b 757 701 643 972 757 861 b 560 440 757 569 679 471 l 785 0 l 653 0 l 432 431 l 250 431 l 250 0 l 129 0 m 218 1335 l 319 1335 l 433 1192 l 547 1335 l 649 1335 l 494 1090 l 372 1090 "},"Ŗ":{"ha":833,"x_min":0,"x_max":0,"o":"m 488 539 b 640 701 579 539 640 604 b 488 864 640 799 579 864 l 250 864 l 250 539 m 129 972 l 481 972 b 757 701 643 972 757 861 b 560 440 757 569 679 471 l 785 0 l 653 0 l 432 431 l 250 431 l 250 0 l 129 0 m 356 -358 l 254 -358 l 361 -101 l 515 -101 "},"Ρ":{"ha":833,"x_min":0,"x_max":0,"o":"m 132 972 l 488 972 b 771 692 654 972 771 856 b 488 411 771 528 654 411 l 253 411 l 253 0 l 132 0 m 494 519 b 654 692 590 519 654 589 b 494 864 654 796 590 864 l 253 864 l 253 519 "},"S":{"ha":833,"x_min":0,"x_max":0,"o":"m 204 247 b 418 89 214 154 301 89 b 624 264 540 89 624 160 b 439 433 624 353 563 407 l 382 444 b 117 710 207 479 117 568 b 417 986 117 874 239 986 b 731 739 589 986 722 881 l 617 739 b 419 879 606 821 524 879 b 235 717 308 879 235 814 b 399 558 235 633 290 581 l 456 547 b 743 269 646 508 743 417 b 421 -19 743 99 611 -19 b 90 247 235 -19 96 93 "},"Ś":{"ha":833,"x_min":0,"x_max":0,"o":"m 204 247 b 418 89 214 154 301 89 b 624 264 540 89 624 160 b 439 433 624 353 563 407 l 382 444 b 117 710 207 479 117 568 b 417 986 117 874 239 986 b 731 739 589 986 722 881 l 617 739 b 419 879 606 821 524 879 b 235 717 308 879 235 814 b 399 558 235 633 290 581 l 456 547 b 743 269 646 508 743 417 b 421 -19 743 99 611 -19 b 90 247 235 -19 96 93 m 442 1100 l 340 1100 l 449 1357 l 603 1357 "},"Š":{"ha":833,"x_min":0,"x_max":0,"o":"m 204 247 b 418 89 214 154 301 89 b 624 264 540 89 624 160 b 439 433 624 353 563 407 l 382 444 b 117 710 207 479 117 568 b 417 986 117 874 239 986 b 731 739 589 986 722 881 l 617 739 b 419 879 606 821 524 879 b 235 717 308 879 235 814 b 399 558 235 633 290 581 l 456 547 b 743 269 646 508 743 417 b 421 -19 743 99 611 -19 b 90 247 235 -19 96 93 m 201 1335 l 303 1335 l 417 1192 l 531 1335 l 632 1335 l 478 1090 l 356 1090 "},"Ş":{"ha":833,"x_min":0,"x_max":0,"o":"m 372 -221 b 450 -282 378 -257 408 -282 b 524 -214 493 -282 524 -254 b 449 -144 524 -172 492 -144 b 397 -161 428 -144 410 -151 l 338 -140 l 360 -15 b 90 247 206 7 96 110 l 204 247 b 418 89 214 154 301 89 b 624 264 540 89 624 160 b 439 433 624 353 563 407 l 382 444 b 117 710 207 479 117 568 b 417 986 117 874 239 986 b 731 739 589 986 722 881 l 617 739 b 419 879 606 821 524 879 b 235 717 308 879 235 814 b 399 558 235 633 290 581 l 456 547 b 743 269 646 508 743 417 b 460 -18 743 111 629 -3 l 450 -74 b 618 -210 544 -61 618 -121 b 447 -362 618 -297 546 -362 b 279 -221 353 -362 282 -303 l 372 -221 "},"Ŝ":{"ha":833,"x_min":0,"x_max":0,"o":"m 204 247 b 418 89 214 154 301 89 b 624 264 540 89 624 160 b 439 433 624 353 563 407 l 382 444 b 117 710 207 479 117 568 b 417 986 117 874 239 986 b 731 739 589 986 722 881 l 617 739 b 419 879 606 821 524 879 b 235 717 308 879 235 814 b 399 558 235 633 290 581 l 456 547 b 743 269 646 508 743 417 b 421 -19 743 99 611 -19 b 90 247 235 -19 96 93 m 356 1335 l 478 1335 l 632 1090 l 531 1090 l 417 1235 l 303 1090 l 201 1090 "},"Ș":{"ha":833,"x_min":0,"x_max":0,"o":"m 204 247 b 418 89 214 154 301 89 b 624 264 540 89 624 160 b 439 433 624 353 563 407 l 382 444 b 117 710 207 479 117 568 b 417 986 117 874 239 986 b 731 739 589 986 722 881 l 617 739 b 419 879 606 821 524 879 b 235 717 308 879 235 814 b 399 558 235 633 290 581 l 456 547 b 743 269 646 508 743 417 b 421 -19 743 99 611 -19 b 90 247 235 -19 96 93 m 328 -358 l 226 -358 l 333 -101 l 488 -101 "},"Σ":{"ha":833,"x_min":0,"x_max":0,"o":"m 78 99 l 433 494 l 86 869 l 86 968 l 726 968 l 726 861 l 250 861 l 588 496 l 239 107 l 756 107 l 756 0 l 78 0 "},"T":{"ha":833,"x_min":0,"x_max":0,"o":"m 357 864 l 64 864 l 64 972 l 769 972 l 769 864 l 478 864 l 478 0 l 357 0 "},"Τ":{"ha":833,"x_min":0,"x_max":0,"o":"m 357 864 l 64 864 l 64 972 l 769 972 l 769 864 l 478 864 l 478 0 l 357 0 "},"Ŧ":{"ha":833,"x_min":0,"x_max":0,"o":"m 357 417 l 204 417 l 204 514 l 357 514 l 357 864 l 64 864 l 64 972 l 769 972 l 769 864 l 478 864 l 478 514 l 632 514 l 632 417 l 478 417 l 478 0 l 357 0 "},"Ť":{"ha":833,"x_min":0,"x_max":0,"o":"m 357 864 l 64 864 l 64 972 l 769 972 l 769 864 l 478 864 l 478 0 l 357 0 m 201 1335 l 303 1335 l 417 1192 l 531 1335 l 632 1335 l 478 1090 l 356 1090 "},"Ţ":{"ha":833,"x_min":0,"x_max":0,"o":"m 357 864 l 64 864 l 64 972 l 769 972 l 769 864 l 478 864 l 478 0 l 465 0 l 453 -74 b 621 -210 547 -61 621 -121 b 450 -362 621 -297 549 -362 b 282 -221 356 -362 285 -303 l 375 -221 b 453 -282 381 -257 411 -282 b 526 -214 496 -282 526 -254 b 451 -144 526 -172 494 -144 b 400 -161 431 -144 413 -151 l 340 -140 l 365 0 l 357 0 "},"Ț":{"ha":833,"x_min":0,"x_max":0,"o":"m 357 864 l 64 864 l 64 972 l 769 972 l 769 864 l 478 864 l 478 0 l 357 0 m 331 -358 l 229 -358 l 336 -101 l 490 -101 "},"Θ":{"ha":833,"x_min":0,"x_max":0,"o":"m 417 -14 b 50 486 201 -14 50 192 b 417 986 50 781 201 986 b 783 486 632 986 783 781 b 417 -14 783 192 632 -14 m 417 97 b 663 486 565 97 663 250 b 417 875 663 722 565 875 b 171 486 268 875 171 722 b 417 97 171 250 268 97 m 258 539 l 575 539 l 575 433 l 258 433 "},"Þ":{"ha":833,"x_min":0,"x_max":0,"o":"m 131 972 l 251 972 l 251 774 l 479 774 b 756 493 640 774 756 657 b 479 213 756 329 640 213 l 251 213 l 251 0 l 131 0 m 479 321 b 633 493 572 321 633 390 b 479 665 633 596 572 665 l 251 665 l 251 321 "},"U":{"ha":833,"x_min":0,"x_max":0,"o":"m 742 306 b 417 -14 742 118 607 -14 b 92 306 226 -14 92 118 l 92 972 l 213 972 l 213 306 b 417 97 213 181 296 97 b 621 306 539 97 621 181 l 621 972 l 742 972 "},"Ú":{"ha":833,"x_min":0,"x_max":0,"o":"m 742 306 b 417 -14 742 118 607 -14 b 92 306 226 -14 92 118 l 92 972 l 213 972 l 213 306 b 417 97 213 181 296 97 b 621 306 539 97 621 181 l 621 972 l 742 972 m 442 1100 l 340 1100 l 449 1357 l 603 1357 "},"Ŭ":{"ha":833,"x_min":0,"x_max":0,"o":"m 742 306 b 417 -14 742 118 607 -14 b 92 306 226 -14 92 118 l 92 972 l 213 972 l 213 306 b 417 97 213 181 296 97 b 621 306 539 97 621 181 l 621 972 l 742 972 m 326 1282 b 417 1181 332 1221 368 1181 b 507 1282 465 1181 501 1221 l 603 1282 b 417 1092 603 1171 525 1092 b 231 1282 308 1092 231 1171 l 326 1282 "},"Û":{"ha":833,"x_min":0,"x_max":0,"o":"m 742 306 b 417 -14 742 118 607 -14 b 92 306 226 -14 92 118 l 92 972 l 213 972 l 213 306 b 417 97 213 181 296 97 b 621 306 539 97 621 181 l 621 972 l 742 972 m 356 1335 l 478 1335 l 632 1090 l 531 1090 l 417 1235 l 303 1090 l 201 1090 "},"Ü":{"ha":833,"x_min":0,"x_max":0,"o":"m 742 306 b 417 -14 742 118 607 -14 b 92 306 226 -14 92 118 l 92 972 l 213 972 l 213 306 b 417 97 213 181 296 97 b 621 306 539 97 621 181 l 621 972 l 742 972 m 178 1215 b 272 1310 178 1268 219 1310 b 367 1215 326 1310 367 1268 b 272 1119 367 1163 326 1119 b 178 1215 219 1119 178 1163 m 467 1215 b 561 1310 467 1268 508 1310 b 656 1215 615 1310 656 1268 b 561 1119 656 1163 615 1119 b 467 1215 508 1119 467 1163 "},"Ù":{"ha":833,"x_min":0,"x_max":0,"o":"m 742 306 b 417 -14 742 118 607 -14 b 92 306 226 -14 92 118 l 92 972 l 213 972 l 213 306 b 417 97 213 181 296 97 b 621 306 539 97 621 181 l 621 972 l 742 972 m 392 1100 l 231 1357 l 385 1357 l 493 1100 "},"Ű":{"ha":833,"x_min":0,"x_max":0,"o":"m 742 306 b 417 -14 742 118 607 -14 b 92 306 226 -14 92 118 l 92 972 l 213 972 l 213 306 b 417 97 213 181 296 97 b 621 306 539 97 621 181 l 621 972 l 742 972 m 340 1100 l 239 1100 l 347 1357 l 501 1357 m 574 1100 l 472 1100 l 581 1357 l 735 1357 "},"Ū":{"ha":833,"x_min":0,"x_max":0,"o":"m 742 306 b 417 -14 742 118 607 -14 b 92 306 226 -14 92 118 l 92 972 l 213 972 l 213 306 b 417 97 213 181 296 97 b 621 306 539 97 621 181 l 621 972 l 742 972 m 203 1250 l 631 1250 l 631 1153 l 203 1153 "},"Ų":{"ha":833,"x_min":0,"x_max":0,"o":"m 742 306 b 536 6 742 161 661 49 b 494 -71 508 -17 494 -43 b 579 -147 494 -117 531 -147 b 615 -143 589 -147 603 -146 l 615 -228 b 558 -235 600 -232 581 -235 b 393 -90 460 -235 393 -175 b 414 -14 393 -62 400 -37 b 92 306 225 -12 92 119 l 92 972 l 213 972 l 213 306 b 417 97 213 181 296 97 b 621 306 539 97 621 181 l 621 972 l 742 972 "},"Υ":{"ha":833,"x_min":0,"x_max":0,"o":"m 357 408 l 29 972 l 164 972 l 418 529 l 674 972 l 804 972 l 476 408 l 476 0 l 357 0 "},"Ϋ":{"ha":833,"x_min":0,"x_max":0,"o":"m 357 408 l 29 972 l 164 972 l 418 529 l 674 972 l 804 972 l 476 408 l 476 0 l 357 0 m 178 1215 b 272 1310 178 1268 219 1310 b 367 1215 326 1310 367 1268 b 272 1119 367 1163 326 1119 b 178 1215 219 1119 178 1163 m 467 1215 b 561 1310 467 1268 508 1310 b 656 1215 615 1310 656 1268 b 561 1119 656 1163 615 1119 b 467 1215 508 1119 467 1163 "},"Ύ":{"ha":833,"x_min":0,"x_max":0,"o":"m 357 408 l 29 972 l 164 972 l 418 529 l 674 972 l 804 972 l 476 408 l 476 0 l 357 0 m -54 794 l -147 794 l -100 1075 l 38 1075 "},"Ů":{"ha":833,"x_min":0,"x_max":0,"o":"m 742 306 b 417 -14 742 118 607 -14 b 92 306 226 -14 92 118 l 92 972 l 213 972 l 213 306 b 417 97 213 181 296 97 b 621 306 539 97 621 181 l 621 972 l 742 972 m 256 1235 b 417 1393 256 1324 325 1393 b 578 1235 508 1393 578 1324 b 417 1074 578 1144 507 1074 b 256 1235 326 1074 256 1144 m 417 1153 b 494 1233 461 1153 494 1186 b 417 1314 494 1281 461 1314 b 339 1233 372 1314 339 1281 b 417 1153 339 1186 372 1153 "},"Ũ":{"ha":833,"x_min":0,"x_max":0,"o":"m 742 306 b 417 -14 742 118 607 -14 b 92 306 226 -14 92 118 l 92 972 l 213 972 l 213 306 b 417 97 213 181 296 97 b 621 306 539 97 621 181 l 621 972 l 742 972 m 172 1182 b 317 1344 172 1282 228 1344 b 518 1218 444 1344 458 1218 b 560 1296 544 1218 558 1243 l 561 1325 l 661 1325 l 661 1288 b 517 1125 661 1188 606 1125 b 317 1251 389 1125 375 1251 b 274 1174 290 1251 275 1226 l 272 1144 l 172 1144 "},"V":{"ha":833,"x_min":0,"x_max":0,"o":"m 36 972 l 160 972 l 415 135 l 421 135 l 676 972 l 797 972 l 497 0 l 336 0 "},"W":{"ha":833,"x_min":0,"x_max":0,"o":"m -6 972 l 106 972 l 185 158 l 190 158 l 365 825 l 468 825 l 643 158 l 649 158 l 729 972 l 839 972 l 736 0 l 588 0 l 419 642 l 414 642 l 246 0 l 97 0 "},"Ẃ":{"ha":833,"x_min":0,"x_max":0,"o":"m -6 972 l 106 972 l 185 158 l 190 158 l 365 825 l 468 825 l 643 158 l 649 158 l 729 972 l 839 972 l 736 0 l 588 0 l 419 642 l 414 642 l 246 0 l 97 0 m 442 1100 l 340 1100 l 449 1357 l 603 1357 "},"Ŵ":{"ha":833,"x_min":0,"x_max":0,"o":"m -6 972 l 106 972 l 185 158 l 190 158 l 365 825 l 468 825 l 643 158 l 649 158 l 729 972 l 839 972 l 736 0 l 588 0 l 419 642 l 414 642 l 246 0 l 97 0 m 356 1335 l 478 1335 l 632 1090 l 531 1090 l 417 1235 l 303 1090 l 201 1090 "},"Ẅ":{"ha":833,"x_min":0,"x_max":0,"o":"m -6 972 l 106 972 l 185 158 l 190 158 l 365 825 l 468 825 l 643 158 l 649 158 l 729 972 l 839 972 l 736 0 l 588 0 l 419 642 l 414 642 l 246 0 l 97 0 m 178 1215 b 272 1310 178 1268 219 1310 b 367 1215 326 1310 367 1268 b 272 1119 367 1163 326 1119 b 178 1215 219 1119 178 1163 m 467 1215 b 561 1310 467 1268 508 1310 b 656 1215 615 1310 656 1268 b 561 1119 656 1163 615 1119 b 467 1215 508 1119 467 1163 "},"Ẁ":{"ha":833,"x_min":0,"x_max":0,"o":"m -6 972 l 106 972 l 185 158 l 190 158 l 365 825 l 468 825 l 643 158 l 649 158 l 729 972 l 839 972 l 736 0 l 588 0 l 419 642 l 414 642 l 246 0 l 97 0 m 392 1100 l 231 1357 l 385 1357 l 493 1100 "},"X":{"ha":833,"x_min":0,"x_max":0,"o":"m 342 506 l 38 972 l 175 972 l 417 604 l 658 972 l 793 972 l 490 507 l 818 0 l 681 0 l 415 407 l 150 0 l 15 0 "},"Ξ":{"ha":833,"x_min":0,"x_max":0,"o":"m 99 108 l 735 108 l 735 0 l 99 0 m 160 558 l 674 558 l 674 450 l 160 450 m 99 972 l 735 972 l 735 864 l 99 864 "},"Y":{"ha":833,"x_min":0,"x_max":0,"o":"m 357 408 l 29 972 l 164 972 l 418 529 l 674 972 l 804 972 l 476 408 l 476 0 l 357 0 "},"Ý":{"ha":833,"x_min":0,"x_max":0,"o":"m 357 408 l 29 972 l 164 972 l 418 529 l 674 972 l 804 972 l 476 408 l 476 0 l 357 0 m 442 1100 l 340 1100 l 449 1357 l 603 1357 "},"Ŷ":{"ha":833,"x_min":0,"x_max":0,"o":"m 357 408 l 29 972 l 164 972 l 418 529 l 674 972 l 804 972 l 476 408 l 476 0 l 357 0 m 356 1335 l 478 1335 l 632 1090 l 531 1090 l 417 1235 l 303 1090 l 201 1090 "},"Ÿ":{"ha":833,"x_min":0,"x_max":0,"o":"m 357 408 l 29 972 l 164 972 l 418 529 l 674 972 l 804 972 l 476 408 l 476 0 l 357 0 m 178 1215 b 272 1310 178 1268 219 1310 b 367 1215 326 1310 367 1268 b 272 1119 367 1163 326 1119 b 178 1215 219 1119 178 1163 m 467 1215 b 561 1310 467 1268 508 1310 b 656 1215 615 1310 656 1268 b 561 1119 656 1163 615 1119 b 467 1215 508 1119 467 1163 "},"Ỳ":{"ha":833,"x_min":0,"x_max":0,"o":"m 357 408 l 29 972 l 164 972 l 418 529 l 674 972 l 804 972 l 476 408 l 476 0 l 357 0 m 392 1100 l 231 1357 l 385 1357 l 493 1100 "},"Z":{"ha":833,"x_min":0,"x_max":0,"o":"m 78 100 l 586 864 l 92 864 l 92 972 l 732 972 l 732 872 l 224 108 l 756 108 l 756 0 l 78 0 "},"Ź":{"ha":833,"x_min":0,"x_max":0,"o":"m 78 100 l 586 864 l 92 864 l 92 972 l 732 972 l 732 872 l 224 108 l 756 108 l 756 0 l 78 0 m 442 1100 l 340 1100 l 449 1357 l 603 1357 "},"Ž":{"ha":833,"x_min":0,"x_max":0,"o":"m 78 100 l 586 864 l 92 864 l 92 972 l 732 972 l 732 872 l 224 108 l 756 108 l 756 0 l 78 0 m 201 1335 l 303 1335 l 417 1192 l 531 1335 l 632 1335 l 478 1090 l 356 1090 "},"Ż":{"ha":833,"x_min":0,"x_max":0,"o":"m 78 100 l 586 864 l 92 864 l 92 972 l 732 972 l 732 872 l 224 108 l 756 108 l 756 0 l 78 0 m 314 1214 b 417 1315 314 1271 361 1315 b 519 1214 474 1315 519 1271 b 417 1111 519 1157 474 1111 b 314 1214 361 1111 314 1157 "},"Ζ":{"ha":833,"x_min":0,"x_max":0,"o":"m 78 100 l 586 864 l 92 864 l 92 972 l 732 972 l 732 872 l 224 108 l 756 108 l 756 0 l 78 0 "},"a":{"ha":833,"x_min":0,"x_max":0,"o":"m 572 535 b 418 665 572 615 514 665 b 254 558 329 665 263 622 l 140 558 b 418 764 146 678 263 764 b 689 533 581 764 689 672 l 689 268 b 717 0 689 151 697 65 l 606 0 b 581 119 594 31 586 71 l 575 119 b 351 -14 532 35 453 -14 b 113 214 211 -14 113 79 b 426 446 113 351 215 426 l 496 453 b 572 535 549 458 572 483 m 572 396 b 506 372 556 383 533 376 l 439 365 b 229 217 293 347 229 303 b 372 82 229 135 286 82 b 572 292 483 82 572 172 l 572 396 "},"á":{"ha":833,"x_min":0,"x_max":0,"o":"m 572 535 b 418 665 572 615 514 665 b 254 558 329 665 263 622 l 140 558 b 418 764 146 678 263 764 b 689 533 581 764 689 672 l 689 268 b 717 0 689 151 697 65 l 606 0 b 581 119 594 31 586 71 l 575 119 b 351 -14 532 35 453 -14 b 113 214 211 -14 113 79 b 426 446 113 351 215 426 l 496 453 b 572 535 549 458 572 483 m 572 396 b 506 372 556 383 533 376 l 439 365 b 229 217 293 347 229 303 b 372 82 229 135 286 82 b 572 292 483 82 572 172 l 572 396 m 439 878 l 338 878 l 446 1135 l 600 1135 "},"ă":{"ha":833,"x_min":0,"x_max":0,"o":"m 572 535 b 418 665 572 615 514 665 b 254 558 329 665 263 622 l 140 558 b 418 764 146 678 263 764 b 689 533 581 764 689 672 l 689 268 b 717 0 689 151 697 65 l 606 0 b 581 119 594 31 586 71 l 575 119 b 351 -14 532 35 453 -14 b 113 214 211 -14 113 79 b 426 446 113 351 215 426 l 496 453 b 572 535 549 458 572 483 m 572 396 b 506 372 556 383 533 376 l 439 365 b 229 217 293 347 229 303 b 372 82 229 135 286 82 b 572 292 483 82 572 172 l 572 396 m 324 1060 b 414 958 329 999 365 958 b 504 1060 463 958 499 999 l 600 1060 b 414 869 600 949 522 869 b 228 1060 306 869 228 949 l 324 1060 "},"â":{"ha":833,"x_min":0,"x_max":0,"o":"m 572 535 b 418 665 572 615 514 665 b 254 558 329 665 263 622 l 140 558 b 418 764 146 678 263 764 b 689 533 581 764 689 672 l 689 268 b 717 0 689 151 697 65 l 606 0 b 581 119 594 31 586 71 l 575 119 b 351 -14 532 35 453 -14 b 113 214 211 -14 113 79 b 426 446 113 351 215 426 l 496 453 b 572 535 549 458 572 483 m 572 396 b 506 372 556 383 533 376 l 439 365 b 229 217 293 347 229 303 b 372 82 229 135 286 82 b 572 292 483 82 572 172 l 572 396 m 353 1113 l 475 1113 l 629 868 l 528 868 l 414 1013 l 300 868 l 199 868 "},"␆":{"ha":833,"x_min":0,"x_max":0,"o":"m 17 868 l 153 1354 l 264 1354 l 400 868 l 321 868 l 285 999 l 131 999 l 94 868 m 265 1069 l 210 1272 l 207 1272 l 150 1069 m 593 374 b 435 236 585 293 518 236 b 246 486 324 236 246 339 b 433 736 246 635 324 736 b 589 606 514 736 578 682 l 510 606 b 433 663 500 640 471 663 b 326 486 368 663 326 594 b 436 310 326 379 369 310 b 513 374 475 310 506 335 m 542 -118 l 728 104 l 825 104 l 656 -97 l 833 -382 l 742 -382 l 603 -161 l 542 -233 l 542 -382 l 460 -382 l 460 104 l 542 104 "},"´":{"ha":833,"x_min":0,"x_max":0,"o":"m 339 744 l 214 744 l 446 1083 l 619 1083 "},"́":{"ha":833,"x_min":0,"x_max":0,"o":"m 388 878 l 286 878 l 394 1135 l 549 1135 "},"ä":{"ha":833,"x_min":0,"x_max":0,"o":"m 572 535 b 418 665 572 615 514 665 b 254 558 329 665 263 622 l 140 558 b 418 764 146 678 263 764 b 689 533 581 764 689 672 l 689 268 b 717 0 689 151 697 65 l 606 0 b 581 119 594 31 586 71 l 575 119 b 351 -14 532 35 453 -14 b 113 214 211 -14 113 79 b 426 446 113 351 215 426 l 496 453 b 572 535 549 458 572 483 m 572 396 b 506 372 556 383 533 376 l 439 365 b 229 217 293 347 229 303 b 372 82 229 135 286 82 b 572 292 483 82 572 172 l 572 396 m 175 993 b 269 1088 175 1046 217 1088 b 364 993 324 1088 364 1046 b 269 897 364 940 324 897 b 175 993 217 897 175 940 m 464 993 b 558 1088 464 1046 506 1088 b 653 993 613 1088 653 1046 b 558 897 653 940 613 897 b 464 993 506 897 464 940 "},"æ":{"ha":833,"x_min":0,"x_max":0,"o":"m 211 -14 b 22 203 100 -14 22 75 b 285 440 22 347 125 440 l 350 440 l 350 476 b 235 667 350 586 301 667 b 135 558 186 667 142 622 l 33 558 b 229 764 40 676 124 764 b 410 607 315 764 381 706 l 417 607 b 590 764 451 707 511 764 b 811 394 722 764 811 613 l 811 350 l 463 350 b 597 82 467 185 519 82 b 707 192 650 82 697 128 l 804 192 b 599 -14 790 72 704 -14 b 411 151 513 -14 447 46 l 406 151 b 211 -14 372 47 301 -14 m 707 440 b 588 668 703 582 657 668 b 464 440 519 668 474 582 m 285 350 b 126 204 186 350 126 296 b 218 82 126 132 164 82 b 350 314 293 82 350 182 l 350 350 "},"ǽ":{"ha":833,"x_min":0,"x_max":0,"o":"m 211 -14 b 22 203 100 -14 22 75 b 285 440 22 347 125 440 l 350 440 l 350 476 b 235 667 350 586 301 667 b 135 558 186 667 142 622 l 33 558 b 229 764 40 676 124 764 b 410 607 315 764 381 706 l 417 607 b 590 764 451 707 511 764 b 811 394 722 764 811 613 l 811 350 l 463 350 b 597 82 467 185 519 82 b 707 192 650 82 697 128 l 804 192 b 599 -14 790 72 704 -14 b 411 151 513 -14 447 46 l 406 151 b 211 -14 372 47 301 -14 m 707 440 b 588 668 703 582 657 668 b 464 440 519 668 474 582 m 285 350 b 126 204 186 350 126 296 b 218 82 126 132 164 82 b 350 314 293 82 350 182 l 350 350 m 440 876 l 339 876 l 447 1133 l 601 1133 "},"à":{"ha":833,"x_min":0,"x_max":0,"o":"m 572 535 b 418 665 572 615 514 665 b 254 558 329 665 263 622 l 140 558 b 418 764 146 678 263 764 b 689 533 581 764 689 672 l 689 268 b 717 0 689 151 697 65 l 606 0 b 581 119 594 31 586 71 l 575 119 b 351 -14 532 35 453 -14 b 113 214 211 -14 113 79 b 426 446 113 351 215 426 l 496 453 b 572 535 549 458 572 483 m 572 396 b 506 372 556 383 533 376 l 439 365 b 229 217 293 347 229 303 b 372 82 229 135 286 82 b 572 292 483 82 572 172 l 572 396 m 389 878 l 228 1135 l 382 1135 l 490 878 "},"α":{"ha":833,"x_min":0,"x_max":0,"o":"m 365 764 b 610 567 476 764 561 696 l 650 750 l 767 750 l 688 375 l 767 0 l 650 0 l 610 183 b 367 -14 561 54 476 -14 b 67 375 193 -14 67 151 b 365 764 67 600 193 764 m 581 375 l 567 444 b 381 658 538 582 471 658 b 185 375 267 658 185 539 b 381 92 185 211 267 92 b 567 306 471 92 538 168 "},"ά":{"ha":833,"x_min":0,"x_max":0,"o":"m 365 764 b 610 567 476 764 561 696 l 650 750 l 767 750 l 688 375 l 767 0 l 650 0 l 610 183 b 367 -14 561 54 476 -14 b 67 375 193 -14 67 151 b 365 764 67 600 193 764 m 581 375 l 567 444 b 381 658 538 582 471 658 b 185 375 267 658 185 539 b 381 92 185 211 267 92 b 567 306 471 92 538 168 m 433 868 l 340 868 l 388 1149 l 525 1149 "},"⎇":{"ha":833,"x_min":0,"x_max":0,"o":"m 238 1 l 8 1 l 8 103 l 169 103 l 522 975 l 825 975 l 825 872 l 590 872 m 476 1 l 476 103 l 825 103 l 825 1 "},"ā":{"ha":833,"x_min":0,"x_max":0,"o":"m 572 535 b 418 665 572 615 514 665 b 254 558 329 665 263 622 l 140 558 b 418 764 146 678 263 764 b 689 533 581 764 689 672 l 689 268 b 717 0 689 151 697 65 l 606 0 b 581 119 594 31 586 71 l 575 119 b 351 -14 532 35 453 -14 b 113 214 211 -14 113 79 b 426 446 113 351 215 426 l 496 453 b 572 535 549 458 572 483 m 572 396 b 506 372 556 383 533 376 l 439 365 b 229 217 293 347 229 303 b 372 82 229 135 286 82 b 572 292 483 82 572 172 l 572 396 m 200 1028 l 628 1028 l 628 931 l 200 931 "},"&":{"ha":833,"x_min":0,"x_max":0,"o":"m 561 121 b 281 -19 479 31 383 -19 b 31 224 136 -19 31 83 b 211 518 31 331 93 432 l 194 538 b 90 769 126 615 90 693 b 321 986 90 894 186 986 b 553 771 456 986 553 894 b 400 524 553 679 499 593 l 372 504 l 554 297 b 631 489 585 353 611 417 l 747 489 b 629 211 718 382 678 289 l 815 0 l 667 0 m 290 86 b 490 201 361 86 431 128 l 281 439 l 281 438 b 149 231 194 376 149 306 b 290 86 149 146 207 86 m 208 764 b 282 606 208 714 235 661 l 301 583 l 339 610 b 439 768 403 657 439 711 b 324 882 439 833 392 882 b 208 764 256 882 208 832 "},"ą":{"ha":833,"x_min":0,"x_max":0,"o":"m 713 -278 b 656 -285 697 -282 678 -285 b 490 -140 557 -285 490 -225 b 600 18 490 -78 526 -24 b 581 119 592 46 585 79 l 575 119 b 351 -14 532 35 453 -14 b 113 214 211 -14 113 79 b 426 446 113 351 215 426 l 496 453 b 572 535 549 458 572 483 b 418 665 572 615 514 665 b 254 558 329 665 263 622 l 140 558 b 418 764 146 678 263 764 b 689 533 581 764 689 672 l 689 268 b 717 0 689 151 697 65 b 592 -121 633 -32 592 -72 b 676 -197 592 -167 628 -197 b 713 -193 686 -197 700 -196 l 713 -278 m 572 396 b 506 372 556 383 533 376 l 439 365 b 229 217 293 347 229 303 b 372 82 229 135 286 82 b 572 292 483 82 572 172 l 572 396 "},"":{"ha":833,"x_min":0,"x_max":0,"o":"m 0 972 l 833 972 l 833 0 l 0 0 m 500 654 l 503 654 l 590 347 l 649 347 l 738 654 l 740 654 l 740 243 l 800 243 l 800 729 l 708 729 l 621 425 l 618 425 l 532 729 l 439 729 l 439 243 l 500 243 m 324 368 b 231 296 314 325 278 296 b 108 486 157 296 108 371 b 229 678 108 601 156 678 b 318 611 274 678 310 651 l 381 611 b 229 736 369 685 307 736 b 43 486 119 736 43 635 b 229 236 43 339 119 236 b 386 368 310 236 375 292 "},"≈":{"ha":833,"x_min":0,"x_max":0,"o":"m 78 518 b 272 735 78 649 156 735 b 567 544 447 735 458 544 b 649 665 617 544 646 585 l 650 707 l 756 707 l 756 660 b 561 443 756 529 678 443 b 265 633 386 443 372 633 b 185 513 215 633 188 592 l 183 471 l 78 471 m 78 201 b 272 418 78 332 156 418 b 567 228 447 418 458 228 b 649 349 617 228 646 268 l 650 390 l 756 390 l 756 343 b 561 126 756 213 678 126 b 265 317 386 126 372 317 b 185 196 215 317 188 275 l 183 154 l 78 154 "},"å":{"ha":833,"x_min":0,"x_max":0,"o":"m 572 535 b 418 665 572 615 514 665 b 254 558 329 665 263 622 l 140 558 b 418 764 146 678 263 764 b 689 533 581 764 689 672 l 689 268 b 717 0 689 151 697 65 l 606 0 b 581 119 594 31 586 71 l 575 119 b 351 -14 532 35 453 -14 b 113 214 211 -14 113 79 b 426 446 113 351 215 426 l 496 453 b 572 535 549 458 572 483 m 572 396 b 506 372 556 383 533 376 l 439 365 b 229 217 293 347 229 303 b 372 82 229 135 286 82 b 572 292 483 82 572 172 l 572 396 m 253 1013 b 414 1171 253 1101 322 1171 b 575 1013 506 1171 575 1101 b 414 851 575 922 504 851 b 253 1013 324 851 253 922 m 414 931 b 492 1011 458 931 492 964 b 414 1092 492 1058 458 1092 b 336 1011 369 1092 336 1058 b 414 931 336 964 369 931 "},"ǻ":{"ha":833,"x_min":0,"x_max":0,"o":"m 572 535 b 418 665 572 615 514 665 b 254 558 329 665 263 622 l 140 558 b 418 764 146 678 263 764 b 689 533 581 764 689 672 l 689 268 b 717 0 689 151 697 65 l 606 0 b 581 119 594 31 586 71 l 575 119 b 351 -14 532 35 453 -14 b 113 214 211 -14 113 79 b 426 446 113 351 215 426 l 496 453 b 572 535 549 458 572 483 m 478 1160 b 578 1013 538 1136 578 1081 b 417 851 578 922 507 851 b 256 1013 326 851 256 922 b 365 1163 256 1085 300 1143 l 447 1357 l 601 1357 m 572 396 b 506 372 556 383 533 376 l 439 365 b 229 217 293 347 229 303 b 372 82 229 135 286 82 b 572 292 483 82 572 172 l 572 396 m 417 931 b 494 1011 461 931 494 964 b 417 1092 494 1058 461 1092 b 339 1011 372 1092 339 1058 b 417 931 339 964 372 931 "},"↔":{"ha":833,"x_min":0,"x_max":0,"o":"m 194 428 l 338 285 l 263 210 l -14 486 l 263 763 l 338 688 l 194 544 l 197 539 l 636 539 l 639 544 l 496 688 l 571 763 l 847 486 l 571 210 l 496 285 l 639 428 l 636 433 l 197 433 "},"⇒":{"ha":833,"x_min":0,"x_max":0,"o":"m 513 246 l -7 246 l -7 349 l 615 349 l 697 431 l 615 513 l -7 513 l -7 615 l 513 615 l 332 796 l 407 871 l 847 431 l 407 -10 l 332 65 "},"↓":{"ha":833,"x_min":0,"x_max":0,"o":"m 478 197 l 657 376 l 732 301 l 417 -14 l 101 301 l 176 376 l 356 197 l 361 200 l 361 972 l 472 972 l 472 200 "},"⌤":{"ha":833,"x_min":0,"x_max":0,"o":"m 358 643 l 475 643 l 686 329 l 561 329 l 417 543 l 272 329 l 147 329 m 231 643 l 231 540 l 8 540 l 8 643 m 822 643 l 822 540 l 600 540 l 600 643 "},"←":{"ha":833,"x_min":0,"x_max":0,"o":"m 194 428 l 376 246 l 301 171 l -14 486 l 301 801 l 376 726 l 194 544 l 197 539 l 840 539 l 840 433 l 197 433 "},"→":{"ha":833,"x_min":0,"x_max":0,"o":"m 636 433 l -7 433 l -7 539 l 636 539 l 639 544 l 457 726 l 532 801 l 847 486 l 532 171 l 457 246 l 639 428 "},"➜":{"ha":833,"x_min":0,"x_max":0,"o":"m 636 433 l -7 433 l -7 539 l 636 539 l 639 544 l 457 726 l 532 801 l 847 486 l 532 171 l 457 246 l 639 428 "},"↑":{"ha":833,"x_min":0,"x_max":0,"o":"m 356 775 l 176 596 l 101 671 l 417 986 l 732 671 l 657 596 l 478 775 l 472 772 l 472 0 l 361 0 l 361 772 "},"↕":{"ha":833,"x_min":0,"x_max":0,"o":"m 357 778 l 188 607 l 113 682 l 417 986 l 721 682 l 646 607 l 476 778 l 471 775 l 471 197 l 476 194 l 646 365 l 721 290 l 417 -14 l 113 290 l 188 365 l 357 194 l 363 197 l 363 775 "},"↨":{"ha":833,"x_min":0,"x_max":0,"o":"m 357 778 l 188 607 l 113 682 l 417 986 l 721 682 l 646 607 l 476 778 l 471 775 l 471 197 l 476 194 l 646 365 l 721 290 l 417 -14 l 113 290 l 188 365 l 357 194 l 363 197 l 363 775 m 97 -64 l 736 -64 l 736 -169 l 97 -169 "},"^":{"ha":833,"x_min":0,"x_max":0,"o":"m 350 972 l 483 972 l 718 525 l 599 525 l 417 868 l 235 525 l 115 525 "},"~":{"ha":833,"x_min":0,"x_max":0,"o":"m 78 360 b 272 576 78 490 156 576 b 567 386 447 576 458 386 b 649 507 617 386 646 426 l 650 549 l 756 549 l 756 501 b 561 285 756 371 678 285 b 265 475 386 285 372 475 b 185 354 215 475 188 433 l 183 313 l 78 313 "},"*":{"ha":833,"x_min":0,"x_max":0,"o":"m 718 557 l 750 460 l 500 378 l 654 165 l 572 104 l 417 317 l 261 104 l 179 165 l 333 378 l 83 460 l 115 557 l 365 476 l 365 739 l 468 739 l 468 476 "},"∗":{"ha":833,"x_min":0,"x_max":0,"o":"m 718 613 l 750 515 l 500 433 l 654 221 l 572 160 l 417 372 l 261 160 l 179 221 l 333 433 l 83 515 l 115 613 l 365 532 l 365 794 l 468 794 l 468 532 "},"@":{"ha":833,"x_min":0,"x_max":0,"o":"m 506 181 b 308 428 392 181 308 285 b 533 704 308 583 407 704 b 688 610 601 704 656 669 l 692 610 b 476 839 697 747 613 839 b 140 419 286 839 140 657 b 475 24 140 189 279 24 b 679 101 556 24 632 53 l 743 38 b 472 -69 676 -32 581 -69 b 40 418 219 -69 40 133 b 476 931 40 710 228 931 b 786 588 674 931 797 793 l 765 189 l 664 189 l 668 267 l 663 267 b 506 181 625 213 569 181 m 538 274 b 676 451 615 274 676 353 b 556 610 676 543 626 610 b 415 431 478 610 415 529 b 538 274 415 340 467 274 "},"ã":{"ha":833,"x_min":0,"x_max":0,"o":"m 572 535 b 418 665 572 615 514 665 b 254 558 329 665 263 622 l 140 558 b 418 764 146 678 263 764 b 689 533 581 764 689 672 l 689 268 b 717 0 689 151 697 65 l 606 0 b 581 119 594 31 586 71 l 575 119 b 351 -14 532 35 453 -14 b 113 214 211 -14 113 79 b 426 446 113 351 215 426 l 496 453 b 572 535 549 458 572 483 m 572 396 b 506 372 556 383 533 376 l 439 365 b 229 217 293 347 229 303 b 372 82 229 135 286 82 b 572 292 483 82 572 172 l 572 396 m 169 960 b 314 1122 169 1060 225 1122 b 515 996 442 1122 456 996 b 557 1074 542 996 556 1021 l 558 1103 l 658 1103 l 658 1065 b 514 903 658 965 603 903 b 314 1029 386 903 372 1029 b 271 951 288 1029 272 1004 l 269 922 l 169 922 "},"b":{"ha":833,"x_min":0,"x_max":0,"o":"m 121 1028 l 238 1028 l 238 624 l 243 624 b 463 764 289 714 365 764 b 767 375 639 764 767 600 b 464 -14 767 150 640 -14 b 236 140 361 -14 282 42 l 231 140 l 231 0 l 121 0 m 443 92 b 649 375 565 92 649 207 b 443 658 649 543 565 658 b 235 375 321 658 235 542 b 443 92 235 208 321 92 "},"\\":{"ha":833,"x_min":0,"x_max":0,"o":"m 754 -236 l 638 -236 l 81 1097 l 197 1097 "},"␈":{"ha":833,"x_min":0,"x_max":0,"o":"m 164 1042 l 331 1042 b 468 914 408 1042 468 988 b 411 811 468 869 446 833 l 411 808 b 483 693 456 788 483 746 b 338 556 483 614 421 556 l 164 556 m 331 843 b 390 907 365 843 390 869 b 331 971 390 944 367 971 l 244 971 l 244 843 m 339 626 b 401 699 376 626 401 657 b 339 772 401 742 376 772 l 244 772 l 244 626 m 390 417 l 682 417 l 682 346 l 471 346 l 471 218 l 654 218 l 654 147 l 471 147 l 471 1 l 682 1 l 682 -69 l 390 -69 "},"✗":{"ha":833,"x_min":0,"x_max":0,"o":"m -6 22 b 339 499 83 171 199 329 b -6 875 228 625 114 749 l 76 958 b 413 585 193 833 303 711 b 767 969 518 708 638 838 l 839 897 b 482 503 707 758 588 628 b 839 61 599 365 715 219 l 756 -3 b 410 417 639 144 525 282 b 97 -33 283 260 179 111 "},"|":{"ha":833,"x_min":0,"x_max":0,"o":"m 363 1097 l 471 1097 l 471 -236 l 363 -236 "},"␇":{"ha":833,"x_min":0,"x_max":0,"o":"m 60 1354 l 226 1354 b 364 1226 304 1354 364 1300 b 307 1124 364 1182 342 1146 l 307 1121 b 379 1006 351 1100 379 1058 b 233 868 379 926 317 868 l 60 868 m 226 1156 b 286 1219 261 1156 286 1182 b 226 1283 286 1257 263 1283 l 140 1283 l 140 1156 m 235 939 b 297 1011 272 939 297 969 b 235 1085 297 1054 272 1085 l 140 1085 l 140 939 m 286 729 l 578 729 l 578 658 l 367 658 l 367 531 l 550 531 l 550 460 l 367 460 l 367 314 l 578 314 l 578 243 l 286 243 m 499 104 l 578 104 l 578 -311 l 783 -311 l 783 -382 l 499 -382 "},"β":{"ha":833,"x_min":0,"x_max":0,"o":"m 246 -278 l 129 -278 l 129 750 b 414 1056 129 933 243 1056 b 688 790 575 1056 688 946 b 563 567 688 688 640 607 b 746 292 675 528 746 425 b 460 -14 746 115 624 -14 b 251 90 371 -14 299 24 l 246 90 m 246 288 b 435 92 246 171 326 92 b 629 296 549 92 629 178 b 436 499 629 413 550 499 l 358 499 l 358 604 l 413 604 b 576 783 510 604 576 678 b 418 950 576 885 514 950 b 246 764 314 950 246 875 l 246 288 "},"␢":{"ha":833,"x_min":0,"x_max":0,"o":"m 0 763 l 121 826 l 121 1028 l 238 1028 l 238 889 l 425 989 l 425 893 l 238 793 l 238 624 l 243 624 b 463 764 289 714 365 764 b 767 375 639 764 767 600 b 464 -14 767 150 640 -14 b 236 140 361 -14 282 42 l 231 140 l 231 0 l 121 0 l 121 732 l 0 667 m 443 92 b 649 375 565 92 649 207 b 443 658 649 543 565 658 b 235 375 321 658 235 542 b 443 92 235 208 321 92 "},"█":{"ha":833,"x_min":0,"x_max":0,"o":"m 0 1250 l 833 1250 l 833 -278 l 0 -278 "},"⌨":{"ha":833,"x_min":0,"x_max":0,"o":"m 0 194 l 0 778 l 833 778 l 833 194 m 750 272 l 750 700 l 83 700 l 83 272 m 139 644 l 222 644 l 222 561 l 139 561 m 278 644 l 361 644 l 361 561 l 278 561 m 417 644 l 500 644 l 500 561 l 417 561 m 611 561 l 556 561 l 556 644 l 694 644 l 694 436 l 611 436 m 194 519 l 278 519 l 278 436 l 194 436 m 333 519 l 417 519 l 417 436 l 333 436 m 472 519 l 556 519 l 556 436 l 472 436 m 278 389 l 556 389 l 556 319 l 278 319 "},"{":{"ha":833,"x_min":0,"x_max":0,"o":"m 313 428 b 467 178 410 410 474 306 l 460 19 b 606 -131 454 -76 507 -131 l 704 -131 l 704 -236 l 601 -236 b 342 28 428 -236 333 -139 l 350 182 b 181 375 356 300 290 375 l 108 375 l 108 486 l 181 486 b 350 679 290 486 356 561 l 342 833 b 601 1097 333 1000 428 1097 l 699 1097 l 699 992 l 606 992 b 460 842 507 992 454 938 l 467 683 b 313 433 474 556 408 451 "},"}":{"ha":833,"x_min":0,"x_max":0,"o":"m 521 433 b 367 683 425 451 360 556 l 374 842 b 228 992 379 938 326 992 l 135 992 l 135 1097 l 232 1097 b 492 833 406 1097 500 1000 l 483 679 b 653 486 478 561 543 486 l 725 486 l 725 375 l 653 375 b 483 182 543 375 478 300 l 492 28 b 232 -236 500 -139 406 -236 l 129 -236 l 129 -131 l 228 -131 b 374 19 326 -131 379 -76 l 367 178 b 521 428 360 306 424 410 "},"[":{"ha":833,"x_min":0,"x_max":0,"o":"m 265 1097 l 678 1097 l 678 992 l 382 992 l 382 -131 l 678 -131 l 678 -236 l 265 -236 "},"]":{"ha":833,"x_min":0,"x_max":0,"o":"m 568 -236 l 156 -236 l 156 -131 l 451 -131 l 451 992 l 156 992 l 156 1097 l 568 1097 "},"⟦":{"ha":833,"x_min":0,"x_max":0,"o":"m 153 1097 l 750 1097 l 750 992 l 506 992 l 506 -131 l 750 -131 l 750 -236 l 153 -236 m 389 -131 l 389 992 l 269 992 l 269 -131 "},"⟧":{"ha":833,"x_min":0,"x_max":0,"o":"m 83 -236 l 83 -131 l 328 -131 l 328 992 l 83 992 l 83 1097 l 681 1097 l 681 -236 m 564 992 l 444 992 l 444 -131 l 564 -131 "},"⠀":{"ha":833,"x_min":0,"x_max":0,"o":""},"˘":{"ha":833,"x_min":0,"x_max":0,"o":"m 326 1060 b 417 958 332 999 368 958 b 507 1060 465 958 501 999 l 603 1060 b 417 869 603 949 525 869 b 231 1060 308 869 231 949 l 326 1060 "},"¦":{"ha":833,"x_min":0,"x_max":0,"o":"m 363 325 l 471 325 l 471 -236 l 363 -236 m 363 1097 l 471 1097 l 471 536 l 363 536 "},"⎋":{"ha":833,"x_min":0,"x_max":0,"o":"m 125 486 b 417 194 125 325 256 194 b 708 486 578 194 708 325 b 417 778 708 647 578 778 l 417 861 b 792 486 624 861 792 693 b 417 111 792 279 624 111 b 42 486 210 111 42 279 m 144 700 l 28 583 l 28 875 l 319 875 l 204 760 l 444 519 l 385 460 "},"•":{"ha":833,"x_min":0,"x_max":0,"o":"m 250 431 b 417 597 250 522 325 597 b 583 431 508 597 583 522 b 417 264 583 339 508 264 b 250 431 325 264 250 339 "},"∙":{"ha":833,"x_min":0,"x_max":0,"o":"m 250 431 b 417 597 250 522 325 597 b 583 431 508 597 583 522 b 417 264 583 339 508 264 b 250 431 325 264 250 339 "},"c":{"ha":833,"x_min":0,"x_max":0,"o":"m 729 192 b 450 -14 706 69 589 -14 b 110 376 253 -14 110 153 b 446 764 110 601 251 764 b 719 558 586 764 699 681 l 606 558 b 446 660 585 621 524 660 b 226 378 313 660 226 544 b 451 90 226 207 315 90 b 614 192 531 90 594 129 "},"ć":{"ha":833,"x_min":0,"x_max":0,"o":"m 729 192 b 450 -14 706 69 589 -14 b 110 376 253 -14 110 153 b 446 764 110 601 251 764 b 719 558 586 764 699 681 l 606 558 b 446 660 585 621 524 660 b 226 378 313 660 226 544 b 451 90 226 207 315 90 b 614 192 531 90 594 129 m 469 878 l 368 878 l 476 1135 l 631 1135 "},"␘":{"ha":833,"x_min":0,"x_max":0,"o":"m 385 999 b 226 861 376 918 310 861 b 38 1111 115 861 38 964 b 225 1361 38 1260 115 1361 b 381 1231 306 1361 369 1307 l 301 1231 b 225 1288 292 1265 263 1288 b 118 1111 160 1288 118 1219 b 228 935 118 1004 161 935 b 304 999 267 935 297 960 m 225 243 l 361 729 l 472 729 l 608 243 l 529 243 l 493 374 l 339 374 l 303 243 m 474 444 l 418 647 l 415 647 l 358 444 m 719 104 l 794 104 l 794 -382 l 689 -382 l 533 25 l 531 25 l 531 -382 l 457 -382 l 457 104 l 576 104 l 717 -264 l 719 -264 "},"℅":{"ha":833,"x_min":0,"x_max":0,"o":"m 608 -14 b 407 213 493 -14 407 82 b 608 438 407 343 493 438 b 810 213 725 438 810 343 b 608 -14 810 82 725 -14 m 608 71 b 715 213 672 71 715 129 b 608 353 715 296 672 353 b 501 213 546 353 501 296 b 608 71 501 129 546 71 m 669 972 l 788 972 l 164 0 l 44 0 m 410 694 b 233 567 393 618 321 567 b 25 794 113 567 25 664 b 231 1018 25 925 111 1018 b 403 890 319 1018 390 967 l 306 890 b 229 933 294 918 265 933 b 121 796 163 933 121 879 b 235 651 121 710 165 651 b 310 694 271 651 301 667 "},"ˇ":{"ha":833,"x_min":0,"x_max":0,"o":"m 201 1113 l 303 1113 l 417 969 l 531 1113 l 632 1113 l 478 868 l 356 868 "},"␍":{"ha":833,"x_min":0,"x_max":0,"o":"m 489 686 b 331 549 481 606 414 549 b 142 799 219 549 142 651 b 329 1049 142 947 219 1049 b 485 918 410 1049 474 994 l 406 918 b 329 975 396 953 367 975 b 222 799 264 975 222 907 b 332 622 222 692 265 622 b 408 686 371 622 401 647 m 549 207 b 618 276 590 207 618 235 b 549 346 618 318 590 346 l 451 346 l 451 207 m 372 417 l 546 417 b 694 275 635 417 694 358 b 604 146 694 213 660 165 l 711 -69 l 622 -69 l 519 136 l 451 136 l 451 -69 l 372 -69 "},"č":{"ha":833,"x_min":0,"x_max":0,"o":"m 729 192 b 450 -14 706 69 589 -14 b 110 376 253 -14 110 153 b 446 764 110 601 251 764 b 719 558 586 764 699 681 l 606 558 b 446 660 585 621 524 660 b 226 378 313 660 226 544 b 451 90 226 207 315 90 b 614 192 531 90 594 129 m 229 1113 l 331 1113 l 444 969 l 558 1113 l 660 1113 l 506 868 l 383 868 "},"ç":{"ha":833,"x_min":0,"x_max":0,"o":"m 394 -221 b 472 -282 400 -257 431 -282 b 546 -214 515 -282 546 -254 b 471 -144 546 -172 514 -144 b 419 -161 450 -144 432 -151 l 360 -140 l 383 -7 b 110 376 222 25 110 179 b 446 764 110 601 251 764 b 719 558 586 764 699 681 l 606 558 b 446 660 585 621 524 660 b 226 378 313 660 226 544 b 451 90 226 207 315 90 b 614 192 531 90 594 129 l 729 192 b 483 -12 707 79 607 0 l 472 -74 b 640 -210 567 -61 640 -121 b 469 -362 640 -297 568 -362 b 301 -221 375 -362 304 -303 l 394 -221 "},"ĉ":{"ha":833,"x_min":0,"x_max":0,"o":"m 729 192 b 450 -14 706 69 589 -14 b 110 376 253 -14 110 153 b 446 764 110 601 251 764 b 719 558 586 764 699 681 l 606 558 b 446 660 585 621 524 660 b 226 378 313 660 226 544 b 451 90 226 207 315 90 b 614 192 531 90 594 129 m 383 1113 l 506 1113 l 660 868 l 558 868 l 444 1013 l 331 868 l 229 868 "},"ċ":{"ha":833,"x_min":0,"x_max":0,"o":"m 729 192 b 450 -14 706 69 589 -14 b 110 376 253 -14 110 153 b 446 764 110 601 251 764 b 719 558 586 764 699 681 l 606 558 b 446 660 585 621 524 660 b 226 378 313 660 226 544 b 451 90 226 207 315 90 b 614 192 531 90 594 129 m 342 992 b 444 1093 342 1049 389 1093 b 547 992 501 1093 547 1049 b 444 889 547 935 501 889 b 342 992 389 889 342 935 "},"¸":{"ha":833,"x_min":0,"x_max":0,"o":"m 357 -221 b 435 -282 363 -257 393 -282 b 508 -214 478 -282 508 -254 b 433 -144 508 -172 476 -144 b 382 -161 413 -144 394 -151 l 322 -140 l 354 40 l 454 40 l 435 -74 b 603 -210 529 -61 603 -121 b 432 -362 603 -297 531 -362 b 264 -221 338 -362 267 -303 l 357 -221 "},"¢":{"ha":833,"x_min":0,"x_max":0,"o":"m 386 -8 b 110 376 224 24 110 178 b 386 758 110 578 224 729 l 386 917 l 472 917 l 472 763 b 719 558 600 753 700 672 l 603 558 b 472 657 585 613 535 649 l 472 92 b 611 192 540 99 593 136 l 729 192 b 472 -12 707 76 601 -4 l 472 -167 l 386 -167 m 226 378 b 386 100 226 235 289 131 l 386 651 b 226 378 289 622 226 519 "},"✓":{"ha":833,"x_min":0,"x_max":0,"o":"m -6 526 l 88 578 l 347 133 l 353 133 l 740 988 l 839 943 l 410 0 l 301 0 "},"χ":{"ha":833,"x_min":0,"x_max":0,"o":"m 344 260 l 211 554 b 97 656 179 624 157 656 b 49 646 81 656 64 653 l 49 746 b 115 757 72 754 93 757 b 321 589 222 757 271 696 l 422 363 l 614 750 l 735 750 l 479 236 l 622 -82 b 736 -183 654 -151 676 -183 b 785 -174 753 -183 769 -181 l 785 -274 b 718 -285 761 -282 740 -285 b 513 -117 611 -285 563 -224 l 401 132 l 197 -278 l 78 -278 "},"○":{"ha":833,"x_min":0,"x_max":0,"o":"m 42 486 b 417 861 42 693 210 861 b 792 486 624 861 792 693 b 417 111 792 279 624 111 b 42 486 210 111 42 279 m 125 486 b 417 194 125 325 256 194 b 708 486 578 194 708 325 b 417 778 708 647 578 778 b 125 486 256 778 125 647 "},"ˆ":{"ha":833,"x_min":0,"x_max":0,"o":"m 356 1113 l 478 1113 l 632 868 l 531 868 l 417 1013 l 303 868 l 201 868 "},":":{"ha":833,"x_min":0,"x_max":0,"o":"m 310 96 b 417 203 310 156 358 203 b 524 96 476 203 524 156 b 417 -11 524 36 476 -11 b 310 96 358 -11 310 36 m 310 654 b 417 761 310 714 358 761 b 524 654 476 761 524 714 b 417 547 524 596 476 547 b 310 654 358 547 310 596 "},",":{"ha":833,"x_min":0,"x_max":0,"o":"m 354 168 l 522 168 l 303 -219 l 192 -219 "},"̦":{"ha":833,"x_min":0,"x_max":0,"o":"m 381 -358 l 279 -358 l 386 -101 l 540 -101 "},"≅":{"ha":833,"x_min":0,"x_max":0,"o":"m 78 704 b 272 921 78 835 156 921 b 567 731 447 921 458 731 b 649 851 617 731 646 771 l 650 893 l 756 893 l 756 846 b 561 629 756 715 678 629 b 265 819 386 629 372 819 b 185 699 215 819 188 778 l 183 657 l 78 657 m 106 539 l 728 539 l 728 433 l 106 433 m 106 250 l 728 250 l 728 144 l 106 144 "},"©":{"ha":833,"x_min":0,"x_max":0,"o":"m 417 83 b 14 486 192 83 14 261 b 417 889 14 711 192 889 b 819 486 642 889 819 711 b 417 83 819 261 642 83 m 417 147 b 749 486 606 147 749 292 b 417 825 749 681 606 825 b 85 486 228 825 85 681 b 417 147 85 292 228 147 m 592 400 b 425 263 583 319 514 263 b 231 486 311 263 231 354 b 424 711 231 619 313 711 b 589 579 511 711 578 656 l 513 579 b 424 638 503 614 467 638 b 310 486 357 638 310 579 b 426 335 310 393 357 335 b 515 400 474 335 507 361 "},"¤":{"ha":833,"x_min":0,"x_max":0,"o":"m 183 486 b 219 613 183 533 196 576 l 110 721 l 183 794 l 292 685 b 417 719 328 707 371 719 b 542 685 464 719 506 707 l 651 794 l 725 721 l 615 611 b 650 486 638 575 650 532 b 615 361 650 439 638 397 l 725 251 l 651 178 l 542 288 b 417 253 507 265 464 253 b 292 288 371 253 328 265 l 183 178 l 110 251 l 219 360 b 183 486 196 396 183 439 m 417 347 b 549 486 490 347 549 408 b 417 625 549 564 490 625 b 285 486 343 625 285 564 b 417 347 285 408 343 347 "},"d":{"ha":833,"x_min":0,"x_max":0,"o":"m 611 0 b 600 135 606 46 603 90 l 593 135 b 371 -14 547 40 471 -14 b 67 375 196 -14 67 150 b 371 764 67 599 196 764 b 589 625 467 764 543 714 l 596 625 l 596 1028 l 713 1028 l 713 250 b 722 0 713 179 717 88 l 611 0 m 394 92 b 599 375 515 92 599 208 b 396 658 599 543 515 658 b 185 375 274 658 185 539 b 394 92 185 211 272 92 "},"†":{"ha":833,"x_min":0,"x_max":0,"o":"m 369 746 l 228 746 l 228 831 l 369 831 l 369 972 l 464 972 l 464 831 l 606 831 l 606 746 l 464 746 l 464 389 l 369 389 "},"‡":{"ha":833,"x_min":0,"x_max":0,"o":"m 369 525 l 228 525 l 228 610 l 369 610 l 369 751 l 228 751 l 228 836 l 369 836 l 369 972 l 464 972 l 464 836 l 606 836 l 606 751 l 464 751 l 464 610 l 606 610 l 606 525 l 464 525 l 464 389 l 369 389 "},"␐":{"ha":833,"x_min":0,"x_max":0,"o":"m 53 1354 l 194 1354 b 394 1111 313 1354 394 1256 b 194 868 394 967 313 868 l 53 868 m 194 939 b 313 1111 267 939 313 1006 b 194 1283 313 1217 267 1283 l 132 1283 l 132 939 m 290 729 l 369 729 l 369 314 l 575 314 l 575 243 l 290 243 m 494 104 l 786 104 l 786 33 l 575 33 l 575 -94 l 758 -94 l 758 -165 l 575 -165 l 575 -311 l 786 -311 l 786 -382 l 494 -382 "},"⇟":{"ha":833,"x_min":0,"x_max":0,"o":"m 217 803 l 361 803 l 361 972 l 472 972 l 472 803 l 617 803 l 617 713 l 472 713 l 472 588 l 617 588 l 617 497 l 472 497 l 472 200 l 478 197 l 657 376 l 732 301 l 417 -14 l 101 301 l 176 376 l 356 197 l 361 200 l 361 497 l 217 497 l 217 588 l 361 588 l 361 713 l 217 713 "},"⇞":{"ha":833,"x_min":0,"x_max":0,"o":"m 356 789 l 176 610 l 101 685 l 417 1000 l 732 685 l 657 610 l 478 789 l 472 786 l 472 489 l 617 489 l 617 399 l 472 399 l 472 274 l 617 274 l 617 183 l 472 183 l 472 14 l 361 14 l 361 183 l 217 183 l 217 274 l 361 274 l 361 399 l 217 399 l 217 489 l 361 489 l 361 786 "},"ď":{"ha":833,"x_min":0,"x_max":0,"o":"m 611 0 b 600 135 606 46 603 90 l 593 135 b 371 -14 547 40 471 -14 b 67 375 196 -14 67 150 b 371 764 67 599 196 764 b 589 625 467 764 543 714 l 596 625 l 596 1028 l 713 1028 l 713 250 b 722 0 713 179 717 88 l 611 0 m 751 733 b 929 901 854 735 929 807 b 928 918 929 907 928 913 b 879 900 915 907 897 900 b 797 992 832 900 797 940 b 897 1090 797 1049 842 1090 b 1024 915 972 1090 1024 1017 b 751 649 1024 761 907 647 l 751 733 m 394 92 b 599 375 515 92 599 208 b 396 658 599 543 515 658 b 185 375 274 658 185 539 b 394 92 185 211 272 92 "},"đ":{"ha":833,"x_min":0,"x_max":0,"o":"m 611 0 b 600 135 606 46 603 90 l 593 135 b 371 -14 547 40 471 -14 b 67 375 196 -14 67 150 b 371 764 67 599 196 764 b 589 625 467 764 543 714 l 596 625 l 596 842 l 396 842 l 396 928 l 596 928 l 596 1028 l 713 1028 l 713 928 l 796 928 l 796 842 l 713 842 l 713 250 b 722 0 713 179 717 88 l 611 0 m 394 92 b 599 375 515 92 599 208 b 396 658 599 543 515 658 b 185 375 274 658 185 539 b 394 92 185 211 272 92 "},"°":{"ha":833,"x_min":0,"x_max":0,"o":"m 186 756 b 418 986 186 885 288 986 b 647 756 547 986 647 885 b 418 525 647 626 547 525 b 186 756 288 525 186 626 m 418 619 b 547 756 492 619 547 678 b 418 892 547 833 492 892 b 286 756 343 892 286 833 b 418 619 286 678 343 619 "},"␡":{"ha":833,"x_min":0,"x_max":0,"o":"m 53 1354 l 194 1354 b 394 1111 313 1354 394 1256 b 194 868 394 967 313 868 l 53 868 m 194 939 b 313 1111 267 939 313 1006 b 194 1283 313 1217 267 1283 l 132 1283 l 132 939 m 286 729 l 578 729 l 578 658 l 367 658 l 367 531 l 550 531 l 550 460 l 367 460 l 367 314 l 578 314 l 578 243 l 286 243 m 499 104 l 578 104 l 578 -311 l 783 -311 l 783 -382 l 499 -382 "},"␥":{"ha":833,"x_min":0,"x_max":0,"o":"m 558 972 l 668 972 l 0 192 l 0 319 m 779 972 l 833 972 l 833 907 l 54 0 l 0 0 l 0 65 m 833 781 l 833 653 l 275 0 l 165 0 "},"δ":{"ha":833,"x_min":0,"x_max":0,"o":"m 474 943 b 281 826 356 943 281 897 b 425 703 281 771 326 732 l 485 685 b 744 344 654 635 744 517 b 415 -14 744 133 608 -14 b 88 322 226 -14 88 128 b 282 643 88 468 165 586 b 164 825 204 688 164 750 b 463 1042 164 954 283 1042 b 619 1010 524 1042 575 1031 l 619 913 b 474 943 569 935 526 943 m 386 600 b 201 339 278 575 201 469 b 415 92 201 197 292 92 b 628 344 539 92 628 197 b 440 585 628 469 565 549 l 386 600 "},"␔":{"ha":833,"x_min":0,"x_max":0,"o":"m 53 1354 l 194 1354 b 394 1111 313 1354 394 1256 b 194 868 394 967 313 868 l 53 868 m 194 939 b 313 1111 267 939 313 1006 b 194 1283 313 1217 267 1283 l 132 1283 l 132 939 m 593 374 b 435 236 585 293 518 236 b 246 486 324 236 246 339 b 433 736 246 635 324 736 b 589 606 514 736 578 682 l 510 606 b 433 663 500 640 471 663 b 326 486 368 663 326 594 b 436 310 326 379 369 310 b 513 374 475 310 506 335 m 436 -199 l 614 104 l 725 104 l 725 -204 l 806 -204 l 806 -275 l 725 -275 l 725 -382 l 647 -382 l 647 -275 l 436 -275 m 507 -204 l 646 -204 l 646 33 l 644 33 "},"␑":{"ha":833,"x_min":0,"x_max":0,"o":"m 53 1354 l 194 1354 b 394 1111 313 1354 394 1256 b 194 868 394 967 313 868 l 53 868 m 194 939 b 313 1111 267 939 313 1006 b 194 1283 313 1217 267 1283 l 132 1283 l 132 939 m 593 374 b 435 236 585 293 518 236 b 246 486 324 236 246 339 b 433 736 246 635 324 736 b 589 606 514 736 578 682 l 510 606 b 433 663 500 640 471 663 b 326 486 368 663 326 594 b 436 310 326 379 369 310 b 513 374 475 310 506 335 m 471 -311 l 594 -311 l 594 -58 l 476 -58 l 476 6 b 613 104 572 6 603 29 l 676 104 l 676 -311 l 793 -311 l 793 -382 l 471 -382 "},"␓":{"ha":833,"x_min":0,"x_max":0,"o":"m 53 1354 l 194 1354 b 394 1111 313 1354 394 1256 b 194 868 394 967 313 868 l 53 868 m 194 939 b 313 1111 267 939 313 1006 b 194 1283 313 1217 267 1283 l 132 1283 l 132 939 m 593 374 b 435 236 585 293 518 236 b 246 486 324 236 246 339 b 433 736 246 635 324 736 b 589 606 514 736 578 682 l 510 606 b 433 663 500 640 471 663 b 326 486 368 663 326 594 b 436 310 326 379 369 310 b 513 374 475 310 506 335 m 469 -19 b 619 111 469 57 531 111 b 769 -19 707 111 769 57 b 701 -121 769 -67 744 -101 l 701 -122 b 788 -242 756 -142 788 -183 b 622 -389 788 -326 718 -389 b 461 -251 529 -389 461 -331 l 538 -251 b 625 -318 540 -290 576 -318 b 710 -240 675 -318 710 -287 b 626 -164 710 -194 676 -164 l 581 -164 l 581 -90 l 621 -90 b 694 -25 664 -90 694 -62 b 618 42 694 14 661 42 b 544 -19 578 42 546 17 "},"␒":{"ha":833,"x_min":0,"x_max":0,"o":"m 53 1354 l 194 1354 b 394 1111 313 1354 394 1256 b 194 868 394 967 313 868 l 53 868 m 194 939 b 313 1111 267 939 313 1006 b 194 1283 313 1217 267 1283 l 132 1283 l 132 939 m 593 374 b 435 236 585 293 518 236 b 246 486 324 236 246 339 b 433 736 246 635 324 736 b 589 606 514 736 578 682 l 510 606 b 433 663 500 640 471 663 b 326 486 368 663 326 594 b 436 310 326 379 369 310 b 513 374 475 310 506 335 m 474 -347 b 594 -165 474 -289 506 -239 b 692 -29 664 -107 692 -69 b 618 40 692 13 661 40 b 542 -19 576 40 546 15 l 463 -19 b 618 111 464 54 528 111 b 771 -26 708 111 771 54 b 649 -215 771 -87 736 -142 b 565 -311 603 -254 576 -283 l 788 -311 l 788 -382 l 474 -382 "},"¨":{"ha":833,"x_min":0,"x_max":0,"o":"m 178 993 b 272 1088 178 1046 219 1088 b 367 993 326 1088 367 1046 b 272 897 367 940 326 897 b 178 993 219 897 178 940 m 467 993 b 561 1088 467 1046 508 1088 b 656 993 615 1088 656 1046 b 561 897 656 940 615 897 b 467 993 508 897 467 940 "},"΅":{"ha":833,"x_min":0,"x_max":0,"o":"m 122 992 b 225 1093 122 1049 169 1093 b 328 992 282 1093 328 1049 b 225 889 328 935 282 889 b 122 992 169 889 122 935 m 506 992 b 608 1093 506 1049 553 1093 b 711 992 665 1093 711 1049 b 608 889 711 935 665 889 b 506 992 553 889 506 935 m 451 963 l 358 963 l 406 1243 l 543 1243 "},"÷":{"ha":833,"x_min":0,"x_max":0,"o":"m 106 483 l 728 483 l 728 378 l 106 378 m 310 674 b 417 781 310 732 358 781 b 524 674 476 781 524 732 b 417 567 524 614 476 567 b 310 674 358 567 310 614 m 310 190 b 417 297 310 249 358 297 b 524 190 476 297 524 249 b 417 83 524 131 476 83 b 310 190 358 83 310 131 "},"∕":{"ha":833,"x_min":0,"x_max":0,"o":"m 579 972 l 696 972 l 290 0 l 172 0 "},"▓":{"ha":833,"x_min":0,"x_max":0,"o":"m 500 1021 l 500 1097 l 417 1097 l 417 1021 m 667 1021 l 667 1097 l 583 1097 l 583 1021 m 333 1021 l 333 1097 l 250 1097 l 250 1021 m 167 1021 l 167 1097 l 83 1097 l 83 1021 m 250 868 l 250 944 l 167 944 l 167 868 m 417 868 l 417 944 l 333 944 l 333 868 m 583 868 l 583 944 l 500 944 l 500 868 m 750 868 l 750 944 l 667 944 l 667 868 m 167 715 l 167 792 l 83 792 l 83 715 m 333 715 l 333 792 l 250 792 l 250 715 m 500 715 l 500 792 l 417 792 l 417 715 m 667 715 l 667 792 l 583 792 l 583 715 m 750 563 l 750 639 l 667 639 l 667 563 m 250 563 l 250 639 l 167 639 l 167 563 m 417 563 l 417 639 l 333 639 l 333 563 m 583 563 l 583 639 l 500 639 l 500 563 m 333 410 l 333 486 l 250 486 l 250 410 m 667 410 l 667 486 l 583 486 l 583 410 m 167 410 l 167 486 l 83 486 l 83 410 m 500 410 l 500 486 l 417 486 l 417 410 m 250 257 l 250 333 l 167 333 l 167 257 m 417 257 l 417 333 l 333 333 l 333 257 m 583 257 l 583 333 l 500 333 l 500 257 m 750 257 l 750 333 l 667 333 l 667 257 m 167 104 l 167 181 l 83 181 l 83 104 m 333 104 l 333 181 l 250 181 l 250 104 m 500 104 l 500 181 l 417 181 l 417 104 m 667 104 l 667 181 l 583 181 l 583 104 m 83 1174 l 83 1250 l 167 1250 l 167 1174 l 250 1174 l 250 1250 l 333 1250 l 333 1174 l 417 1174 l 417 1250 l 500 1250 l 500 1174 l 583 1174 l 583 1250 l 667 1250 l 667 1174 l 750 1174 l 750 1250 l 833 1250 l 833 1097 l 750 1097 l 750 1021 l 833 1021 l 833 792 l 750 792 l 750 715 l 833 715 l 833 486 l 750 486 l 750 410 l 833 410 l 833 181 l 750 181 l 750 104 l 833 104 l 833 -125 l 750 -125 l 750 -201 l 833 -201 l 833 -278 l 0 -278 l 0 -49 l 83 -49 l 83 28 l 0 28 l 0 257 l 83 257 l 83 333 l 0 333 l 0 563 l 83 563 l 83 639 l 0 639 l 0 868 l 83 868 l 83 944 l 0 944 l 0 1174 m 250 -49 l 250 28 l 167 28 l 167 -49 m 417 -49 l 417 28 l 333 28 l 333 -49 m 583 -49 l 583 28 l 500 28 l 500 -49 m 750 -49 l 750 28 l 667 28 l 667 -49 m 167 -201 l 167 -125 l 83 -125 l 83 -201 m 333 -201 l 333 -125 l 250 -125 l 250 -201 m 500 -201 l 500 -125 l 417 -125 l 417 -201 m 667 -201 l 667 -125 l 583 -125 l 583 -201 "},"$":{"ha":833,"x_min":0,"x_max":0,"o":"m 199 244 b 381 83 207 160 279 96 l 381 449 b 119 713 208 485 119 574 b 381 985 119 864 225 969 l 381 1153 l 469 1153 l 469 983 b 729 742 614 964 721 867 l 622 742 b 469 882 613 813 551 867 l 469 540 b 740 267 649 500 740 408 b 469 -17 740 113 632 1 l 469 -181 l 381 -181 l 381 -18 b 93 244 217 -3 97 104 m 631 263 b 469 431 631 346 576 401 l 469 86 b 631 263 567 103 631 171 m 231 719 b 381 560 231 638 281 585 l 381 885 b 231 719 289 871 231 807 "},"˙":{"ha":833,"x_min":0,"x_max":0,"o":"m 314 992 b 417 1093 314 1049 361 1093 b 519 992 474 1093 519 1049 b 417 889 519 935 474 889 b 314 992 361 889 314 935 "},"ı":{"ha":833,"x_min":0,"x_max":0,"o":"m 150 104 l 375 104 l 375 646 l 157 646 l 157 750 l 492 750 l 492 104 l 717 104 l 717 0 l 150 0 "},"ȷ":{"ha":833,"x_min":0,"x_max":0,"o":"m 564 -26 b 318 -292 564 -200 479 -292 b 174 -260 263 -292 213 -281 l 174 -162 b 299 -193 215 -183 257 -193 b 447 -26 399 -193 447 -139 l 447 646 l 181 646 l 181 750 l 564 750 l 564 -26 "},"⠁":{"ha":833,"x_min":0,"x_max":0,"o":"m 363 792 b 264 693 363 736 319 693 b 165 792 208 693 165 736 b 264 890 165 847 208 890 b 363 792 319 890 363 847 "},"⠃":{"ha":833,"x_min":0,"x_max":0,"o":"m 363 792 b 264 693 363 736 319 693 b 165 792 208 693 165 736 b 264 890 165 847 208 890 b 363 792 319 890 363 847 m 363 486 b 264 388 363 431 319 388 b 165 486 208 388 165 431 b 264 585 165 542 208 585 b 363 486 319 585 363 542 "},"⠇":{"ha":833,"x_min":0,"x_max":0,"o":"m 363 792 b 264 693 363 736 319 693 b 165 792 208 693 165 736 b 264 890 165 847 208 890 b 363 792 319 890 363 847 m 363 486 b 264 388 363 431 319 388 b 165 486 208 388 165 431 b 264 585 165 542 208 585 b 363 486 319 585 363 542 m 363 181 b 264 82 363 125 319 82 b 165 181 208 82 165 125 b 264 279 165 236 208 279 b 363 181 319 279 363 236 "},"⠏":{"ha":833,"x_min":0,"x_max":0,"o":"m 363 792 b 264 693 363 736 319 693 b 165 792 208 693 165 736 b 264 890 165 847 208 890 b 363 792 319 890 363 847 m 363 486 b 264 388 363 431 319 388 b 165 486 208 388 165 431 b 264 585 165 542 208 585 b 363 486 319 585 363 542 m 363 181 b 264 82 363 125 319 82 b 165 181 208 82 165 125 b 264 279 165 236 208 279 b 363 181 319 279 363 236 m 668 792 b 569 693 668 736 625 693 b 471 792 514 693 471 736 b 569 890 471 847 514 890 b 668 792 625 890 668 847 "},"⠟":{"ha":833,"x_min":0,"x_max":0,"o":"m 363 792 b 264 693 363 736 319 693 b 165 792 208 693 165 736 b 264 890 165 847 208 890 b 363 792 319 890 363 847 m 363 486 b 264 388 363 431 319 388 b 165 486 208 388 165 431 b 264 585 165 542 208 585 b 363 486 319 585 363 542 m 363 181 b 264 82 363 125 319 82 b 165 181 208 82 165 125 b 264 279 165 236 208 279 b 363 181 319 279 363 236 m 668 792 b 569 693 668 736 625 693 b 471 792 514 693 471 736 b 569 890 471 847 514 890 b 668 792 625 890 668 847 m 668 486 b 569 388 668 431 625 388 b 471 486 514 388 471 431 b 569 585 471 542 514 585 b 668 486 625 585 668 542 "},"⠿":{"ha":833,"x_min":0,"x_max":0,"o":"m 363 792 b 264 693 363 736 319 693 b 165 792 208 693 165 736 b 264 890 165 847 208 890 b 363 792 319 890 363 847 m 363 486 b 264 388 363 431 319 388 b 165 486 208 388 165 431 b 264 585 165 542 208 585 b 363 486 319 585 363 542 m 363 181 b 264 82 363 125 319 82 b 165 181 208 82 165 125 b 264 279 165 236 208 279 b 363 181 319 279 363 236 m 668 792 b 569 693 668 736 625 693 b 471 792 514 693 471 736 b 569 890 471 847 514 890 b 668 792 625 890 668 847 m 668 486 b 569 388 668 431 625 388 b 471 486 514 388 471 431 b 569 585 471 542 514 585 b 668 486 625 585 668 542 m 668 181 b 569 82 668 125 625 82 b 471 181 514 82 471 125 b 569 279 471 236 514 279 b 668 181 625 279 668 236 "},"⡿":{"ha":833,"x_min":0,"x_max":0,"o":"m 363 792 b 264 693 363 736 319 693 b 165 792 208 693 165 736 b 264 890 165 847 208 890 b 363 792 319 890 363 847 m 363 486 b 264 388 363 431 319 388 b 165 486 208 388 165 431 b 264 585 165 542 208 585 b 363 486 319 585 363 542 m 363 181 b 264 82 363 125 319 82 b 165 181 208 82 165 125 b 264 279 165 236 208 279 b 363 181 319 279 363 236 m 668 792 b 569 693 668 736 625 693 b 471 792 514 693 471 736 b 569 890 471 847 514 890 b 668 792 625 890 668 847 m 668 486 b 569 388 668 431 625 388 b 471 486 514 388 471 431 b 569 585 471 542 514 585 b 668 486 625 585 668 542 m 668 181 b 569 82 668 125 625 82 b 471 181 514 82 471 125 b 569 279 471 236 514 279 b 668 181 625 279 668 236 m 363 -125 b 264 -224 363 -181 319 -224 b 165 -125 208 -224 165 -181 b 264 -26 165 -69 208 -26 b 363 -125 319 -26 363 -69 "},"⣿":{"ha":833,"x_min":0,"x_max":0,"o":"m 363 792 b 264 693 363 736 319 693 b 165 792 208 693 165 736 b 264 890 165 847 208 890 b 363 792 319 890 363 847 m 363 486 b 264 388 363 431 319 388 b 165 486 208 388 165 431 b 264 585 165 542 208 585 b 363 486 319 585 363 542 m 363 181 b 264 82 363 125 319 82 b 165 181 208 82 165 125 b 264 279 165 236 208 279 b 363 181 319 279 363 236 m 668 792 b 569 693 668 736 625 693 b 471 792 514 693 471 736 b 569 890 471 847 514 890 b 668 792 625 890 668 847 m 668 486 b 569 388 668 431 625 388 b 471 486 514 388 471 431 b 569 585 471 542 514 585 b 668 486 625 585 668 542 m 668 181 b 569 82 668 125 625 82 b 471 181 514 82 471 125 b 569 279 471 236 514 279 b 668 181 625 279 668 236 m 363 -125 b 264 -224 363 -181 319 -224 b 165 -125 208 -224 165 -181 b 264 -26 165 -69 208 -26 b 363 -125 319 -26 363 -69 m 668 -125 b 569 -224 668 -181 625 -224 b 471 -125 514 -224 471 -181 b 569 -26 471 -69 514 -26 b 668 -125 625 -26 668 -69 "},"⢿":{"ha":833,"x_min":0,"x_max":0,"o":"m 363 792 b 264 693 363 736 319 693 b 165 792 208 693 165 736 b 264 890 165 847 208 890 b 363 792 319 890 363 847 m 363 486 b 264 388 363 431 319 388 b 165 486 208 388 165 431 b 264 585 165 542 208 585 b 363 486 319 585 363 542 m 363 181 b 264 82 363 125 319 82 b 165 181 208 82 165 125 b 264 279 165 236 208 279 b 363 181 319 279 363 236 m 668 792 b 569 693 668 736 625 693 b 471 792 514 693 471 736 b 569 890 471 847 514 890 b 668 792 625 890 668 847 m 668 486 b 569 388 668 431 625 388 b 471 486 514 388 471 431 b 569 585 471 542 514 585 b 668 486 625 585 668 542 m 668 181 b 569 82 668 125 625 82 b 471 181 514 82 471 125 b 569 279 471 236 514 279 b 668 181 625 279 668 236 m 668 -125 b 569 -224 668 -181 625 -224 b 471 -125 514 -224 471 -181 b 569 -26 471 -69 514 -26 b 668 -125 625 -26 668 -69 "},"⡟":{"ha":833,"x_min":0,"x_max":0,"o":"m 363 792 b 264 693 363 736 319 693 b 165 792 208 693 165 736 b 264 890 165 847 208 890 b 363 792 319 890 363 847 m 363 486 b 264 388 363 431 319 388 b 165 486 208 388 165 431 b 264 585 165 542 208 585 b 363 486 319 585 363 542 m 363 181 b 264 82 363 125 319 82 b 165 181 208 82 165 125 b 264 279 165 236 208 279 b 363 181 319 279 363 236 m 668 792 b 569 693 668 736 625 693 b 471 792 514 693 471 736 b 569 890 471 847 514 890 b 668 792 625 890 668 847 m 668 486 b 569 388 668 431 625 388 b 471 486 514 388 471 431 b 569 585 471 542 514 585 b 668 486 625 585 668 542 m 363 -125 b 264 -224 363 -181 319 -224 b 165 -125 208 -224 165 -181 b 264 -26 165 -69 208 -26 b 363 -125 319 -26 363 -69 "},"⣟":{"ha":833,"x_min":0,"x_max":0,"o":"m 363 792 b 264 693 363 736 319 693 b 165 792 208 693 165 736 b 264 890 165 847 208 890 b 363 792 319 890 363 847 m 363 486 b 264 388 363 431 319 388 b 165 486 208 388 165 431 b 264 585 165 542 208 585 b 363 486 319 585 363 542 m 363 181 b 264 82 363 125 319 82 b 165 181 208 82 165 125 b 264 279 165 236 208 279 b 363 181 319 279 363 236 m 668 792 b 569 693 668 736 625 693 b 471 792 514 693 471 736 b 569 890 471 847 514 890 b 668 792 625 890 668 847 m 668 486 b 569 388 668 431 625 388 b 471 486 514 388 471 431 b 569 585 471 542 514 585 b 668 486 625 585 668 542 m 363 -125 b 264 -224 363 -181 319 -224 b 165 -125 208 -224 165 -181 b 264 -26 165 -69 208 -26 b 363 -125 319 -26 363 -69 m 668 -125 b 569 -224 668 -181 625 -224 b 471 -125 514 -224 471 -181 b 569 -26 471 -69 514 -26 b 668 -125 625 -26 668 -69 "},"⢟":{"ha":833,"x_min":0,"x_max":0,"o":"m 363 792 b 264 693 363 736 319 693 b 165 792 208 693 165 736 b 264 890 165 847 208 890 b 363 792 319 890 363 847 m 363 486 b 264 388 363 431 319 388 b 165 486 208 388 165 431 b 264 585 165 542 208 585 b 363 486 319 585 363 542 m 363 181 b 264 82 363 125 319 82 b 165 181 208 82 165 125 b 264 279 165 236 208 279 b 363 181 319 279 363 236 m 668 792 b 569 693 668 736 625 693 b 471 792 514 693 471 736 b 569 890 471 847 514 890 b 668 792 625 890 668 847 m 668 486 b 569 388 668 431 625 388 b 471 486 514 388 471 431 b 569 585 471 542 514 585 b 668 486 625 585 668 542 m 668 -125 b 569 -224 668 -181 625 -224 b 471 -125 514 -224 471 -181 b 569 -26 471 -69 514 -26 b 668 -125 625 -26 668 -69 "},"⠯":{"ha":833,"x_min":0,"x_max":0,"o":"m 363 792 b 264 693 363 736 319 693 b 165 792 208 693 165 736 b 264 890 165 847 208 890 b 363 792 319 890 363 847 m 363 486 b 264 388 363 431 319 388 b 165 486 208 388 165 431 b 264 585 165 542 208 585 b 363 486 319 585 363 542 m 363 181 b 264 82 363 125 319 82 b 165 181 208 82 165 125 b 264 279 165 236 208 279 b 363 181 319 279 363 236 m 668 792 b 569 693 668 736 625 693 b 471 792 514 693 471 736 b 569 890 471 847 514 890 b 668 792 625 890 668 847 m 668 181 b 569 82 668 125 625 82 b 471 181 514 82 471 125 b 569 279 471 236 514 279 b 668 181 625 279 668 236 "},"⡯":{"ha":833,"x_min":0,"x_max":0,"o":"m 363 792 b 264 693 363 736 319 693 b 165 792 208 693 165 736 b 264 890 165 847 208 890 b 363 792 319 890 363 847 m 363 486 b 264 388 363 431 319 388 b 165 486 208 388 165 431 b 264 585 165 542 208 585 b 363 486 319 585 363 542 m 363 181 b 264 82 363 125 319 82 b 165 181 208 82 165 125 b 264 279 165 236 208 279 b 363 181 319 279 363 236 m 668 792 b 569 693 668 736 625 693 b 471 792 514 693 471 736 b 569 890 471 847 514 890 b 668 792 625 890 668 847 m 668 181 b 569 82 668 125 625 82 b 471 181 514 82 471 125 b 569 279 471 236 514 279 b 668 181 625 279 668 236 m 363 -125 b 264 -224 363 -181 319 -224 b 165 -125 208 -224 165 -181 b 264 -26 165 -69 208 -26 b 363 -125 319 -26 363 -69 "},"⣯":{"ha":833,"x_min":0,"x_max":0,"o":"m 363 792 b 264 693 363 736 319 693 b 165 792 208 693 165 736 b 264 890 165 847 208 890 b 363 792 319 890 363 847 m 363 486 b 264 388 363 431 319 388 b 165 486 208 388 165 431 b 264 585 165 542 208 585 b 363 486 319 585 363 542 m 363 181 b 264 82 363 125 319 82 b 165 181 208 82 165 125 b 264 279 165 236 208 279 b 363 181 319 279 363 236 m 668 792 b 569 693 668 736 625 693 b 471 792 514 693 471 736 b 569 890 471 847 514 890 b 668 792 625 890 668 847 m 668 181 b 569 82 668 125 625 82 b 471 181 514 82 471 125 b 569 279 471 236 514 279 b 668 181 625 279 668 236 m 363 -125 b 264 -224 363 -181 319 -224 b 165 -125 208 -224 165 -181 b 264 -26 165 -69 208 -26 b 363 -125 319 -26 363 -69 m 668 -125 b 569 -224 668 -181 625 -224 b 471 -125 514 -224 471 -181 b 569 -26 471 -69 514 -26 b 668 -125 625 -26 668 -69 "},"⢯":{"ha":833,"x_min":0,"x_max":0,"o":"m 363 792 b 264 693 363 736 319 693 b 165 792 208 693 165 736 b 264 890 165 847 208 890 b 363 792 319 890 363 847 m 363 486 b 264 388 363 431 319 388 b 165 486 208 388 165 431 b 264 585 165 542 208 585 b 363 486 319 585 363 542 m 363 181 b 264 82 363 125 319 82 b 165 181 208 82 165 125 b 264 279 165 236 208 279 b 363 181 319 279 363 236 m 668 792 b 569 693 668 736 625 693 b 471 792 514 693 471 736 b 569 890 471 847 514 890 b 668 792 625 890 668 847 m 668 181 b 569 82 668 125 625 82 b 471 181 514 82 471 125 b 569 279 471 236 514 279 b 668 181 625 279 668 236 m 668 -125 b 569 -224 668 -181 625 -224 b 471 -125 514 -224 471 -181 b 569 -26 471 -69 514 -26 b 668 -125 625 -26 668 -69 "},"⡏":{"ha":833,"x_min":0,"x_max":0,"o":"m 363 792 b 264 693 363 736 319 693 b 165 792 208 693 165 736 b 264 890 165 847 208 890 b 363 792 319 890 363 847 m 363 486 b 264 388 363 431 319 388 b 165 486 208 388 165 431 b 264 585 165 542 208 585 b 363 486 319 585 363 542 m 363 181 b 264 82 363 125 319 82 b 165 181 208 82 165 125 b 264 279 165 236 208 279 b 363 181 319 279 363 236 m 668 792 b 569 693 668 736 625 693 b 471 792 514 693 471 736 b 569 890 471 847 514 890 b 668 792 625 890 668 847 m 363 -125 b 264 -224 363 -181 319 -224 b 165 -125 208 -224 165 -181 b 264 -26 165 -69 208 -26 b 363 -125 319 -26 363 -69 "},"⣏":{"ha":833,"x_min":0,"x_max":0,"o":"m 363 792 b 264 693 363 736 319 693 b 165 792 208 693 165 736 b 264 890 165 847 208 890 b 363 792 319 890 363 847 m 363 486 b 264 388 363 431 319 388 b 165 486 208 388 165 431 b 264 585 165 542 208 585 b 363 486 319 585 363 542 m 363 181 b 264 82 363 125 319 82 b 165 181 208 82 165 125 b 264 279 165 236 208 279 b 363 181 319 279 363 236 m 668 792 b 569 693 668 736 625 693 b 471 792 514 693 471 736 b 569 890 471 847 514 890 b 668 792 625 890 668 847 m 363 -125 b 264 -224 363 -181 319 -224 b 165 -125 208 -224 165 -181 b 264 -26 165 -69 208 -26 b 363 -125 319 -26 363 -69 m 668 -125 b 569 -224 668 -181 625 -224 b 471 -125 514 -224 471 -181 b 569 -26 471 -69 514 -26 b 668 -125 625 -26 668 -69 "},"⢏":{"ha":833,"x_min":0,"x_max":0,"o":"m 363 792 b 264 693 363 736 319 693 b 165 792 208 693 165 736 b 264 890 165 847 208 890 b 363 792 319 890 363 847 m 363 486 b 264 388 363 431 319 388 b 165 486 208 388 165 431 b 264 585 165 542 208 585 b 363 486 319 585 363 542 m 363 181 b 264 82 363 125 319 82 b 165 181 208 82 165 125 b 264 279 165 236 208 279 b 363 181 319 279 363 236 m 668 792 b 569 693 668 736 625 693 b 471 792 514 693 471 736 b 569 890 471 847 514 890 b 668 792 625 890 668 847 m 668 -125 b 569 -224 668 -181 625 -224 b 471 -125 514 -224 471 -181 b 569 -26 471 -69 514 -26 b 668 -125 625 -26 668 -69 "},"⠗":{"ha":833,"x_min":0,"x_max":0,"o":"m 363 792 b 264 693 363 736 319 693 b 165 792 208 693 165 736 b 264 890 165 847 208 890 b 363 792 319 890 363 847 m 363 486 b 264 388 363 431 319 388 b 165 486 208 388 165 431 b 264 585 165 542 208 585 b 363 486 319 585 363 542 m 363 181 b 264 82 363 125 319 82 b 165 181 208 82 165 125 b 264 279 165 236 208 279 b 363 181 319 279 363 236 m 668 486 b 569 388 668 431 625 388 b 471 486 514 388 471 431 b 569 585 471 542 514 585 b 668 486 625 585 668 542 "},"⠷":{"ha":833,"x_min":0,"x_max":0,"o":"m 363 792 b 264 693 363 736 319 693 b 165 792 208 693 165 736 b 264 890 165 847 208 890 b 363 792 319 890 363 847 m 363 486 b 264 388 363 431 319 388 b 165 486 208 388 165 431 b 264 585 165 542 208 585 b 363 486 319 585 363 542 m 363 181 b 264 82 363 125 319 82 b 165 181 208 82 165 125 b 264 279 165 236 208 279 b 363 181 319 279 363 236 m 668 486 b 569 388 668 431 625 388 b 471 486 514 388 471 431 b 569 585 471 542 514 585 b 668 486 625 585 668 542 m 668 181 b 569 82 668 125 625 82 b 471 181 514 82 471 125 b 569 279 471 236 514 279 b 668 181 625 279 668 236 "},"⡷":{"ha":833,"x_min":0,"x_max":0,"o":"m 363 792 b 264 693 363 736 319 693 b 165 792 208 693 165 736 b 264 890 165 847 208 890 b 363 792 319 890 363 847 m 363 486 b 264 388 363 431 319 388 b 165 486 208 388 165 431 b 264 585 165 542 208 585 b 363 486 319 585 363 542 m 363 181 b 264 82 363 125 319 82 b 165 181 208 82 165 125 b 264 279 165 236 208 279 b 363 181 319 279 363 236 m 668 486 b 569 388 668 431 625 388 b 471 486 514 388 471 431 b 569 585 471 542 514 585 b 668 486 625 585 668 542 m 668 181 b 569 82 668 125 625 82 b 471 181 514 82 471 125 b 569 279 471 236 514 279 b 668 181 625 279 668 236 m 363 -125 b 264 -224 363 -181 319 -224 b 165 -125 208 -224 165 -181 b 264 -26 165 -69 208 -26 b 363 -125 319 -26 363 -69 "},"⣷":{"ha":833,"x_min":0,"x_max":0,"o":"m 363 792 b 264 693 363 736 319 693 b 165 792 208 693 165 736 b 264 890 165 847 208 890 b 363 792 319 890 363 847 m 363 486 b 264 388 363 431 319 388 b 165 486 208 388 165 431 b 264 585 165 542 208 585 b 363 486 319 585 363 542 m 363 181 b 264 82 363 125 319 82 b 165 181 208 82 165 125 b 264 279 165 236 208 279 b 363 181 319 279 363 236 m 668 486 b 569 388 668 431 625 388 b 471 486 514 388 471 431 b 569 585 471 542 514 585 b 668 486 625 585 668 542 m 668 181 b 569 82 668 125 625 82 b 471 181 514 82 471 125 b 569 279 471 236 514 279 b 668 181 625 279 668 236 m 363 -125 b 264 -224 363 -181 319 -224 b 165 -125 208 -224 165 -181 b 264 -26 165 -69 208 -26 b 363 -125 319 -26 363 -69 m 668 -125 b 569 -224 668 -181 625 -224 b 471 -125 514 -224 471 -181 b 569 -26 471 -69 514 -26 b 668 -125 625 -26 668 -69 "},"⢷":{"ha":833,"x_min":0,"x_max":0,"o":"m 363 792 b 264 693 363 736 319 693 b 165 792 208 693 165 736 b 264 890 165 847 208 890 b 363 792 319 890 363 847 m 363 486 b 264 388 363 431 319 388 b 165 486 208 388 165 431 b 264 585 165 542 208 585 b 363 486 319 585 363 542 m 363 181 b 264 82 363 125 319 82 b 165 181 208 82 165 125 b 264 279 165 236 208 279 b 363 181 319 279 363 236 m 668 486 b 569 388 668 431 625 388 b 471 486 514 388 471 431 b 569 585 471 542 514 585 b 668 486 625 585 668 542 m 668 181 b 569 82 668 125 625 82 b 471 181 514 82 471 125 b 569 279 471 236 514 279 b 668 181 625 279 668 236 m 668 -125 b 569 -224 668 -181 625 -224 b 471 -125 514 -224 471 -181 b 569 -26 471 -69 514 -26 b 668 -125 625 -26 668 -69 "},"⡗":{"ha":833,"x_min":0,"x_max":0,"o":"m 363 792 b 264 693 363 736 319 693 b 165 792 208 693 165 736 b 264 890 165 847 208 890 b 363 792 319 890 363 847 m 363 486 b 264 388 363 431 319 388 b 165 486 208 388 165 431 b 264 585 165 542 208 585 b 363 486 319 585 363 542 m 363 181 b 264 82 363 125 319 82 b 165 181 208 82 165 125 b 264 279 165 236 208 279 b 363 181 319 279 363 236 m 668 486 b 569 388 668 431 625 388 b 471 486 514 388 471 431 b 569 585 471 542 514 585 b 668 486 625 585 668 542 m 363 -125 b 264 -224 363 -181 319 -224 b 165 -125 208 -224 165 -181 b 264 -26 165 -69 208 -26 b 363 -125 319 -26 363 -69 "},"⣗":{"ha":833,"x_min":0,"x_max":0,"o":"m 363 792 b 264 693 363 736 319 693 b 165 792 208 693 165 736 b 264 890 165 847 208 890 b 363 792 319 890 363 847 m 363 486 b 264 388 363 431 319 388 b 165 486 208 388 165 431 b 264 585 165 542 208 585 b 363 486 319 585 363 542 m 363 181 b 264 82 363 125 319 82 b 165 181 208 82 165 125 b 264 279 165 236 208 279 b 363 181 319 279 363 236 m 668 486 b 569 388 668 431 625 388 b 471 486 514 388 471 431 b 569 585 471 542 514 585 b 668 486 625 585 668 542 m 363 -125 b 264 -224 363 -181 319 -224 b 165 -125 208 -224 165 -181 b 264 -26 165 -69 208 -26 b 363 -125 319 -26 363 -69 m 668 -125 b 569 -224 668 -181 625 -224 b 471 -125 514 -224 471 -181 b 569 -26 471 -69 514 -26 b 668 -125 625 -26 668 -69 "},"⢗":{"ha":833,"x_min":0,"x_max":0,"o":"m 363 792 b 264 693 363 736 319 693 b 165 792 208 693 165 736 b 264 890 165 847 208 890 b 363 792 319 890 363 847 m 363 486 b 264 388 363 431 319 388 b 165 486 208 388 165 431 b 264 585 165 542 208 585 b 363 486 319 585 363 542 m 363 181 b 264 82 363 125 319 82 b 165 181 208 82 165 125 b 264 279 165 236 208 279 b 363 181 319 279 363 236 m 668 486 b 569 388 668 431 625 388 b 471 486 514 388 471 431 b 569 585 471 542 514 585 b 668 486 625 585 668 542 m 668 -125 b 569 -224 668 -181 625 -224 b 471 -125 514 -224 471 -181 b 569 -26 471 -69 514 -26 b 668 -125 625 -26 668 -69 "},"⠧":{"ha":833,"x_min":0,"x_max":0,"o":"m 363 792 b 264 693 363 736 319 693 b 165 792 208 693 165 736 b 264 890 165 847 208 890 b 363 792 319 890 363 847 m 363 486 b 264 388 363 431 319 388 b 165 486 208 388 165 431 b 264 585 165 542 208 585 b 363 486 319 585 363 542 m 363 181 b 264 82 363 125 319 82 b 165 181 208 82 165 125 b 264 279 165 236 208 279 b 363 181 319 279 363 236 m 668 181 b 569 82 668 125 625 82 b 471 181 514 82 471 125 b 569 279 471 236 514 279 b 668 181 625 279 668 236 "},"⡧":{"ha":833,"x_min":0,"x_max":0,"o":"m 363 792 b 264 693 363 736 319 693 b 165 792 208 693 165 736 b 264 890 165 847 208 890 b 363 792 319 890 363 847 m 363 486 b 264 388 363 431 319 388 b 165 486 208 388 165 431 b 264 585 165 542 208 585 b 363 486 319 585 363 542 m 363 181 b 264 82 363 125 319 82 b 165 181 208 82 165 125 b 264 279 165 236 208 279 b 363 181 319 279 363 236 m 668 181 b 569 82 668 125 625 82 b 471 181 514 82 471 125 b 569 279 471 236 514 279 b 668 181 625 279 668 236 m 363 -125 b 264 -224 363 -181 319 -224 b 165 -125 208 -224 165 -181 b 264 -26 165 -69 208 -26 b 363 -125 319 -26 363 -69 "},"⣧":{"ha":833,"x_min":0,"x_max":0,"o":"m 363 792 b 264 693 363 736 319 693 b 165 792 208 693 165 736 b 264 890 165 847 208 890 b 363 792 319 890 363 847 m 363 486 b 264 388 363 431 319 388 b 165 486 208 388 165 431 b 264 585 165 542 208 585 b 363 486 319 585 363 542 m 363 181 b 264 82 363 125 319 82 b 165 181 208 82 165 125 b 264 279 165 236 208 279 b 363 181 319 279 363 236 m 668 181 b 569 82 668 125 625 82 b 471 181 514 82 471 125 b 569 279 471 236 514 279 b 668 181 625 279 668 236 m 363 -125 b 264 -224 363 -181 319 -224 b 165 -125 208 -224 165 -181 b 264 -26 165 -69 208 -26 b 363 -125 319 -26 363 -69 m 668 -125 b 569 -224 668 -181 625 -224 b 471 -125 514 -224 471 -181 b 569 -26 471 -69 514 -26 b 668 -125 625 -26 668 -69 "},"⢧":{"ha":833,"x_min":0,"x_max":0,"o":"m 363 792 b 264 693 363 736 319 693 b 165 792 208 693 165 736 b 264 890 165 847 208 890 b 363 792 319 890 363 847 m 363 486 b 264 388 363 431 319 388 b 165 486 208 388 165 431 b 264 585 165 542 208 585 b 363 486 319 585 363 542 m 363 181 b 264 82 363 125 319 82 b 165 181 208 82 165 125 b 264 279 165 236 208 279 b 363 181 319 279 363 236 m 668 181 b 569 82 668 125 625 82 b 471 181 514 82 471 125 b 569 279 471 236 514 279 b 668 181 625 279 668 236 m 668 -125 b 569 -224 668 -181 625 -224 b 471 -125 514 -224 471 -181 b 569 -26 471 -69 514 -26 b 668 -125 625 -26 668 -69 "},"⡇":{"ha":833,"x_min":0,"x_max":0,"o":"m 363 792 b 264 693 363 736 319 693 b 165 792 208 693 165 736 b 264 890 165 847 208 890 b 363 792 319 890 363 847 m 363 486 b 264 388 363 431 319 388 b 165 486 208 388 165 431 b 264 585 165 542 208 585 b 363 486 319 585 363 542 m 363 181 b 264 82 363 125 319 82 b 165 181 208 82 165 125 b 264 279 165 236 208 279 b 363 181 319 279 363 236 m 363 -125 b 264 -224 363 -181 319 -224 b 165 -125 208 -224 165 -181 b 264 -26 165 -69 208 -26 b 363 -125 319 -26 363 -69 "},"⣇":{"ha":833,"x_min":0,"x_max":0,"o":"m 363 792 b 264 693 363 736 319 693 b 165 792 208 693 165 736 b 264 890 165 847 208 890 b 363 792 319 890 363 847 m 363 486 b 264 388 363 431 319 388 b 165 486 208 388 165 431 b 264 585 165 542 208 585 b 363 486 319 585 363 542 m 363 181 b 264 82 363 125 319 82 b 165 181 208 82 165 125 b 264 279 165 236 208 279 b 363 181 319 279 363 236 m 363 -125 b 264 -224 363 -181 319 -224 b 165 -125 208 -224 165 -181 b 264 -26 165 -69 208 -26 b 363 -125 319 -26 363 -69 m 668 -125 b 569 -224 668 -181 625 -224 b 471 -125 514 -224 471 -181 b 569 -26 471 -69 514 -26 b 668 -125 625 -26 668 -69 "},"⢇":{"ha":833,"x_min":0,"x_max":0,"o":"m 363 792 b 264 693 363 736 319 693 b 165 792 208 693 165 736 b 264 890 165 847 208 890 b 363 792 319 890 363 847 m 363 486 b 264 388 363 431 319 388 b 165 486 208 388 165 431 b 264 585 165 542 208 585 b 363 486 319 585 363 542 m 363 181 b 264 82 363 125 319 82 b 165 181 208 82 165 125 b 264 279 165 236 208 279 b 363 181 319 279 363 236 m 668 -125 b 569 -224 668 -181 625 -224 b 471 -125 514 -224 471 -181 b 569 -26 471 -69 514 -26 b 668 -125 625 -26 668 -69 "},"⠋":{"ha":833,"x_min":0,"x_max":0,"o":"m 363 792 b 264 693 363 736 319 693 b 165 792 208 693 165 736 b 264 890 165 847 208 890 b 363 792 319 890 363 847 m 363 486 b 264 388 363 431 319 388 b 165 486 208 388 165 431 b 264 585 165 542 208 585 b 363 486 319 585 363 542 m 668 792 b 569 693 668 736 625 693 b 471 792 514 693 471 736 b 569 890 471 847 514 890 b 668 792 625 890 668 847 "},"⠛":{"ha":833,"x_min":0,"x_max":0,"o":"m 363 792 b 264 693 363 736 319 693 b 165 792 208 693 165 736 b 264 890 165 847 208 890 b 363 792 319 890 363 847 m 363 486 b 264 388 363 431 319 388 b 165 486 208 388 165 431 b 264 585 165 542 208 585 b 363 486 319 585 363 542 m 668 792 b 569 693 668 736 625 693 b 471 792 514 693 471 736 b 569 890 471 847 514 890 b 668 792 625 890 668 847 m 668 486 b 569 388 668 431 625 388 b 471 486 514 388 471 431 b 569 585 471 542 514 585 b 668 486 625 585 668 542 "},"⠻":{"ha":833,"x_min":0,"x_max":0,"o":"m 363 792 b 264 693 363 736 319 693 b 165 792 208 693 165 736 b 264 890 165 847 208 890 b 363 792 319 890 363 847 m 363 486 b 264 388 363 431 319 388 b 165 486 208 388 165 431 b 264 585 165 542 208 585 b 363 486 319 585 363 542 m 668 792 b 569 693 668 736 625 693 b 471 792 514 693 471 736 b 569 890 471 847 514 890 b 668 792 625 890 668 847 m 668 486 b 569 388 668 431 625 388 b 471 486 514 388 471 431 b 569 585 471 542 514 585 b 668 486 625 585 668 542 m 668 181 b 569 82 668 125 625 82 b 471 181 514 82 471 125 b 569 279 471 236 514 279 b 668 181 625 279 668 236 "},"⡻":{"ha":833,"x_min":0,"x_max":0,"o":"m 363 792 b 264 693 363 736 319 693 b 165 792 208 693 165 736 b 264 890 165 847 208 890 b 363 792 319 890 363 847 m 363 486 b 264 388 363 431 319 388 b 165 486 208 388 165 431 b 264 585 165 542 208 585 b 363 486 319 585 363 542 m 668 792 b 569 693 668 736 625 693 b 471 792 514 693 471 736 b 569 890 471 847 514 890 b 668 792 625 890 668 847 m 668 486 b 569 388 668 431 625 388 b 471 486 514 388 471 431 b 569 585 471 542 514 585 b 668 486 625 585 668 542 m 668 181 b 569 82 668 125 625 82 b 471 181 514 82 471 125 b 569 279 471 236 514 279 b 668 181 625 279 668 236 m 363 -125 b 264 -224 363 -181 319 -224 b 165 -125 208 -224 165 -181 b 264 -26 165 -69 208 -26 b 363 -125 319 -26 363 -69 "},"⣻":{"ha":833,"x_min":0,"x_max":0,"o":"m 363 792 b 264 693 363 736 319 693 b 165 792 208 693 165 736 b 264 890 165 847 208 890 b 363 792 319 890 363 847 m 363 486 b 264 388 363 431 319 388 b 165 486 208 388 165 431 b 264 585 165 542 208 585 b 363 486 319 585 363 542 m 668 792 b 569 693 668 736 625 693 b 471 792 514 693 471 736 b 569 890 471 847 514 890 b 668 792 625 890 668 847 m 668 486 b 569 388 668 431 625 388 b 471 486 514 388 471 431 b 569 585 471 542 514 585 b 668 486 625 585 668 542 m 668 181 b 569 82 668 125 625 82 b 471 181 514 82 471 125 b 569 279 471 236 514 279 b 668 181 625 279 668 236 m 363 -125 b 264 -224 363 -181 319 -224 b 165 -125 208 -224 165 -181 b 264 -26 165 -69 208 -26 b 363 -125 319 -26 363 -69 m 668 -125 b 569 -224 668 -181 625 -224 b 471 -125 514 -224 471 -181 b 569 -26 471 -69 514 -26 b 668 -125 625 -26 668 -69 "},"⢻":{"ha":833,"x_min":0,"x_max":0,"o":"m 363 792 b 264 693 363 736 319 693 b 165 792 208 693 165 736 b 264 890 165 847 208 890 b 363 792 319 890 363 847 m 363 486 b 264 388 363 431 319 388 b 165 486 208 388 165 431 b 264 585 165 542 208 585 b 363 486 319 585 363 542 m 668 792 b 569 693 668 736 625 693 b 471 792 514 693 471 736 b 569 890 471 847 514 890 b 668 792 625 890 668 847 m 668 486 b 569 388 668 431 625 388 b 471 486 514 388 471 431 b 569 585 471 542 514 585 b 668 486 625 585 668 542 m 668 181 b 569 82 668 125 625 82 b 471 181 514 82 471 125 b 569 279 471 236 514 279 b 668 181 625 279 668 236 m 668 -125 b 569 -224 668 -181 625 -224 b 471 -125 514 -224 471 -181 b 569 -26 471 -69 514 -26 b 668 -125 625 -26 668 -69 "},"⡛":{"ha":833,"x_min":0,"x_max":0,"o":"m 363 792 b 264 693 363 736 319 693 b 165 792 208 693 165 736 b 264 890 165 847 208 890 b 363 792 319 890 363 847 m 363 486 b 264 388 363 431 319 388 b 165 486 208 388 165 431 b 264 585 165 542 208 585 b 363 486 319 585 363 542 m 668 792 b 569 693 668 736 625 693 b 471 792 514 693 471 736 b 569 890 471 847 514 890 b 668 792 625 890 668 847 m 668 486 b 569 388 668 431 625 388 b 471 486 514 388 471 431 b 569 585 471 542 514 585 b 668 486 625 585 668 542 m 363 -125 b 264 -224 363 -181 319 -224 b 165 -125 208 -224 165 -181 b 264 -26 165 -69 208 -26 b 363 -125 319 -26 363 -69 "},"⣛":{"ha":833,"x_min":0,"x_max":0,"o":"m 363 792 b 264 693 363 736 319 693 b 165 792 208 693 165 736 b 264 890 165 847 208 890 b 363 792 319 890 363 847 m 363 486 b 264 388 363 431 319 388 b 165 486 208 388 165 431 b 264 585 165 542 208 585 b 363 486 319 585 363 542 m 668 792 b 569 693 668 736 625 693 b 471 792 514 693 471 736 b 569 890 471 847 514 890 b 668 792 625 890 668 847 m 668 486 b 569 388 668 431 625 388 b 471 486 514 388 471 431 b 569 585 471 542 514 585 b 668 486 625 585 668 542 m 363 -125 b 264 -224 363 -181 319 -224 b 165 -125 208 -224 165 -181 b 264 -26 165 -69 208 -26 b 363 -125 319 -26 363 -69 m 668 -125 b 569 -224 668 -181 625 -224 b 471 -125 514 -224 471 -181 b 569 -26 471 -69 514 -26 b 668 -125 625 -26 668 -69 "},"⢛":{"ha":833,"x_min":0,"x_max":0,"o":"m 363 792 b 264 693 363 736 319 693 b 165 792 208 693 165 736 b 264 890 165 847 208 890 b 363 792 319 890 363 847 m 363 486 b 264 388 363 431 319 388 b 165 486 208 388 165 431 b 264 585 165 542 208 585 b 363 486 319 585 363 542 m 668 792 b 569 693 668 736 625 693 b 471 792 514 693 471 736 b 569 890 471 847 514 890 b 668 792 625 890 668 847 m 668 486 b 569 388 668 431 625 388 b 471 486 514 388 471 431 b 569 585 471 542 514 585 b 668 486 625 585 668 542 m 668 -125 b 569 -224 668 -181 625 -224 b 471 -125 514 -224 471 -181 b 569 -26 471 -69 514 -26 b 668 -125 625 -26 668 -69 "},"⠫":{"ha":833,"x_min":0,"x_max":0,"o":"m 363 792 b 264 693 363 736 319 693 b 165 792 208 693 165 736 b 264 890 165 847 208 890 b 363 792 319 890 363 847 m 363 486 b 264 388 363 431 319 388 b 165 486 208 388 165 431 b 264 585 165 542 208 585 b 363 486 319 585 363 542 m 668 792 b 569 693 668 736 625 693 b 471 792 514 693 471 736 b 569 890 471 847 514 890 b 668 792 625 890 668 847 m 668 181 b 569 82 668 125 625 82 b 471 181 514 82 471 125 b 569 279 471 236 514 279 b 668 181 625 279 668 236 "},"⡫":{"ha":833,"x_min":0,"x_max":0,"o":"m 363 792 b 264 693 363 736 319 693 b 165 792 208 693 165 736 b 264 890 165 847 208 890 b 363 792 319 890 363 847 m 363 486 b 264 388 363 431 319 388 b 165 486 208 388 165 431 b 264 585 165 542 208 585 b 363 486 319 585 363 542 m 668 792 b 569 693 668 736 625 693 b 471 792 514 693 471 736 b 569 890 471 847 514 890 b 668 792 625 890 668 847 m 668 181 b 569 82 668 125 625 82 b 471 181 514 82 471 125 b 569 279 471 236 514 279 b 668 181 625 279 668 236 m 363 -125 b 264 -224 363 -181 319 -224 b 165 -125 208 -224 165 -181 b 264 -26 165 -69 208 -26 b 363 -125 319 -26 363 -69 "},"⣫":{"ha":833,"x_min":0,"x_max":0,"o":"m 363 792 b 264 693 363 736 319 693 b 165 792 208 693 165 736 b 264 890 165 847 208 890 b 363 792 319 890 363 847 m 363 486 b 264 388 363 431 319 388 b 165 486 208 388 165 431 b 264 585 165 542 208 585 b 363 486 319 585 363 542 m 668 792 b 569 693 668 736 625 693 b 471 792 514 693 471 736 b 569 890 471 847 514 890 b 668 792 625 890 668 847 m 668 181 b 569 82 668 125 625 82 b 471 181 514 82 471 125 b 569 279 471 236 514 279 b 668 181 625 279 668 236 m 363 -125 b 264 -224 363 -181 319 -224 b 165 -125 208 -224 165 -181 b 264 -26 165 -69 208 -26 b 363 -125 319 -26 363 -69 m 668 -125 b 569 -224 668 -181 625 -224 b 471 -125 514 -224 471 -181 b 569 -26 471 -69 514 -26 b 668 -125 625 -26 668 -69 "},"⢫":{"ha":833,"x_min":0,"x_max":0,"o":"m 363 792 b 264 693 363 736 319 693 b 165 792 208 693 165 736 b 264 890 165 847 208 890 b 363 792 319 890 363 847 m 363 486 b 264 388 363 431 319 388 b 165 486 208 388 165 431 b 264 585 165 542 208 585 b 363 486 319 585 363 542 m 668 792 b 569 693 668 736 625 693 b 471 792 514 693 471 736 b 569 890 471 847 514 890 b 668 792 625 890 668 847 m 668 181 b 569 82 668 125 625 82 b 471 181 514 82 471 125 b 569 279 471 236 514 279 b 668 181 625 279 668 236 m 668 -125 b 569 -224 668 -181 625 -224 b 471 -125 514 -224 471 -181 b 569 -26 471 -69 514 -26 b 668 -125 625 -26 668 -69 "},"⡋":{"ha":833,"x_min":0,"x_max":0,"o":"m 363 792 b 264 693 363 736 319 693 b 165 792 208 693 165 736 b 264 890 165 847 208 890 b 363 792 319 890 363 847 m 363 486 b 264 388 363 431 319 388 b 165 486 208 388 165 431 b 264 585 165 542 208 585 b 363 486 319 585 363 542 m 668 792 b 569 693 668 736 625 693 b 471 792 514 693 471 736 b 569 890 471 847 514 890 b 668 792 625 890 668 847 m 363 -125 b 264 -224 363 -181 319 -224 b 165 -125 208 -224 165 -181 b 264 -26 165 -69 208 -26 b 363 -125 319 -26 363 -69 "},"⣋":{"ha":833,"x_min":0,"x_max":0,"o":"m 363 792 b 264 693 363 736 319 693 b 165 792 208 693 165 736 b 264 890 165 847 208 890 b 363 792 319 890 363 847 m 363 486 b 264 388 363 431 319 388 b 165 486 208 388 165 431 b 264 585 165 542 208 585 b 363 486 319 585 363 542 m 668 792 b 569 693 668 736 625 693 b 471 792 514 693 471 736 b 569 890 471 847 514 890 b 668 792 625 890 668 847 m 363 -125 b 264 -224 363 -181 319 -224 b 165 -125 208 -224 165 -181 b 264 -26 165 -69 208 -26 b 363 -125 319 -26 363 -69 m 668 -125 b 569 -224 668 -181 625 -224 b 471 -125 514 -224 471 -181 b 569 -26 471 -69 514 -26 b 668 -125 625 -26 668 -69 "},"⢋":{"ha":833,"x_min":0,"x_max":0,"o":"m 363 792 b 264 693 363 736 319 693 b 165 792 208 693 165 736 b 264 890 165 847 208 890 b 363 792 319 890 363 847 m 363 486 b 264 388 363 431 319 388 b 165 486 208 388 165 431 b 264 585 165 542 208 585 b 363 486 319 585 363 542 m 668 792 b 569 693 668 736 625 693 b 471 792 514 693 471 736 b 569 890 471 847 514 890 b 668 792 625 890 668 847 m 668 -125 b 569 -224 668 -181 625 -224 b 471 -125 514 -224 471 -181 b 569 -26 471 -69 514 -26 b 668 -125 625 -26 668 -69 "},"⠓":{"ha":833,"x_min":0,"x_max":0,"o":"m 363 792 b 264 693 363 736 319 693 b 165 792 208 693 165 736 b 264 890 165 847 208 890 b 363 792 319 890 363 847 m 363 486 b 264 388 363 431 319 388 b 165 486 208 388 165 431 b 264 585 165 542 208 585 b 363 486 319 585 363 542 m 668 486 b 569 388 668 431 625 388 b 471 486 514 388 471 431 b 569 585 471 542 514 585 b 668 486 625 585 668 542 "},"⠳":{"ha":833,"x_min":0,"x_max":0,"o":"m 363 792 b 264 693 363 736 319 693 b 165 792 208 693 165 736 b 264 890 165 847 208 890 b 363 792 319 890 363 847 m 363 486 b 264 388 363 431 319 388 b 165 486 208 388 165 431 b 264 585 165 542 208 585 b 363 486 319 585 363 542 m 668 486 b 569 388 668 431 625 388 b 471 486 514 388 471 431 b 569 585 471 542 514 585 b 668 486 625 585 668 542 m 668 181 b 569 82 668 125 625 82 b 471 181 514 82 471 125 b 569 279 471 236 514 279 b 668 181 625 279 668 236 "},"⡳":{"ha":833,"x_min":0,"x_max":0,"o":"m 363 792 b 264 693 363 736 319 693 b 165 792 208 693 165 736 b 264 890 165 847 208 890 b 363 792 319 890 363 847 m 363 486 b 264 388 363 431 319 388 b 165 486 208 388 165 431 b 264 585 165 542 208 585 b 363 486 319 585 363 542 m 668 486 b 569 388 668 431 625 388 b 471 486 514 388 471 431 b 569 585 471 542 514 585 b 668 486 625 585 668 542 m 668 181 b 569 82 668 125 625 82 b 471 181 514 82 471 125 b 569 279 471 236 514 279 b 668 181 625 279 668 236 m 363 -125 b 264 -224 363 -181 319 -224 b 165 -125 208 -224 165 -181 b 264 -26 165 -69 208 -26 b 363 -125 319 -26 363 -69 "},"⣳":{"ha":833,"x_min":0,"x_max":0,"o":"m 363 792 b 264 693 363 736 319 693 b 165 792 208 693 165 736 b 264 890 165 847 208 890 b 363 792 319 890 363 847 m 363 486 b 264 388 363 431 319 388 b 165 486 208 388 165 431 b 264 585 165 542 208 585 b 363 486 319 585 363 542 m 668 486 b 569 388 668 431 625 388 b 471 486 514 388 471 431 b 569 585 471 542 514 585 b 668 486 625 585 668 542 m 668 181 b 569 82 668 125 625 82 b 471 181 514 82 471 125 b 569 279 471 236 514 279 b 668 181 625 279 668 236 m 363 -125 b 264 -224 363 -181 319 -224 b 165 -125 208 -224 165 -181 b 264 -26 165 -69 208 -26 b 363 -125 319 -26 363 -69 m 668 -125 b 569 -224 668 -181 625 -224 b 471 -125 514 -224 471 -181 b 569 -26 471 -69 514 -26 b 668 -125 625 -26 668 -69 "},"⢳":{"ha":833,"x_min":0,"x_max":0,"o":"m 363 792 b 264 693 363 736 319 693 b 165 792 208 693 165 736 b 264 890 165 847 208 890 b 363 792 319 890 363 847 m 363 486 b 264 388 363 431 319 388 b 165 486 208 388 165 431 b 264 585 165 542 208 585 b 363 486 319 585 363 542 m 668 486 b 569 388 668 431 625 388 b 471 486 514 388 471 431 b 569 585 471 542 514 585 b 668 486 625 585 668 542 m 668 181 b 569 82 668 125 625 82 b 471 181 514 82 471 125 b 569 279 471 236 514 279 b 668 181 625 279 668 236 m 668 -125 b 569 -224 668 -181 625 -224 b 471 -125 514 -224 471 -181 b 569 -26 471 -69 514 -26 b 668 -125 625 -26 668 -69 "},"⡓":{"ha":833,"x_min":0,"x_max":0,"o":"m 363 792 b 264 693 363 736 319 693 b 165 792 208 693 165 736 b 264 890 165 847 208 890 b 363 792 319 890 363 847 m 363 486 b 264 388 363 431 319 388 b 165 486 208 388 165 431 b 264 585 165 542 208 585 b 363 486 319 585 363 542 m 668 486 b 569 388 668 431 625 388 b 471 486 514 388 471 431 b 569 585 471 542 514 585 b 668 486 625 585 668 542 m 363 -125 b 264 -224 363 -181 319 -224 b 165 -125 208 -224 165 -181 b 264 -26 165 -69 208 -26 b 363 -125 319 -26 363 -69 "},"⣓":{"ha":833,"x_min":0,"x_max":0,"o":"m 363 792 b 264 693 363 736 319 693 b 165 792 208 693 165 736 b 264 890 165 847 208 890 b 363 792 319 890 363 847 m 363 486 b 264 388 363 431 319 388 b 165 486 208 388 165 431 b 264 585 165 542 208 585 b 363 486 319 585 363 542 m 668 486 b 569 388 668 431 625 388 b 471 486 514 388 471 431 b 569 585 471 542 514 585 b 668 486 625 585 668 542 m 363 -125 b 264 -224 363 -181 319 -224 b 165 -125 208 -224 165 -181 b 264 -26 165 -69 208 -26 b 363 -125 319 -26 363 -69 m 668 -125 b 569 -224 668 -181 625 -224 b 471 -125 514 -224 471 -181 b 569 -26 471 -69 514 -26 b 668 -125 625 -26 668 -69 "},"⢓":{"ha":833,"x_min":0,"x_max":0,"o":"m 363 792 b 264 693 363 736 319 693 b 165 792 208 693 165 736 b 264 890 165 847 208 890 b 363 792 319 890 363 847 m 363 486 b 264 388 363 431 319 388 b 165 486 208 388 165 431 b 264 585 165 542 208 585 b 363 486 319 585 363 542 m 668 486 b 569 388 668 431 625 388 b 471 486 514 388 471 431 b 569 585 471 542 514 585 b 668 486 625 585 668 542 m 668 -125 b 569 -224 668 -181 625 -224 b 471 -125 514 -224 471 -181 b 569 -26 471 -69 514 -26 b 668 -125 625 -26 668 -69 "},"⠣":{"ha":833,"x_min":0,"x_max":0,"o":"m 363 792 b 264 693 363 736 319 693 b 165 792 208 693 165 736 b 264 890 165 847 208 890 b 363 792 319 890 363 847 m 363 486 b 264 388 363 431 319 388 b 165 486 208 388 165 431 b 264 585 165 542 208 585 b 363 486 319 585 363 542 m 668 181 b 569 82 668 125 625 82 b 471 181 514 82 471 125 b 569 279 471 236 514 279 b 668 181 625 279 668 236 "},"⡣":{"ha":833,"x_min":0,"x_max":0,"o":"m 363 792 b 264 693 363 736 319 693 b 165 792 208 693 165 736 b 264 890 165 847 208 890 b 363 792 319 890 363 847 m 363 486 b 264 388 363 431 319 388 b 165 486 208 388 165 431 b 264 585 165 542 208 585 b 363 486 319 585 363 542 m 668 181 b 569 82 668 125 625 82 b 471 181 514 82 471 125 b 569 279 471 236 514 279 b 668 181 625 279 668 236 m 363 -125 b 264 -224 363 -181 319 -224 b 165 -125 208 -224 165 -181 b 264 -26 165 -69 208 -26 b 363 -125 319 -26 363 -69 "},"⣣":{"ha":833,"x_min":0,"x_max":0,"o":"m 363 792 b 264 693 363 736 319 693 b 165 792 208 693 165 736 b 264 890 165 847 208 890 b 363 792 319 890 363 847 m 363 486 b 264 388 363 431 319 388 b 165 486 208 388 165 431 b 264 585 165 542 208 585 b 363 486 319 585 363 542 m 668 181 b 569 82 668 125 625 82 b 471 181 514 82 471 125 b 569 279 471 236 514 279 b 668 181 625 279 668 236 m 363 -125 b 264 -224 363 -181 319 -224 b 165 -125 208 -224 165 -181 b 264 -26 165 -69 208 -26 b 363 -125 319 -26 363 -69 m 668 -125 b 569 -224 668 -181 625 -224 b 471 -125 514 -224 471 -181 b 569 -26 471 -69 514 -26 b 668 -125 625 -26 668 -69 "},"⢣":{"ha":833,"x_min":0,"x_max":0,"o":"m 363 792 b 264 693 363 736 319 693 b 165 792 208 693 165 736 b 264 890 165 847 208 890 b 363 792 319 890 363 847 m 363 486 b 264 388 363 431 319 388 b 165 486 208 388 165 431 b 264 585 165 542 208 585 b 363 486 319 585 363 542 m 668 181 b 569 82 668 125 625 82 b 471 181 514 82 471 125 b 569 279 471 236 514 279 b 668 181 625 279 668 236 m 668 -125 b 569 -224 668 -181 625 -224 b 471 -125 514 -224 471 -181 b 569 -26 471 -69 514 -26 b 668 -125 625 -26 668 -69 "},"⡃":{"ha":833,"x_min":0,"x_max":0,"o":"m 363 792 b 264 693 363 736 319 693 b 165 792 208 693 165 736 b 264 890 165 847 208 890 b 363 792 319 890 363 847 m 363 486 b 264 388 363 431 319 388 b 165 486 208 388 165 431 b 264 585 165 542 208 585 b 363 486 319 585 363 542 m 363 -125 b 264 -224 363 -181 319 -224 b 165 -125 208 -224 165 -181 b 264 -26 165 -69 208 -26 b 363 -125 319 -26 363 -69 "},"⣃":{"ha":833,"x_min":0,"x_max":0,"o":"m 363 792 b 264 693 363 736 319 693 b 165 792 208 693 165 736 b 264 890 165 847 208 890 b 363 792 319 890 363 847 m 363 486 b 264 388 363 431 319 388 b 165 486 208 388 165 431 b 264 585 165 542 208 585 b 363 486 319 585 363 542 m 363 -125 b 264 -224 363 -181 319 -224 b 165 -125 208 -224 165 -181 b 264 -26 165 -69 208 -26 b 363 -125 319 -26 363 -69 m 668 -125 b 569 -224 668 -181 625 -224 b 471 -125 514 -224 471 -181 b 569 -26 471 -69 514 -26 b 668 -125 625 -26 668 -69 "},"⢃":{"ha":833,"x_min":0,"x_max":0,"o":"m 363 792 b 264 693 363 736 319 693 b 165 792 208 693 165 736 b 264 890 165 847 208 890 b 363 792 319 890 363 847 m 363 486 b 264 388 363 431 319 388 b 165 486 208 388 165 431 b 264 585 165 542 208 585 b 363 486 319 585 363 542 m 668 -125 b 569 -224 668 -181 625 -224 b 471 -125 514 -224 471 -181 b 569 -26 471 -69 514 -26 b 668 -125 625 -26 668 -69 "},"⠅":{"ha":833,"x_min":0,"x_max":0,"o":"m 363 792 b 264 693 363 736 319 693 b 165 792 208 693 165 736 b 264 890 165 847 208 890 b 363 792 319 890 363 847 m 363 181 b 264 82 363 125 319 82 b 165 181 208 82 165 125 b 264 279 165 236 208 279 b 363 181 319 279 363 236 "},"⠍":{"ha":833,"x_min":0,"x_max":0,"o":"m 363 792 b 264 693 363 736 319 693 b 165 792 208 693 165 736 b 264 890 165 847 208 890 b 363 792 319 890 363 847 m 363 181 b 264 82 363 125 319 82 b 165 181 208 82 165 125 b 264 279 165 236 208 279 b 363 181 319 279 363 236 m 668 792 b 569 693 668 736 625 693 b 471 792 514 693 471 736 b 569 890 471 847 514 890 b 668 792 625 890 668 847 "},"⠝":{"ha":833,"x_min":0,"x_max":0,"o":"m 363 792 b 264 693 363 736 319 693 b 165 792 208 693 165 736 b 264 890 165 847 208 890 b 363 792 319 890 363 847 m 363 181 b 264 82 363 125 319 82 b 165 181 208 82 165 125 b 264 279 165 236 208 279 b 363 181 319 279 363 236 m 668 792 b 569 693 668 736 625 693 b 471 792 514 693 471 736 b 569 890 471 847 514 890 b 668 792 625 890 668 847 m 668 486 b 569 388 668 431 625 388 b 471 486 514 388 471 431 b 569 585 471 542 514 585 b 668 486 625 585 668 542 "},"⠽":{"ha":833,"x_min":0,"x_max":0,"o":"m 363 792 b 264 693 363 736 319 693 b 165 792 208 693 165 736 b 264 890 165 847 208 890 b 363 792 319 890 363 847 m 363 181 b 264 82 363 125 319 82 b 165 181 208 82 165 125 b 264 279 165 236 208 279 b 363 181 319 279 363 236 m 668 792 b 569 693 668 736 625 693 b 471 792 514 693 471 736 b 569 890 471 847 514 890 b 668 792 625 890 668 847 m 668 486 b 569 388 668 431 625 388 b 471 486 514 388 471 431 b 569 585 471 542 514 585 b 668 486 625 585 668 542 m 668 181 b 569 82 668 125 625 82 b 471 181 514 82 471 125 b 569 279 471 236 514 279 b 668 181 625 279 668 236 "},"⡽":{"ha":833,"x_min":0,"x_max":0,"o":"m 363 792 b 264 693 363 736 319 693 b 165 792 208 693 165 736 b 264 890 165 847 208 890 b 363 792 319 890 363 847 m 363 181 b 264 82 363 125 319 82 b 165 181 208 82 165 125 b 264 279 165 236 208 279 b 363 181 319 279 363 236 m 668 792 b 569 693 668 736 625 693 b 471 792 514 693 471 736 b 569 890 471 847 514 890 b 668 792 625 890 668 847 m 668 486 b 569 388 668 431 625 388 b 471 486 514 388 471 431 b 569 585 471 542 514 585 b 668 486 625 585 668 542 m 668 181 b 569 82 668 125 625 82 b 471 181 514 82 471 125 b 569 279 471 236 514 279 b 668 181 625 279 668 236 m 363 -125 b 264 -224 363 -181 319 -224 b 165 -125 208 -224 165 -181 b 264 -26 165 -69 208 -26 b 363 -125 319 -26 363 -69 "},"⣽":{"ha":833,"x_min":0,"x_max":0,"o":"m 363 792 b 264 693 363 736 319 693 b 165 792 208 693 165 736 b 264 890 165 847 208 890 b 363 792 319 890 363 847 m 363 181 b 264 82 363 125 319 82 b 165 181 208 82 165 125 b 264 279 165 236 208 279 b 363 181 319 279 363 236 m 668 792 b 569 693 668 736 625 693 b 471 792 514 693 471 736 b 569 890 471 847 514 890 b 668 792 625 890 668 847 m 668 486 b 569 388 668 431 625 388 b 471 486 514 388 471 431 b 569 585 471 542 514 585 b 668 486 625 585 668 542 m 668 181 b 569 82 668 125 625 82 b 471 181 514 82 471 125 b 569 279 471 236 514 279 b 668 181 625 279 668 236 m 363 -125 b 264 -224 363 -181 319 -224 b 165 -125 208 -224 165 -181 b 264 -26 165 -69 208 -26 b 363 -125 319 -26 363 -69 m 668 -125 b 569 -224 668 -181 625 -224 b 471 -125 514 -224 471 -181 b 569 -26 471 -69 514 -26 b 668 -125 625 -26 668 -69 "},"⢽":{"ha":833,"x_min":0,"x_max":0,"o":"m 363 792 b 264 693 363 736 319 693 b 165 792 208 693 165 736 b 264 890 165 847 208 890 b 363 792 319 890 363 847 m 363 181 b 264 82 363 125 319 82 b 165 181 208 82 165 125 b 264 279 165 236 208 279 b 363 181 319 279 363 236 m 668 792 b 569 693 668 736 625 693 b 471 792 514 693 471 736 b 569 890 471 847 514 890 b 668 792 625 890 668 847 m 668 486 b 569 388 668 431 625 388 b 471 486 514 388 471 431 b 569 585 471 542 514 585 b 668 486 625 585 668 542 m 668 181 b 569 82 668 125 625 82 b 471 181 514 82 471 125 b 569 279 471 236 514 279 b 668 181 625 279 668 236 m 668 -125 b 569 -224 668 -181 625 -224 b 471 -125 514 -224 471 -181 b 569 -26 471 -69 514 -26 b 668 -125 625 -26 668 -69 "},"⡝":{"ha":833,"x_min":0,"x_max":0,"o":"m 363 792 b 264 693 363 736 319 693 b 165 792 208 693 165 736 b 264 890 165 847 208 890 b 363 792 319 890 363 847 m 363 181 b 264 82 363 125 319 82 b 165 181 208 82 165 125 b 264 279 165 236 208 279 b 363 181 319 279 363 236 m 668 792 b 569 693 668 736 625 693 b 471 792 514 693 471 736 b 569 890 471 847 514 890 b 668 792 625 890 668 847 m 668 486 b 569 388 668 431 625 388 b 471 486 514 388 471 431 b 569 585 471 542 514 585 b 668 486 625 585 668 542 m 363 -125 b 264 -224 363 -181 319 -224 b 165 -125 208 -224 165 -181 b 264 -26 165 -69 208 -26 b 363 -125 319 -26 363 -69 "},"⣝":{"ha":833,"x_min":0,"x_max":0,"o":"m 363 792 b 264 693 363 736 319 693 b 165 792 208 693 165 736 b 264 890 165 847 208 890 b 363 792 319 890 363 847 m 363 181 b 264 82 363 125 319 82 b 165 181 208 82 165 125 b 264 279 165 236 208 279 b 363 181 319 279 363 236 m 668 792 b 569 693 668 736 625 693 b 471 792 514 693 471 736 b 569 890 471 847 514 890 b 668 792 625 890 668 847 m 668 486 b 569 388 668 431 625 388 b 471 486 514 388 471 431 b 569 585 471 542 514 585 b 668 486 625 585 668 542 m 363 -125 b 264 -224 363 -181 319 -224 b 165 -125 208 -224 165 -181 b 264 -26 165 -69 208 -26 b 363 -125 319 -26 363 -69 m 668 -125 b 569 -224 668 -181 625 -224 b 471 -125 514 -224 471 -181 b 569 -26 471 -69 514 -26 b 668 -125 625 -26 668 -69 "},"⢝":{"ha":833,"x_min":0,"x_max":0,"o":"m 363 792 b 264 693 363 736 319 693 b 165 792 208 693 165 736 b 264 890 165 847 208 890 b 363 792 319 890 363 847 m 363 181 b 264 82 363 125 319 82 b 165 181 208 82 165 125 b 264 279 165 236 208 279 b 363 181 319 279 363 236 m 668 792 b 569 693 668 736 625 693 b 471 792 514 693 471 736 b 569 890 471 847 514 890 b 668 792 625 890 668 847 m 668 486 b 569 388 668 431 625 388 b 471 486 514 388 471 431 b 569 585 471 542 514 585 b 668 486 625 585 668 542 m 668 -125 b 569 -224 668 -181 625 -224 b 471 -125 514 -224 471 -181 b 569 -26 471 -69 514 -26 b 668 -125 625 -26 668 -69 "},"⠭":{"ha":833,"x_min":0,"x_max":0,"o":"m 363 792 b 264 693 363 736 319 693 b 165 792 208 693 165 736 b 264 890 165 847 208 890 b 363 792 319 890 363 847 m 363 181 b 264 82 363 125 319 82 b 165 181 208 82 165 125 b 264 279 165 236 208 279 b 363 181 319 279 363 236 m 668 792 b 569 693 668 736 625 693 b 471 792 514 693 471 736 b 569 890 471 847 514 890 b 668 792 625 890 668 847 m 668 181 b 569 82 668 125 625 82 b 471 181 514 82 471 125 b 569 279 471 236 514 279 b 668 181 625 279 668 236 "},"⡭":{"ha":833,"x_min":0,"x_max":0,"o":"m 363 792 b 264 693 363 736 319 693 b 165 792 208 693 165 736 b 264 890 165 847 208 890 b 363 792 319 890 363 847 m 363 181 b 264 82 363 125 319 82 b 165 181 208 82 165 125 b 264 279 165 236 208 279 b 363 181 319 279 363 236 m 668 792 b 569 693 668 736 625 693 b 471 792 514 693 471 736 b 569 890 471 847 514 890 b 668 792 625 890 668 847 m 668 181 b 569 82 668 125 625 82 b 471 181 514 82 471 125 b 569 279 471 236 514 279 b 668 181 625 279 668 236 m 363 -125 b 264 -224 363 -181 319 -224 b 165 -125 208 -224 165 -181 b 264 -26 165 -69 208 -26 b 363 -125 319 -26 363 -69 "},"⣭":{"ha":833,"x_min":0,"x_max":0,"o":"m 363 792 b 264 693 363 736 319 693 b 165 792 208 693 165 736 b 264 890 165 847 208 890 b 363 792 319 890 363 847 m 363 181 b 264 82 363 125 319 82 b 165 181 208 82 165 125 b 264 279 165 236 208 279 b 363 181 319 279 363 236 m 668 792 b 569 693 668 736 625 693 b 471 792 514 693 471 736 b 569 890 471 847 514 890 b 668 792 625 890 668 847 m 668 181 b 569 82 668 125 625 82 b 471 181 514 82 471 125 b 569 279 471 236 514 279 b 668 181 625 279 668 236 m 363 -125 b 264 -224 363 -181 319 -224 b 165 -125 208 -224 165 -181 b 264 -26 165 -69 208 -26 b 363 -125 319 -26 363 -69 m 668 -125 b 569 -224 668 -181 625 -224 b 471 -125 514 -224 471 -181 b 569 -26 471 -69 514 -26 b 668 -125 625 -26 668 -69 "},"⢭":{"ha":833,"x_min":0,"x_max":0,"o":"m 363 792 b 264 693 363 736 319 693 b 165 792 208 693 165 736 b 264 890 165 847 208 890 b 363 792 319 890 363 847 m 363 181 b 264 82 363 125 319 82 b 165 181 208 82 165 125 b 264 279 165 236 208 279 b 363 181 319 279 363 236 m 668 792 b 569 693 668 736 625 693 b 471 792 514 693 471 736 b 569 890 471 847 514 890 b 668 792 625 890 668 847 m 668 181 b 569 82 668 125 625 82 b 471 181 514 82 471 125 b 569 279 471 236 514 279 b 668 181 625 279 668 236 m 668 -125 b 569 -224 668 -181 625 -224 b 471 -125 514 -224 471 -181 b 569 -26 471 -69 514 -26 b 668 -125 625 -26 668 -69 "},"⡍":{"ha":833,"x_min":0,"x_max":0,"o":"m 363 792 b 264 693 363 736 319 693 b 165 792 208 693 165 736 b 264 890 165 847 208 890 b 363 792 319 890 363 847 m 363 181 b 264 82 363 125 319 82 b 165 181 208 82 165 125 b 264 279 165 236 208 279 b 363 181 319 279 363 236 m 668 792 b 569 693 668 736 625 693 b 471 792 514 693 471 736 b 569 890 471 847 514 890 b 668 792 625 890 668 847 m 363 -125 b 264 -224 363 -181 319 -224 b 165 -125 208 -224 165 -181 b 264 -26 165 -69 208 -26 b 363 -125 319 -26 363 -69 "},"⣍":{"ha":833,"x_min":0,"x_max":0,"o":"m 363 792 b 264 693 363 736 319 693 b 165 792 208 693 165 736 b 264 890 165 847 208 890 b 363 792 319 890 363 847 m 363 181 b 264 82 363 125 319 82 b 165 181 208 82 165 125 b 264 279 165 236 208 279 b 363 181 319 279 363 236 m 668 792 b 569 693 668 736 625 693 b 471 792 514 693 471 736 b 569 890 471 847 514 890 b 668 792 625 890 668 847 m 363 -125 b 264 -224 363 -181 319 -224 b 165 -125 208 -224 165 -181 b 264 -26 165 -69 208 -26 b 363 -125 319 -26 363 -69 m 668 -125 b 569 -224 668 -181 625 -224 b 471 -125 514 -224 471 -181 b 569 -26 471 -69 514 -26 b 668 -125 625 -26 668 -69 "},"⢍":{"ha":833,"x_min":0,"x_max":0,"o":"m 363 792 b 264 693 363 736 319 693 b 165 792 208 693 165 736 b 264 890 165 847 208 890 b 363 792 319 890 363 847 m 363 181 b 264 82 363 125 319 82 b 165 181 208 82 165 125 b 264 279 165 236 208 279 b 363 181 319 279 363 236 m 668 792 b 569 693 668 736 625 693 b 471 792 514 693 471 736 b 569 890 471 847 514 890 b 668 792 625 890 668 847 m 668 -125 b 569 -224 668 -181 625 -224 b 471 -125 514 -224 471 -181 b 569 -26 471 -69 514 -26 b 668 -125 625 -26 668 -69 "},"⠕":{"ha":833,"x_min":0,"x_max":0,"o":"m 363 792 b 264 693 363 736 319 693 b 165 792 208 693 165 736 b 264 890 165 847 208 890 b 363 792 319 890 363 847 m 363 181 b 264 82 363 125 319 82 b 165 181 208 82 165 125 b 264 279 165 236 208 279 b 363 181 319 279 363 236 m 668 486 b 569 388 668 431 625 388 b 471 486 514 388 471 431 b 569 585 471 542 514 585 b 668 486 625 585 668 542 "},"⠵":{"ha":833,"x_min":0,"x_max":0,"o":"m 363 792 b 264 693 363 736 319 693 b 165 792 208 693 165 736 b 264 890 165 847 208 890 b 363 792 319 890 363 847 m 363 181 b 264 82 363 125 319 82 b 165 181 208 82 165 125 b 264 279 165 236 208 279 b 363 181 319 279 363 236 m 668 486 b 569 388 668 431 625 388 b 471 486 514 388 471 431 b 569 585 471 542 514 585 b 668 486 625 585 668 542 m 668 181 b 569 82 668 125 625 82 b 471 181 514 82 471 125 b 569 279 471 236 514 279 b 668 181 625 279 668 236 "},"⡵":{"ha":833,"x_min":0,"x_max":0,"o":"m 363 792 b 264 693 363 736 319 693 b 165 792 208 693 165 736 b 264 890 165 847 208 890 b 363 792 319 890 363 847 m 363 181 b 264 82 363 125 319 82 b 165 181 208 82 165 125 b 264 279 165 236 208 279 b 363 181 319 279 363 236 m 668 486 b 569 388 668 431 625 388 b 471 486 514 388 471 431 b 569 585 471 542 514 585 b 668 486 625 585 668 542 m 668 181 b 569 82 668 125 625 82 b 471 181 514 82 471 125 b 569 279 471 236 514 279 b 668 181 625 279 668 236 m 363 -125 b 264 -224 363 -181 319 -224 b 165 -125 208 -224 165 -181 b 264 -26 165 -69 208 -26 b 363 -125 319 -26 363 -69 "},"⣵":{"ha":833,"x_min":0,"x_max":0,"o":"m 363 792 b 264 693 363 736 319 693 b 165 792 208 693 165 736 b 264 890 165 847 208 890 b 363 792 319 890 363 847 m 363 181 b 264 82 363 125 319 82 b 165 181 208 82 165 125 b 264 279 165 236 208 279 b 363 181 319 279 363 236 m 668 486 b 569 388 668 431 625 388 b 471 486 514 388 471 431 b 569 585 471 542 514 585 b 668 486 625 585 668 542 m 668 181 b 569 82 668 125 625 82 b 471 181 514 82 471 125 b 569 279 471 236 514 279 b 668 181 625 279 668 236 m 363 -125 b 264 -224 363 -181 319 -224 b 165 -125 208 -224 165 -181 b 264 -26 165 -69 208 -26 b 363 -125 319 -26 363 -69 m 668 -125 b 569 -224 668 -181 625 -224 b 471 -125 514 -224 471 -181 b 569 -26 471 -69 514 -26 b 668 -125 625 -26 668 -69 "},"⢵":{"ha":833,"x_min":0,"x_max":0,"o":"m 363 792 b 264 693 363 736 319 693 b 165 792 208 693 165 736 b 264 890 165 847 208 890 b 363 792 319 890 363 847 m 363 181 b 264 82 363 125 319 82 b 165 181 208 82 165 125 b 264 279 165 236 208 279 b 363 181 319 279 363 236 m 668 486 b 569 388 668 431 625 388 b 471 486 514 388 471 431 b 569 585 471 542 514 585 b 668 486 625 585 668 542 m 668 181 b 569 82 668 125 625 82 b 471 181 514 82 471 125 b 569 279 471 236 514 279 b 668 181 625 279 668 236 m 668 -125 b 569 -224 668 -181 625 -224 b 471 -125 514 -224 471 -181 b 569 -26 471 -69 514 -26 b 668 -125 625 -26 668 -69 "},"⡕":{"ha":833,"x_min":0,"x_max":0,"o":"m 363 792 b 264 693 363 736 319 693 b 165 792 208 693 165 736 b 264 890 165 847 208 890 b 363 792 319 890 363 847 m 363 181 b 264 82 363 125 319 82 b 165 181 208 82 165 125 b 264 279 165 236 208 279 b 363 181 319 279 363 236 m 668 486 b 569 388 668 431 625 388 b 471 486 514 388 471 431 b 569 585 471 542 514 585 b 668 486 625 585 668 542 m 363 -125 b 264 -224 363 -181 319 -224 b 165 -125 208 -224 165 -181 b 264 -26 165 -69 208 -26 b 363 -125 319 -26 363 -69 "},"⣕":{"ha":833,"x_min":0,"x_max":0,"o":"m 363 792 b 264 693 363 736 319 693 b 165 792 208 693 165 736 b 264 890 165 847 208 890 b 363 792 319 890 363 847 m 363 181 b 264 82 363 125 319 82 b 165 181 208 82 165 125 b 264 279 165 236 208 279 b 363 181 319 279 363 236 m 668 486 b 569 388 668 431 625 388 b 471 486 514 388 471 431 b 569 585 471 542 514 585 b 668 486 625 585 668 542 m 363 -125 b 264 -224 363 -181 319 -224 b 165 -125 208 -224 165 -181 b 264 -26 165 -69 208 -26 b 363 -125 319 -26 363 -69 m 668 -125 b 569 -224 668 -181 625 -224 b 471 -125 514 -224 471 -181 b 569 -26 471 -69 514 -26 b 668 -125 625 -26 668 -69 "},"⢕":{"ha":833,"x_min":0,"x_max":0,"o":"m 363 792 b 264 693 363 736 319 693 b 165 792 208 693 165 736 b 264 890 165 847 208 890 b 363 792 319 890 363 847 m 363 181 b 264 82 363 125 319 82 b 165 181 208 82 165 125 b 264 279 165 236 208 279 b 363 181 319 279 363 236 m 668 486 b 569 388 668 431 625 388 b 471 486 514 388 471 431 b 569 585 471 542 514 585 b 668 486 625 585 668 542 m 668 -125 b 569 -224 668 -181 625 -224 b 471 -125 514 -224 471 -181 b 569 -26 471 -69 514 -26 b 668 -125 625 -26 668 -69 "},"⠥":{"ha":833,"x_min":0,"x_max":0,"o":"m 363 792 b 264 693 363 736 319 693 b 165 792 208 693 165 736 b 264 890 165 847 208 890 b 363 792 319 890 363 847 m 363 181 b 264 82 363 125 319 82 b 165 181 208 82 165 125 b 264 279 165 236 208 279 b 363 181 319 279 363 236 m 668 181 b 569 82 668 125 625 82 b 471 181 514 82 471 125 b 569 279 471 236 514 279 b 668 181 625 279 668 236 "},"⡥":{"ha":833,"x_min":0,"x_max":0,"o":"m 363 792 b 264 693 363 736 319 693 b 165 792 208 693 165 736 b 264 890 165 847 208 890 b 363 792 319 890 363 847 m 363 181 b 264 82 363 125 319 82 b 165 181 208 82 165 125 b 264 279 165 236 208 279 b 363 181 319 279 363 236 m 668 181 b 569 82 668 125 625 82 b 471 181 514 82 471 125 b 569 279 471 236 514 279 b 668 181 625 279 668 236 m 363 -125 b 264 -224 363 -181 319 -224 b 165 -125 208 -224 165 -181 b 264 -26 165 -69 208 -26 b 363 -125 319 -26 363 -69 "},"⣥":{"ha":833,"x_min":0,"x_max":0,"o":"m 363 792 b 264 693 363 736 319 693 b 165 792 208 693 165 736 b 264 890 165 847 208 890 b 363 792 319 890 363 847 m 363 181 b 264 82 363 125 319 82 b 165 181 208 82 165 125 b 264 279 165 236 208 279 b 363 181 319 279 363 236 m 668 181 b 569 82 668 125 625 82 b 471 181 514 82 471 125 b 569 279 471 236 514 279 b 668 181 625 279 668 236 m 363 -125 b 264 -224 363 -181 319 -224 b 165 -125 208 -224 165 -181 b 264 -26 165 -69 208 -26 b 363 -125 319 -26 363 -69 m 668 -125 b 569 -224 668 -181 625 -224 b 471 -125 514 -224 471 -181 b 569 -26 471 -69 514 -26 b 668 -125 625 -26 668 -69 "},"⢥":{"ha":833,"x_min":0,"x_max":0,"o":"m 363 792 b 264 693 363 736 319 693 b 165 792 208 693 165 736 b 264 890 165 847 208 890 b 363 792 319 890 363 847 m 363 181 b 264 82 363 125 319 82 b 165 181 208 82 165 125 b 264 279 165 236 208 279 b 363 181 319 279 363 236 m 668 181 b 569 82 668 125 625 82 b 471 181 514 82 471 125 b 569 279 471 236 514 279 b 668 181 625 279 668 236 m 668 -125 b 569 -224 668 -181 625 -224 b 471 -125 514 -224 471 -181 b 569 -26 471 -69 514 -26 b 668 -125 625 -26 668 -69 "},"⡅":{"ha":833,"x_min":0,"x_max":0,"o":"m 363 792 b 264 693 363 736 319 693 b 165 792 208 693 165 736 b 264 890 165 847 208 890 b 363 792 319 890 363 847 m 363 181 b 264 82 363 125 319 82 b 165 181 208 82 165 125 b 264 279 165 236 208 279 b 363 181 319 279 363 236 m 363 -125 b 264 -224 363 -181 319 -224 b 165 -125 208 -224 165 -181 b 264 -26 165 -69 208 -26 b 363 -125 319 -26 363 -69 "},"⣅":{"ha":833,"x_min":0,"x_max":0,"o":"m 363 792 b 264 693 363 736 319 693 b 165 792 208 693 165 736 b 264 890 165 847 208 890 b 363 792 319 890 363 847 m 363 181 b 264 82 363 125 319 82 b 165 181 208 82 165 125 b 264 279 165 236 208 279 b 363 181 319 279 363 236 m 363 -125 b 264 -224 363 -181 319 -224 b 165 -125 208 -224 165 -181 b 264 -26 165 -69 208 -26 b 363 -125 319 -26 363 -69 m 668 -125 b 569 -224 668 -181 625 -224 b 471 -125 514 -224 471 -181 b 569 -26 471 -69 514 -26 b 668 -125 625 -26 668 -69 "},"⢅":{"ha":833,"x_min":0,"x_max":0,"o":"m 363 792 b 264 693 363 736 319 693 b 165 792 208 693 165 736 b 264 890 165 847 208 890 b 363 792 319 890 363 847 m 363 181 b 264 82 363 125 319 82 b 165 181 208 82 165 125 b 264 279 165 236 208 279 b 363 181 319 279 363 236 m 668 -125 b 569 -224 668 -181 625 -224 b 471 -125 514 -224 471 -181 b 569 -26 471 -69 514 -26 b 668 -125 625 -26 668 -69 "},"⠉":{"ha":833,"x_min":0,"x_max":0,"o":"m 363 792 b 264 693 363 736 319 693 b 165 792 208 693 165 736 b 264 890 165 847 208 890 b 363 792 319 890 363 847 m 668 792 b 569 693 668 736 625 693 b 471 792 514 693 471 736 b 569 890 471 847 514 890 b 668 792 625 890 668 847 "},"⠙":{"ha":833,"x_min":0,"x_max":0,"o":"m 363 792 b 264 693 363 736 319 693 b 165 792 208 693 165 736 b 264 890 165 847 208 890 b 363 792 319 890 363 847 m 668 792 b 569 693 668 736 625 693 b 471 792 514 693 471 736 b 569 890 471 847 514 890 b 668 792 625 890 668 847 m 668 486 b 569 388 668 431 625 388 b 471 486 514 388 471 431 b 569 585 471 542 514 585 b 668 486 625 585 668 542 "},"⠹":{"ha":833,"x_min":0,"x_max":0,"o":"m 363 792 b 264 693 363 736 319 693 b 165 792 208 693 165 736 b 264 890 165 847 208 890 b 363 792 319 890 363 847 m 668 792 b 569 693 668 736 625 693 b 471 792 514 693 471 736 b 569 890 471 847 514 890 b 668 792 625 890 668 847 m 668 486 b 569 388 668 431 625 388 b 471 486 514 388 471 431 b 569 585 471 542 514 585 b 668 486 625 585 668 542 m 668 181 b 569 82 668 125 625 82 b 471 181 514 82 471 125 b 569 279 471 236 514 279 b 668 181 625 279 668 236 "},"⡹":{"ha":833,"x_min":0,"x_max":0,"o":"m 363 792 b 264 693 363 736 319 693 b 165 792 208 693 165 736 b 264 890 165 847 208 890 b 363 792 319 890 363 847 m 668 792 b 569 693 668 736 625 693 b 471 792 514 693 471 736 b 569 890 471 847 514 890 b 668 792 625 890 668 847 m 668 486 b 569 388 668 431 625 388 b 471 486 514 388 471 431 b 569 585 471 542 514 585 b 668 486 625 585 668 542 m 668 181 b 569 82 668 125 625 82 b 471 181 514 82 471 125 b 569 279 471 236 514 279 b 668 181 625 279 668 236 m 363 -125 b 264 -224 363 -181 319 -224 b 165 -125 208 -224 165 -181 b 264 -26 165 -69 208 -26 b 363 -125 319 -26 363 -69 "},"⣹":{"ha":833,"x_min":0,"x_max":0,"o":"m 363 792 b 264 693 363 736 319 693 b 165 792 208 693 165 736 b 264 890 165 847 208 890 b 363 792 319 890 363 847 m 668 792 b 569 693 668 736 625 693 b 471 792 514 693 471 736 b 569 890 471 847 514 890 b 668 792 625 890 668 847 m 668 486 b 569 388 668 431 625 388 b 471 486 514 388 471 431 b 569 585 471 542 514 585 b 668 486 625 585 668 542 m 668 181 b 569 82 668 125 625 82 b 471 181 514 82 471 125 b 569 279 471 236 514 279 b 668 181 625 279 668 236 m 363 -125 b 264 -224 363 -181 319 -224 b 165 -125 208 -224 165 -181 b 264 -26 165 -69 208 -26 b 363 -125 319 -26 363 -69 m 668 -125 b 569 -224 668 -181 625 -224 b 471 -125 514 -224 471 -181 b 569 -26 471 -69 514 -26 b 668 -125 625 -26 668 -69 "},"⢹":{"ha":833,"x_min":0,"x_max":0,"o":"m 363 792 b 264 693 363 736 319 693 b 165 792 208 693 165 736 b 264 890 165 847 208 890 b 363 792 319 890 363 847 m 668 792 b 569 693 668 736 625 693 b 471 792 514 693 471 736 b 569 890 471 847 514 890 b 668 792 625 890 668 847 m 668 486 b 569 388 668 431 625 388 b 471 486 514 388 471 431 b 569 585 471 542 514 585 b 668 486 625 585 668 542 m 668 181 b 569 82 668 125 625 82 b 471 181 514 82 471 125 b 569 279 471 236 514 279 b 668 181 625 279 668 236 m 668 -125 b 569 -224 668 -181 625 -224 b 471 -125 514 -224 471 -181 b 569 -26 471 -69 514 -26 b 668 -125 625 -26 668 -69 "},"⡙":{"ha":833,"x_min":0,"x_max":0,"o":"m 363 792 b 264 693 363 736 319 693 b 165 792 208 693 165 736 b 264 890 165 847 208 890 b 363 792 319 890 363 847 m 668 792 b 569 693 668 736 625 693 b 471 792 514 693 471 736 b 569 890 471 847 514 890 b 668 792 625 890 668 847 m 668 486 b 569 388 668 431 625 388 b 471 486 514 388 471 431 b 569 585 471 542 514 585 b 668 486 625 585 668 542 m 363 -125 b 264 -224 363 -181 319 -224 b 165 -125 208 -224 165 -181 b 264 -26 165 -69 208 -26 b 363 -125 319 -26 363 -69 "},"⣙":{"ha":833,"x_min":0,"x_max":0,"o":"m 363 792 b 264 693 363 736 319 693 b 165 792 208 693 165 736 b 264 890 165 847 208 890 b 363 792 319 890 363 847 m 668 792 b 569 693 668 736 625 693 b 471 792 514 693 471 736 b 569 890 471 847 514 890 b 668 792 625 890 668 847 m 668 486 b 569 388 668 431 625 388 b 471 486 514 388 471 431 b 569 585 471 542 514 585 b 668 486 625 585 668 542 m 363 -125 b 264 -224 363 -181 319 -224 b 165 -125 208 -224 165 -181 b 264 -26 165 -69 208 -26 b 363 -125 319 -26 363 -69 m 668 -125 b 569 -224 668 -181 625 -224 b 471 -125 514 -224 471 -181 b 569 -26 471 -69 514 -26 b 668 -125 625 -26 668 -69 "},"⢙":{"ha":833,"x_min":0,"x_max":0,"o":"m 363 792 b 264 693 363 736 319 693 b 165 792 208 693 165 736 b 264 890 165 847 208 890 b 363 792 319 890 363 847 m 668 792 b 569 693 668 736 625 693 b 471 792 514 693 471 736 b 569 890 471 847 514 890 b 668 792 625 890 668 847 m 668 486 b 569 388 668 431 625 388 b 471 486 514 388 471 431 b 569 585 471 542 514 585 b 668 486 625 585 668 542 m 668 -125 b 569 -224 668 -181 625 -224 b 471 -125 514 -224 471 -181 b 569 -26 471 -69 514 -26 b 668 -125 625 -26 668 -69 "},"⠩":{"ha":833,"x_min":0,"x_max":0,"o":"m 363 792 b 264 693 363 736 319 693 b 165 792 208 693 165 736 b 264 890 165 847 208 890 b 363 792 319 890 363 847 m 668 792 b 569 693 668 736 625 693 b 471 792 514 693 471 736 b 569 890 471 847 514 890 b 668 792 625 890 668 847 m 668 181 b 569 82 668 125 625 82 b 471 181 514 82 471 125 b 569 279 471 236 514 279 b 668 181 625 279 668 236 "},"⡩":{"ha":833,"x_min":0,"x_max":0,"o":"m 363 792 b 264 693 363 736 319 693 b 165 792 208 693 165 736 b 264 890 165 847 208 890 b 363 792 319 890 363 847 m 668 792 b 569 693 668 736 625 693 b 471 792 514 693 471 736 b 569 890 471 847 514 890 b 668 792 625 890 668 847 m 668 181 b 569 82 668 125 625 82 b 471 181 514 82 471 125 b 569 279 471 236 514 279 b 668 181 625 279 668 236 m 363 -125 b 264 -224 363 -181 319 -224 b 165 -125 208 -224 165 -181 b 264 -26 165 -69 208 -26 b 363 -125 319 -26 363 -69 "},"⣩":{"ha":833,"x_min":0,"x_max":0,"o":"m 363 792 b 264 693 363 736 319 693 b 165 792 208 693 165 736 b 264 890 165 847 208 890 b 363 792 319 890 363 847 m 668 792 b 569 693 668 736 625 693 b 471 792 514 693 471 736 b 569 890 471 847 514 890 b 668 792 625 890 668 847 m 668 181 b 569 82 668 125 625 82 b 471 181 514 82 471 125 b 569 279 471 236 514 279 b 668 181 625 279 668 236 m 363 -125 b 264 -224 363 -181 319 -224 b 165 -125 208 -224 165 -181 b 264 -26 165 -69 208 -26 b 363 -125 319 -26 363 -69 m 668 -125 b 569 -224 668 -181 625 -224 b 471 -125 514 -224 471 -181 b 569 -26 471 -69 514 -26 b 668 -125 625 -26 668 -69 "},"⢩":{"ha":833,"x_min":0,"x_max":0,"o":"m 363 792 b 264 693 363 736 319 693 b 165 792 208 693 165 736 b 264 890 165 847 208 890 b 363 792 319 890 363 847 m 668 792 b 569 693 668 736 625 693 b 471 792 514 693 471 736 b 569 890 471 847 514 890 b 668 792 625 890 668 847 m 668 181 b 569 82 668 125 625 82 b 471 181 514 82 471 125 b 569 279 471 236 514 279 b 668 181 625 279 668 236 m 668 -125 b 569 -224 668 -181 625 -224 b 471 -125 514 -224 471 -181 b 569 -26 471 -69 514 -26 b 668 -125 625 -26 668 -69 "},"⡉":{"ha":833,"x_min":0,"x_max":0,"o":"m 363 792 b 264 693 363 736 319 693 b 165 792 208 693 165 736 b 264 890 165 847 208 890 b 363 792 319 890 363 847 m 668 792 b 569 693 668 736 625 693 b 471 792 514 693 471 736 b 569 890 471 847 514 890 b 668 792 625 890 668 847 m 363 -125 b 264 -224 363 -181 319 -224 b 165 -125 208 -224 165 -181 b 264 -26 165 -69 208 -26 b 363 -125 319 -26 363 -69 "},"⣉":{"ha":833,"x_min":0,"x_max":0,"o":"m 363 792 b 264 693 363 736 319 693 b 165 792 208 693 165 736 b 264 890 165 847 208 890 b 363 792 319 890 363 847 m 668 792 b 569 693 668 736 625 693 b 471 792 514 693 471 736 b 569 890 471 847 514 890 b 668 792 625 890 668 847 m 363 -125 b 264 -224 363 -181 319 -224 b 165 -125 208 -224 165 -181 b 264 -26 165 -69 208 -26 b 363 -125 319 -26 363 -69 m 668 -125 b 569 -224 668 -181 625 -224 b 471 -125 514 -224 471 -181 b 569 -26 471 -69 514 -26 b 668 -125 625 -26 668 -69 "},"⢉":{"ha":833,"x_min":0,"x_max":0,"o":"m 363 792 b 264 693 363 736 319 693 b 165 792 208 693 165 736 b 264 890 165 847 208 890 b 363 792 319 890 363 847 m 668 792 b 569 693 668 736 625 693 b 471 792 514 693 471 736 b 569 890 471 847 514 890 b 668 792 625 890 668 847 m 668 -125 b 569 -224 668 -181 625 -224 b 471 -125 514 -224 471 -181 b 569 -26 471 -69 514 -26 b 668 -125 625 -26 668 -69 "},"⠑":{"ha":833,"x_min":0,"x_max":0,"o":"m 363 792 b 264 693 363 736 319 693 b 165 792 208 693 165 736 b 264 890 165 847 208 890 b 363 792 319 890 363 847 m 668 486 b 569 388 668 431 625 388 b 471 486 514 388 471 431 b 569 585 471 542 514 585 b 668 486 625 585 668 542 "},"⠱":{"ha":833,"x_min":0,"x_max":0,"o":"m 363 792 b 264 693 363 736 319 693 b 165 792 208 693 165 736 b 264 890 165 847 208 890 b 363 792 319 890 363 847 m 668 486 b 569 388 668 431 625 388 b 471 486 514 388 471 431 b 569 585 471 542 514 585 b 668 486 625 585 668 542 m 668 181 b 569 82 668 125 625 82 b 471 181 514 82 471 125 b 569 279 471 236 514 279 b 668 181 625 279 668 236 "},"⡱":{"ha":833,"x_min":0,"x_max":0,"o":"m 363 792 b 264 693 363 736 319 693 b 165 792 208 693 165 736 b 264 890 165 847 208 890 b 363 792 319 890 363 847 m 668 486 b 569 388 668 431 625 388 b 471 486 514 388 471 431 b 569 585 471 542 514 585 b 668 486 625 585 668 542 m 668 181 b 569 82 668 125 625 82 b 471 181 514 82 471 125 b 569 279 471 236 514 279 b 668 181 625 279 668 236 m 363 -125 b 264 -224 363 -181 319 -224 b 165 -125 208 -224 165 -181 b 264 -26 165 -69 208 -26 b 363 -125 319 -26 363 -69 "},"⣱":{"ha":833,"x_min":0,"x_max":0,"o":"m 363 792 b 264 693 363 736 319 693 b 165 792 208 693 165 736 b 264 890 165 847 208 890 b 363 792 319 890 363 847 m 668 486 b 569 388 668 431 625 388 b 471 486 514 388 471 431 b 569 585 471 542 514 585 b 668 486 625 585 668 542 m 668 181 b 569 82 668 125 625 82 b 471 181 514 82 471 125 b 569 279 471 236 514 279 b 668 181 625 279 668 236 m 363 -125 b 264 -224 363 -181 319 -224 b 165 -125 208 -224 165 -181 b 264 -26 165 -69 208 -26 b 363 -125 319 -26 363 -69 m 668 -125 b 569 -224 668 -181 625 -224 b 471 -125 514 -224 471 -181 b 569 -26 471 -69 514 -26 b 668 -125 625 -26 668 -69 "},"⢱":{"ha":833,"x_min":0,"x_max":0,"o":"m 363 792 b 264 693 363 736 319 693 b 165 792 208 693 165 736 b 264 890 165 847 208 890 b 363 792 319 890 363 847 m 668 486 b 569 388 668 431 625 388 b 471 486 514 388 471 431 b 569 585 471 542 514 585 b 668 486 625 585 668 542 m 668 181 b 569 82 668 125 625 82 b 471 181 514 82 471 125 b 569 279 471 236 514 279 b 668 181 625 279 668 236 m 668 -125 b 569 -224 668 -181 625 -224 b 471 -125 514 -224 471 -181 b 569 -26 471 -69 514 -26 b 668 -125 625 -26 668 -69 "},"⡑":{"ha":833,"x_min":0,"x_max":0,"o":"m 363 792 b 264 693 363 736 319 693 b 165 792 208 693 165 736 b 264 890 165 847 208 890 b 363 792 319 890 363 847 m 668 486 b 569 388 668 431 625 388 b 471 486 514 388 471 431 b 569 585 471 542 514 585 b 668 486 625 585 668 542 m 363 -125 b 264 -224 363 -181 319 -224 b 165 -125 208 -224 165 -181 b 264 -26 165 -69 208 -26 b 363 -125 319 -26 363 -69 "},"⣑":{"ha":833,"x_min":0,"x_max":0,"o":"m 363 792 b 264 693 363 736 319 693 b 165 792 208 693 165 736 b 264 890 165 847 208 890 b 363 792 319 890 363 847 m 668 486 b 569 388 668 431 625 388 b 471 486 514 388 471 431 b 569 585 471 542 514 585 b 668 486 625 585 668 542 m 363 -125 b 264 -224 363 -181 319 -224 b 165 -125 208 -224 165 -181 b 264 -26 165 -69 208 -26 b 363 -125 319 -26 363 -69 m 668 -125 b 569 -224 668 -181 625 -224 b 471 -125 514 -224 471 -181 b 569 -26 471 -69 514 -26 b 668 -125 625 -26 668 -69 "},"⢑":{"ha":833,"x_min":0,"x_max":0,"o":"m 363 792 b 264 693 363 736 319 693 b 165 792 208 693 165 736 b 264 890 165 847 208 890 b 363 792 319 890 363 847 m 668 486 b 569 388 668 431 625 388 b 471 486 514 388 471 431 b 569 585 471 542 514 585 b 668 486 625 585 668 542 m 668 -125 b 569 -224 668 -181 625 -224 b 471 -125 514 -224 471 -181 b 569 -26 471 -69 514 -26 b 668 -125 625 -26 668 -69 "},"⠡":{"ha":833,"x_min":0,"x_max":0,"o":"m 363 792 b 264 693 363 736 319 693 b 165 792 208 693 165 736 b 264 890 165 847 208 890 b 363 792 319 890 363 847 m 668 181 b 569 82 668 125 625 82 b 471 181 514 82 471 125 b 569 279 471 236 514 279 b 668 181 625 279 668 236 "},"⡡":{"ha":833,"x_min":0,"x_max":0,"o":"m 363 792 b 264 693 363 736 319 693 b 165 792 208 693 165 736 b 264 890 165 847 208 890 b 363 792 319 890 363 847 m 668 181 b 569 82 668 125 625 82 b 471 181 514 82 471 125 b 569 279 471 236 514 279 b 668 181 625 279 668 236 m 363 -125 b 264 -224 363 -181 319 -224 b 165 -125 208 -224 165 -181 b 264 -26 165 -69 208 -26 b 363 -125 319 -26 363 -69 "},"⣡":{"ha":833,"x_min":0,"x_max":0,"o":"m 363 792 b 264 693 363 736 319 693 b 165 792 208 693 165 736 b 264 890 165 847 208 890 b 363 792 319 890 363 847 m 668 181 b 569 82 668 125 625 82 b 471 181 514 82 471 125 b 569 279 471 236 514 279 b 668 181 625 279 668 236 m 363 -125 b 264 -224 363 -181 319 -224 b 165 -125 208 -224 165 -181 b 264 -26 165 -69 208 -26 b 363 -125 319 -26 363 -69 m 668 -125 b 569 -224 668 -181 625 -224 b 471 -125 514 -224 471 -181 b 569 -26 471 -69 514 -26 b 668 -125 625 -26 668 -69 "},"⢡":{"ha":833,"x_min":0,"x_max":0,"o":"m 363 792 b 264 693 363 736 319 693 b 165 792 208 693 165 736 b 264 890 165 847 208 890 b 363 792 319 890 363 847 m 668 181 b 569 82 668 125 625 82 b 471 181 514 82 471 125 b 569 279 471 236 514 279 b 668 181 625 279 668 236 m 668 -125 b 569 -224 668 -181 625 -224 b 471 -125 514 -224 471 -181 b 569 -26 471 -69 514 -26 b 668 -125 625 -26 668 -69 "},"⡁":{"ha":833,"x_min":0,"x_max":0,"o":"m 363 792 b 264 693 363 736 319 693 b 165 792 208 693 165 736 b 264 890 165 847 208 890 b 363 792 319 890 363 847 m 363 -125 b 264 -224 363 -181 319 -224 b 165 -125 208 -224 165 -181 b 264 -26 165 -69 208 -26 b 363 -125 319 -26 363 -69 "},"⣁":{"ha":833,"x_min":0,"x_max":0,"o":"m 363 792 b 264 693 363 736 319 693 b 165 792 208 693 165 736 b 264 890 165 847 208 890 b 363 792 319 890 363 847 m 363 -125 b 264 -224 363 -181 319 -224 b 165 -125 208 -224 165 -181 b 264 -26 165 -69 208 -26 b 363 -125 319 -26 363 -69 m 668 -125 b 569 -224 668 -181 625 -224 b 471 -125 514 -224 471 -181 b 569 -26 471 -69 514 -26 b 668 -125 625 -26 668 -69 "},"⢁":{"ha":833,"x_min":0,"x_max":0,"o":"m 363 792 b 264 693 363 736 319 693 b 165 792 208 693 165 736 b 264 890 165 847 208 890 b 363 792 319 890 363 847 m 668 -125 b 569 -224 668 -181 625 -224 b 471 -125 514 -224 471 -181 b 569 -26 471 -69 514 -26 b 668 -125 625 -26 668 -69 "},"⠂":{"ha":833,"x_min":0,"x_max":0,"o":"m 363 486 b 264 388 363 431 319 388 b 165 486 208 388 165 431 b 264 585 165 542 208 585 b 363 486 319 585 363 542 "},"⠆":{"ha":833,"x_min":0,"x_max":0,"o":"m 363 486 b 264 388 363 431 319 388 b 165 486 208 388 165 431 b 264 585 165 542 208 585 b 363 486 319 585 363 542 m 363 181 b 264 82 363 125 319 82 b 165 181 208 82 165 125 b 264 279 165 236 208 279 b 363 181 319 279 363 236 "},"⠎":{"ha":833,"x_min":0,"x_max":0,"o":"m 363 486 b 264 388 363 431 319 388 b 165 486 208 388 165 431 b 264 585 165 542 208 585 b 363 486 319 585 363 542 m 363 181 b 264 82 363 125 319 82 b 165 181 208 82 165 125 b 264 279 165 236 208 279 b 363 181 319 279 363 236 m 668 792 b 569 693 668 736 625 693 b 471 792 514 693 471 736 b 569 890 471 847 514 890 b 668 792 625 890 668 847 "},"⠞":{"ha":833,"x_min":0,"x_max":0,"o":"m 363 486 b 264 388 363 431 319 388 b 165 486 208 388 165 431 b 264 585 165 542 208 585 b 363 486 319 585 363 542 m 363 181 b 264 82 363 125 319 82 b 165 181 208 82 165 125 b 264 279 165 236 208 279 b 363 181 319 279 363 236 m 668 792 b 569 693 668 736 625 693 b 471 792 514 693 471 736 b 569 890 471 847 514 890 b 668 792 625 890 668 847 m 668 486 b 569 388 668 431 625 388 b 471 486 514 388 471 431 b 569 585 471 542 514 585 b 668 486 625 585 668 542 "},"⠾":{"ha":833,"x_min":0,"x_max":0,"o":"m 363 486 b 264 388 363 431 319 388 b 165 486 208 388 165 431 b 264 585 165 542 208 585 b 363 486 319 585 363 542 m 363 181 b 264 82 363 125 319 82 b 165 181 208 82 165 125 b 264 279 165 236 208 279 b 363 181 319 279 363 236 m 668 792 b 569 693 668 736 625 693 b 471 792 514 693 471 736 b 569 890 471 847 514 890 b 668 792 625 890 668 847 m 668 486 b 569 388 668 431 625 388 b 471 486 514 388 471 431 b 569 585 471 542 514 585 b 668 486 625 585 668 542 m 668 181 b 569 82 668 125 625 82 b 471 181 514 82 471 125 b 569 279 471 236 514 279 b 668 181 625 279 668 236 "},"⡾":{"ha":833,"x_min":0,"x_max":0,"o":"m 363 486 b 264 388 363 431 319 388 b 165 486 208 388 165 431 b 264 585 165 542 208 585 b 363 486 319 585 363 542 m 363 181 b 264 82 363 125 319 82 b 165 181 208 82 165 125 b 264 279 165 236 208 279 b 363 181 319 279 363 236 m 668 792 b 569 693 668 736 625 693 b 471 792 514 693 471 736 b 569 890 471 847 514 890 b 668 792 625 890 668 847 m 668 486 b 569 388 668 431 625 388 b 471 486 514 388 471 431 b 569 585 471 542 514 585 b 668 486 625 585 668 542 m 668 181 b 569 82 668 125 625 82 b 471 181 514 82 471 125 b 569 279 471 236 514 279 b 668 181 625 279 668 236 m 363 -125 b 264 -224 363 -181 319 -224 b 165 -125 208 -224 165 -181 b 264 -26 165 -69 208 -26 b 363 -125 319 -26 363 -69 "},"⣾":{"ha":833,"x_min":0,"x_max":0,"o":"m 363 486 b 264 388 363 431 319 388 b 165 486 208 388 165 431 b 264 585 165 542 208 585 b 363 486 319 585 363 542 m 363 181 b 264 82 363 125 319 82 b 165 181 208 82 165 125 b 264 279 165 236 208 279 b 363 181 319 279 363 236 m 668 792 b 569 693 668 736 625 693 b 471 792 514 693 471 736 b 569 890 471 847 514 890 b 668 792 625 890 668 847 m 668 486 b 569 388 668 431 625 388 b 471 486 514 388 471 431 b 569 585 471 542 514 585 b 668 486 625 585 668 542 m 668 181 b 569 82 668 125 625 82 b 471 181 514 82 471 125 b 569 279 471 236 514 279 b 668 181 625 279 668 236 m 363 -125 b 264 -224 363 -181 319 -224 b 165 -125 208 -224 165 -181 b 264 -26 165 -69 208 -26 b 363 -125 319 -26 363 -69 m 668 -125 b 569 -224 668 -181 625 -224 b 471 -125 514 -224 471 -181 b 569 -26 471 -69 514 -26 b 668 -125 625 -26 668 -69 "},"⢾":{"ha":833,"x_min":0,"x_max":0,"o":"m 363 486 b 264 388 363 431 319 388 b 165 486 208 388 165 431 b 264 585 165 542 208 585 b 363 486 319 585 363 542 m 363 181 b 264 82 363 125 319 82 b 165 181 208 82 165 125 b 264 279 165 236 208 279 b 363 181 319 279 363 236 m 668 792 b 569 693 668 736 625 693 b 471 792 514 693 471 736 b 569 890 471 847 514 890 b 668 792 625 890 668 847 m 668 486 b 569 388 668 431 625 388 b 471 486 514 388 471 431 b 569 585 471 542 514 585 b 668 486 625 585 668 542 m 668 181 b 569 82 668 125 625 82 b 471 181 514 82 471 125 b 569 279 471 236 514 279 b 668 181 625 279 668 236 m 668 -125 b 569 -224 668 -181 625 -224 b 471 -125 514 -224 471 -181 b 569 -26 471 -69 514 -26 b 668 -125 625 -26 668 -69 "},"⡞":{"ha":833,"x_min":0,"x_max":0,"o":"m 363 486 b 264 388 363 431 319 388 b 165 486 208 388 165 431 b 264 585 165 542 208 585 b 363 486 319 585 363 542 m 363 181 b 264 82 363 125 319 82 b 165 181 208 82 165 125 b 264 279 165 236 208 279 b 363 181 319 279 363 236 m 668 792 b 569 693 668 736 625 693 b 471 792 514 693 471 736 b 569 890 471 847 514 890 b 668 792 625 890 668 847 m 668 486 b 569 388 668 431 625 388 b 471 486 514 388 471 431 b 569 585 471 542 514 585 b 668 486 625 585 668 542 m 363 -125 b 264 -224 363 -181 319 -224 b 165 -125 208 -224 165 -181 b 264 -26 165 -69 208 -26 b 363 -125 319 -26 363 -69 "},"⣞":{"ha":833,"x_min":0,"x_max":0,"o":"m 363 486 b 264 388 363 431 319 388 b 165 486 208 388 165 431 b 264 585 165 542 208 585 b 363 486 319 585 363 542 m 363 181 b 264 82 363 125 319 82 b 165 181 208 82 165 125 b 264 279 165 236 208 279 b 363 181 319 279 363 236 m 668 792 b 569 693 668 736 625 693 b 471 792 514 693 471 736 b 569 890 471 847 514 890 b 668 792 625 890 668 847 m 668 486 b 569 388 668 431 625 388 b 471 486 514 388 471 431 b 569 585 471 542 514 585 b 668 486 625 585 668 542 m 363 -125 b 264 -224 363 -181 319 -224 b 165 -125 208 -224 165 -181 b 264 -26 165 -69 208 -26 b 363 -125 319 -26 363 -69 m 668 -125 b 569 -224 668 -181 625 -224 b 471 -125 514 -224 471 -181 b 569 -26 471 -69 514 -26 b 668 -125 625 -26 668 -69 "},"⢞":{"ha":833,"x_min":0,"x_max":0,"o":"m 363 486 b 264 388 363 431 319 388 b 165 486 208 388 165 431 b 264 585 165 542 208 585 b 363 486 319 585 363 542 m 363 181 b 264 82 363 125 319 82 b 165 181 208 82 165 125 b 264 279 165 236 208 279 b 363 181 319 279 363 236 m 668 792 b 569 693 668 736 625 693 b 471 792 514 693 471 736 b 569 890 471 847 514 890 b 668 792 625 890 668 847 m 668 486 b 569 388 668 431 625 388 b 471 486 514 388 471 431 b 569 585 471 542 514 585 b 668 486 625 585 668 542 m 668 -125 b 569 -224 668 -181 625 -224 b 471 -125 514 -224 471 -181 b 569 -26 471 -69 514 -26 b 668 -125 625 -26 668 -69 "},"⠮":{"ha":833,"x_min":0,"x_max":0,"o":"m 363 486 b 264 388 363 431 319 388 b 165 486 208 388 165 431 b 264 585 165 542 208 585 b 363 486 319 585 363 542 m 363 181 b 264 82 363 125 319 82 b 165 181 208 82 165 125 b 264 279 165 236 208 279 b 363 181 319 279 363 236 m 668 792 b 569 693 668 736 625 693 b 471 792 514 693 471 736 b 569 890 471 847 514 890 b 668 792 625 890 668 847 m 668 181 b 569 82 668 125 625 82 b 471 181 514 82 471 125 b 569 279 471 236 514 279 b 668 181 625 279 668 236 "},"⡮":{"ha":833,"x_min":0,"x_max":0,"o":"m 363 486 b 264 388 363 431 319 388 b 165 486 208 388 165 431 b 264 585 165 542 208 585 b 363 486 319 585 363 542 m 363 181 b 264 82 363 125 319 82 b 165 181 208 82 165 125 b 264 279 165 236 208 279 b 363 181 319 279 363 236 m 668 792 b 569 693 668 736 625 693 b 471 792 514 693 471 736 b 569 890 471 847 514 890 b 668 792 625 890 668 847 m 668 181 b 569 82 668 125 625 82 b 471 181 514 82 471 125 b 569 279 471 236 514 279 b 668 181 625 279 668 236 m 363 -125 b 264 -224 363 -181 319 -224 b 165 -125 208 -224 165 -181 b 264 -26 165 -69 208 -26 b 363 -125 319 -26 363 -69 "},"⣮":{"ha":833,"x_min":0,"x_max":0,"o":"m 363 486 b 264 388 363 431 319 388 b 165 486 208 388 165 431 b 264 585 165 542 208 585 b 363 486 319 585 363 542 m 363 181 b 264 82 363 125 319 82 b 165 181 208 82 165 125 b 264 279 165 236 208 279 b 363 181 319 279 363 236 m 668 792 b 569 693 668 736 625 693 b 471 792 514 693 471 736 b 569 890 471 847 514 890 b 668 792 625 890 668 847 m 668 181 b 569 82 668 125 625 82 b 471 181 514 82 471 125 b 569 279 471 236 514 279 b 668 181 625 279 668 236 m 363 -125 b 264 -224 363 -181 319 -224 b 165 -125 208 -224 165 -181 b 264 -26 165 -69 208 -26 b 363 -125 319 -26 363 -69 m 668 -125 b 569 -224 668 -181 625 -224 b 471 -125 514 -224 471 -181 b 569 -26 471 -69 514 -26 b 668 -125 625 -26 668 -69 "},"⢮":{"ha":833,"x_min":0,"x_max":0,"o":"m 363 486 b 264 388 363 431 319 388 b 165 486 208 388 165 431 b 264 585 165 542 208 585 b 363 486 319 585 363 542 m 363 181 b 264 82 363 125 319 82 b 165 181 208 82 165 125 b 264 279 165 236 208 279 b 363 181 319 279 363 236 m 668 792 b 569 693 668 736 625 693 b 471 792 514 693 471 736 b 569 890 471 847 514 890 b 668 792 625 890 668 847 m 668 181 b 569 82 668 125 625 82 b 471 181 514 82 471 125 b 569 279 471 236 514 279 b 668 181 625 279 668 236 m 668 -125 b 569 -224 668 -181 625 -224 b 471 -125 514 -224 471 -181 b 569 -26 471 -69 514 -26 b 668 -125 625 -26 668 -69 "},"⡎":{"ha":833,"x_min":0,"x_max":0,"o":"m 363 486 b 264 388 363 431 319 388 b 165 486 208 388 165 431 b 264 585 165 542 208 585 b 363 486 319 585 363 542 m 363 181 b 264 82 363 125 319 82 b 165 181 208 82 165 125 b 264 279 165 236 208 279 b 363 181 319 279 363 236 m 668 792 b 569 693 668 736 625 693 b 471 792 514 693 471 736 b 569 890 471 847 514 890 b 668 792 625 890 668 847 m 363 -125 b 264 -224 363 -181 319 -224 b 165 -125 208 -224 165 -181 b 264 -26 165 -69 208 -26 b 363 -125 319 -26 363 -69 "},"⣎":{"ha":833,"x_min":0,"x_max":0,"o":"m 363 486 b 264 388 363 431 319 388 b 165 486 208 388 165 431 b 264 585 165 542 208 585 b 363 486 319 585 363 542 m 363 181 b 264 82 363 125 319 82 b 165 181 208 82 165 125 b 264 279 165 236 208 279 b 363 181 319 279 363 236 m 668 792 b 569 693 668 736 625 693 b 471 792 514 693 471 736 b 569 890 471 847 514 890 b 668 792 625 890 668 847 m 363 -125 b 264 -224 363 -181 319 -224 b 165 -125 208 -224 165 -181 b 264 -26 165 -69 208 -26 b 363 -125 319 -26 363 -69 m 668 -125 b 569 -224 668 -181 625 -224 b 471 -125 514 -224 471 -181 b 569 -26 471 -69 514 -26 b 668 -125 625 -26 668 -69 "},"⢎":{"ha":833,"x_min":0,"x_max":0,"o":"m 363 486 b 264 388 363 431 319 388 b 165 486 208 388 165 431 b 264 585 165 542 208 585 b 363 486 319 585 363 542 m 363 181 b 264 82 363 125 319 82 b 165 181 208 82 165 125 b 264 279 165 236 208 279 b 363 181 319 279 363 236 m 668 792 b 569 693 668 736 625 693 b 471 792 514 693 471 736 b 569 890 471 847 514 890 b 668 792 625 890 668 847 m 668 -125 b 569 -224 668 -181 625 -224 b 471 -125 514 -224 471 -181 b 569 -26 471 -69 514 -26 b 668 -125 625 -26 668 -69 "},"⠖":{"ha":833,"x_min":0,"x_max":0,"o":"m 363 486 b 264 388 363 431 319 388 b 165 486 208 388 165 431 b 264 585 165 542 208 585 b 363 486 319 585 363 542 m 363 181 b 264 82 363 125 319 82 b 165 181 208 82 165 125 b 264 279 165 236 208 279 b 363 181 319 279 363 236 m 668 486 b 569 388 668 431 625 388 b 471 486 514 388 471 431 b 569 585 471 542 514 585 b 668 486 625 585 668 542 "},"⠶":{"ha":833,"x_min":0,"x_max":0,"o":"m 363 486 b 264 388 363 431 319 388 b 165 486 208 388 165 431 b 264 585 165 542 208 585 b 363 486 319 585 363 542 m 363 181 b 264 82 363 125 319 82 b 165 181 208 82 165 125 b 264 279 165 236 208 279 b 363 181 319 279 363 236 m 668 486 b 569 388 668 431 625 388 b 471 486 514 388 471 431 b 569 585 471 542 514 585 b 668 486 625 585 668 542 m 668 181 b 569 82 668 125 625 82 b 471 181 514 82 471 125 b 569 279 471 236 514 279 b 668 181 625 279 668 236 "},"⡶":{"ha":833,"x_min":0,"x_max":0,"o":"m 363 486 b 264 388 363 431 319 388 b 165 486 208 388 165 431 b 264 585 165 542 208 585 b 363 486 319 585 363 542 m 363 181 b 264 82 363 125 319 82 b 165 181 208 82 165 125 b 264 279 165 236 208 279 b 363 181 319 279 363 236 m 668 486 b 569 388 668 431 625 388 b 471 486 514 388 471 431 b 569 585 471 542 514 585 b 668 486 625 585 668 542 m 668 181 b 569 82 668 125 625 82 b 471 181 514 82 471 125 b 569 279 471 236 514 279 b 668 181 625 279 668 236 m 363 -125 b 264 -224 363 -181 319 -224 b 165 -125 208 -224 165 -181 b 264 -26 165 -69 208 -26 b 363 -125 319 -26 363 -69 "},"⣶":{"ha":833,"x_min":0,"x_max":0,"o":"m 363 486 b 264 388 363 431 319 388 b 165 486 208 388 165 431 b 264 585 165 542 208 585 b 363 486 319 585 363 542 m 363 181 b 264 82 363 125 319 82 b 165 181 208 82 165 125 b 264 279 165 236 208 279 b 363 181 319 279 363 236 m 668 486 b 569 388 668 431 625 388 b 471 486 514 388 471 431 b 569 585 471 542 514 585 b 668 486 625 585 668 542 m 668 181 b 569 82 668 125 625 82 b 471 181 514 82 471 125 b 569 279 471 236 514 279 b 668 181 625 279 668 236 m 363 -125 b 264 -224 363 -181 319 -224 b 165 -125 208 -224 165 -181 b 264 -26 165 -69 208 -26 b 363 -125 319 -26 363 -69 m 668 -125 b 569 -224 668 -181 625 -224 b 471 -125 514 -224 471 -181 b 569 -26 471 -69 514 -26 b 668 -125 625 -26 668 -69 "},"⢶":{"ha":833,"x_min":0,"x_max":0,"o":"m 363 486 b 264 388 363 431 319 388 b 165 486 208 388 165 431 b 264 585 165 542 208 585 b 363 486 319 585 363 542 m 363 181 b 264 82 363 125 319 82 b 165 181 208 82 165 125 b 264 279 165 236 208 279 b 363 181 319 279 363 236 m 668 486 b 569 388 668 431 625 388 b 471 486 514 388 471 431 b 569 585 471 542 514 585 b 668 486 625 585 668 542 m 668 181 b 569 82 668 125 625 82 b 471 181 514 82 471 125 b 569 279 471 236 514 279 b 668 181 625 279 668 236 m 668 -125 b 569 -224 668 -181 625 -224 b 471 -125 514 -224 471 -181 b 569 -26 471 -69 514 -26 b 668 -125 625 -26 668 -69 "},"⡖":{"ha":833,"x_min":0,"x_max":0,"o":"m 363 486 b 264 388 363 431 319 388 b 165 486 208 388 165 431 b 264 585 165 542 208 585 b 363 486 319 585 363 542 m 363 181 b 264 82 363 125 319 82 b 165 181 208 82 165 125 b 264 279 165 236 208 279 b 363 181 319 279 363 236 m 668 486 b 569 388 668 431 625 388 b 471 486 514 388 471 431 b 569 585 471 542 514 585 b 668 486 625 585 668 542 m 363 -125 b 264 -224 363 -181 319 -224 b 165 -125 208 -224 165 -181 b 264 -26 165 -69 208 -26 b 363 -125 319 -26 363 -69 "},"⣖":{"ha":833,"x_min":0,"x_max":0,"o":"m 363 486 b 264 388 363 431 319 388 b 165 486 208 388 165 431 b 264 585 165 542 208 585 b 363 486 319 585 363 542 m 363 181 b 264 82 363 125 319 82 b 165 181 208 82 165 125 b 264 279 165 236 208 279 b 363 181 319 279 363 236 m 668 486 b 569 388 668 431 625 388 b 471 486 514 388 471 431 b 569 585 471 542 514 585 b 668 486 625 585 668 542 m 363 -125 b 264 -224 363 -181 319 -224 b 165 -125 208 -224 165 -181 b 264 -26 165 -69 208 -26 b 363 -125 319 -26 363 -69 m 668 -125 b 569 -224 668 -181 625 -224 b 471 -125 514 -224 471 -181 b 569 -26 471 -69 514 -26 b 668 -125 625 -26 668 -69 "},"⢖":{"ha":833,"x_min":0,"x_max":0,"o":"m 363 486 b 264 388 363 431 319 388 b 165 486 208 388 165 431 b 264 585 165 542 208 585 b 363 486 319 585 363 542 m 363 181 b 264 82 363 125 319 82 b 165 181 208 82 165 125 b 264 279 165 236 208 279 b 363 181 319 279 363 236 m 668 486 b 569 388 668 431 625 388 b 471 486 514 388 471 431 b 569 585 471 542 514 585 b 668 486 625 585 668 542 m 668 -125 b 569 -224 668 -181 625 -224 b 471 -125 514 -224 471 -181 b 569 -26 471 -69 514 -26 b 668 -125 625 -26 668 -69 "},"⠦":{"ha":833,"x_min":0,"x_max":0,"o":"m 363 486 b 264 388 363 431 319 388 b 165 486 208 388 165 431 b 264 585 165 542 208 585 b 363 486 319 585 363 542 m 363 181 b 264 82 363 125 319 82 b 165 181 208 82 165 125 b 264 279 165 236 208 279 b 363 181 319 279 363 236 m 668 181 b 569 82 668 125 625 82 b 471 181 514 82 471 125 b 569 279 471 236 514 279 b 668 181 625 279 668 236 "},"⡦":{"ha":833,"x_min":0,"x_max":0,"o":"m 363 486 b 264 388 363 431 319 388 b 165 486 208 388 165 431 b 264 585 165 542 208 585 b 363 486 319 585 363 542 m 363 181 b 264 82 363 125 319 82 b 165 181 208 82 165 125 b 264 279 165 236 208 279 b 363 181 319 279 363 236 m 668 181 b 569 82 668 125 625 82 b 471 181 514 82 471 125 b 569 279 471 236 514 279 b 668 181 625 279 668 236 m 363 -125 b 264 -224 363 -181 319 -224 b 165 -125 208 -224 165 -181 b 264 -26 165 -69 208 -26 b 363 -125 319 -26 363 -69 "},"⣦":{"ha":833,"x_min":0,"x_max":0,"o":"m 363 486 b 264 388 363 431 319 388 b 165 486 208 388 165 431 b 264 585 165 542 208 585 b 363 486 319 585 363 542 m 363 181 b 264 82 363 125 319 82 b 165 181 208 82 165 125 b 264 279 165 236 208 279 b 363 181 319 279 363 236 m 668 181 b 569 82 668 125 625 82 b 471 181 514 82 471 125 b 569 279 471 236 514 279 b 668 181 625 279 668 236 m 363 -125 b 264 -224 363 -181 319 -224 b 165 -125 208 -224 165 -181 b 264 -26 165 -69 208 -26 b 363 -125 319 -26 363 -69 m 668 -125 b 569 -224 668 -181 625 -224 b 471 -125 514 -224 471 -181 b 569 -26 471 -69 514 -26 b 668 -125 625 -26 668 -69 "},"⢦":{"ha":833,"x_min":0,"x_max":0,"o":"m 363 486 b 264 388 363 431 319 388 b 165 486 208 388 165 431 b 264 585 165 542 208 585 b 363 486 319 585 363 542 m 363 181 b 264 82 363 125 319 82 b 165 181 208 82 165 125 b 264 279 165 236 208 279 b 363 181 319 279 363 236 m 668 181 b 569 82 668 125 625 82 b 471 181 514 82 471 125 b 569 279 471 236 514 279 b 668 181 625 279 668 236 m 668 -125 b 569 -224 668 -181 625 -224 b 471 -125 514 -224 471 -181 b 569 -26 471 -69 514 -26 b 668 -125 625 -26 668 -69 "},"⡆":{"ha":833,"x_min":0,"x_max":0,"o":"m 363 486 b 264 388 363 431 319 388 b 165 486 208 388 165 431 b 264 585 165 542 208 585 b 363 486 319 585 363 542 m 363 181 b 264 82 363 125 319 82 b 165 181 208 82 165 125 b 264 279 165 236 208 279 b 363 181 319 279 363 236 m 363 -125 b 264 -224 363 -181 319 -224 b 165 -125 208 -224 165 -181 b 264 -26 165 -69 208 -26 b 363 -125 319 -26 363 -69 "},"⣆":{"ha":833,"x_min":0,"x_max":0,"o":"m 363 486 b 264 388 363 431 319 388 b 165 486 208 388 165 431 b 264 585 165 542 208 585 b 363 486 319 585 363 542 m 363 181 b 264 82 363 125 319 82 b 165 181 208 82 165 125 b 264 279 165 236 208 279 b 363 181 319 279 363 236 m 363 -125 b 264 -224 363 -181 319 -224 b 165 -125 208 -224 165 -181 b 264 -26 165 -69 208 -26 b 363 -125 319 -26 363 -69 m 668 -125 b 569 -224 668 -181 625 -224 b 471 -125 514 -224 471 -181 b 569 -26 471 -69 514 -26 b 668 -125 625 -26 668 -69 "},"⢆":{"ha":833,"x_min":0,"x_max":0,"o":"m 363 486 b 264 388 363 431 319 388 b 165 486 208 388 165 431 b 264 585 165 542 208 585 b 363 486 319 585 363 542 m 363 181 b 264 82 363 125 319 82 b 165 181 208 82 165 125 b 264 279 165 236 208 279 b 363 181 319 279 363 236 m 668 -125 b 569 -224 668 -181 625 -224 b 471 -125 514 -224 471 -181 b 569 -26 471 -69 514 -26 b 668 -125 625 -26 668 -69 "},"⠊":{"ha":833,"x_min":0,"x_max":0,"o":"m 363 486 b 264 388 363 431 319 388 b 165 486 208 388 165 431 b 264 585 165 542 208 585 b 363 486 319 585 363 542 m 668 792 b 569 693 668 736 625 693 b 471 792 514 693 471 736 b 569 890 471 847 514 890 b 668 792 625 890 668 847 "},"⠚":{"ha":833,"x_min":0,"x_max":0,"o":"m 363 486 b 264 388 363 431 319 388 b 165 486 208 388 165 431 b 264 585 165 542 208 585 b 363 486 319 585 363 542 m 668 792 b 569 693 668 736 625 693 b 471 792 514 693 471 736 b 569 890 471 847 514 890 b 668 792 625 890 668 847 m 668 486 b 569 388 668 431 625 388 b 471 486 514 388 471 431 b 569 585 471 542 514 585 b 668 486 625 585 668 542 "},"⠺":{"ha":833,"x_min":0,"x_max":0,"o":"m 363 486 b 264 388 363 431 319 388 b 165 486 208 388 165 431 b 264 585 165 542 208 585 b 363 486 319 585 363 542 m 668 792 b 569 693 668 736 625 693 b 471 792 514 693 471 736 b 569 890 471 847 514 890 b 668 792 625 890 668 847 m 668 486 b 569 388 668 431 625 388 b 471 486 514 388 471 431 b 569 585 471 542 514 585 b 668 486 625 585 668 542 m 668 181 b 569 82 668 125 625 82 b 471 181 514 82 471 125 b 569 279 471 236 514 279 b 668 181 625 279 668 236 "},"⡺":{"ha":833,"x_min":0,"x_max":0,"o":"m 363 486 b 264 388 363 431 319 388 b 165 486 208 388 165 431 b 264 585 165 542 208 585 b 363 486 319 585 363 542 m 668 792 b 569 693 668 736 625 693 b 471 792 514 693 471 736 b 569 890 471 847 514 890 b 668 792 625 890 668 847 m 668 486 b 569 388 668 431 625 388 b 471 486 514 388 471 431 b 569 585 471 542 514 585 b 668 486 625 585 668 542 m 668 181 b 569 82 668 125 625 82 b 471 181 514 82 471 125 b 569 279 471 236 514 279 b 668 181 625 279 668 236 m 363 -125 b 264 -224 363 -181 319 -224 b 165 -125 208 -224 165 -181 b 264 -26 165 -69 208 -26 b 363 -125 319 -26 363 -69 "},"⣺":{"ha":833,"x_min":0,"x_max":0,"o":"m 363 486 b 264 388 363 431 319 388 b 165 486 208 388 165 431 b 264 585 165 542 208 585 b 363 486 319 585 363 542 m 668 792 b 569 693 668 736 625 693 b 471 792 514 693 471 736 b 569 890 471 847 514 890 b 668 792 625 890 668 847 m 668 486 b 569 388 668 431 625 388 b 471 486 514 388 471 431 b 569 585 471 542 514 585 b 668 486 625 585 668 542 m 668 181 b 569 82 668 125 625 82 b 471 181 514 82 471 125 b 569 279 471 236 514 279 b 668 181 625 279 668 236 m 363 -125 b 264 -224 363 -181 319 -224 b 165 -125 208 -224 165 -181 b 264 -26 165 -69 208 -26 b 363 -125 319 -26 363 -69 m 668 -125 b 569 -224 668 -181 625 -224 b 471 -125 514 -224 471 -181 b 569 -26 471 -69 514 -26 b 668 -125 625 -26 668 -69 "},"⢺":{"ha":833,"x_min":0,"x_max":0,"o":"m 363 486 b 264 388 363 431 319 388 b 165 486 208 388 165 431 b 264 585 165 542 208 585 b 363 486 319 585 363 542 m 668 792 b 569 693 668 736 625 693 b 471 792 514 693 471 736 b 569 890 471 847 514 890 b 668 792 625 890 668 847 m 668 486 b 569 388 668 431 625 388 b 471 486 514 388 471 431 b 569 585 471 542 514 585 b 668 486 625 585 668 542 m 668 181 b 569 82 668 125 625 82 b 471 181 514 82 471 125 b 569 279 471 236 514 279 b 668 181 625 279 668 236 m 668 -125 b 569 -224 668 -181 625 -224 b 471 -125 514 -224 471 -181 b 569 -26 471 -69 514 -26 b 668 -125 625 -26 668 -69 "},"⡚":{"ha":833,"x_min":0,"x_max":0,"o":"m 363 486 b 264 388 363 431 319 388 b 165 486 208 388 165 431 b 264 585 165 542 208 585 b 363 486 319 585 363 542 m 668 792 b 569 693 668 736 625 693 b 471 792 514 693 471 736 b 569 890 471 847 514 890 b 668 792 625 890 668 847 m 668 486 b 569 388 668 431 625 388 b 471 486 514 388 471 431 b 569 585 471 542 514 585 b 668 486 625 585 668 542 m 363 -125 b 264 -224 363 -181 319 -224 b 165 -125 208 -224 165 -181 b 264 -26 165 -69 208 -26 b 363 -125 319 -26 363 -69 "},"⣚":{"ha":833,"x_min":0,"x_max":0,"o":"m 363 486 b 264 388 363 431 319 388 b 165 486 208 388 165 431 b 264 585 165 542 208 585 b 363 486 319 585 363 542 m 668 792 b 569 693 668 736 625 693 b 471 792 514 693 471 736 b 569 890 471 847 514 890 b 668 792 625 890 668 847 m 668 486 b 569 388 668 431 625 388 b 471 486 514 388 471 431 b 569 585 471 542 514 585 b 668 486 625 585 668 542 m 363 -125 b 264 -224 363 -181 319 -224 b 165 -125 208 -224 165 -181 b 264 -26 165 -69 208 -26 b 363 -125 319 -26 363 -69 m 668 -125 b 569 -224 668 -181 625 -224 b 471 -125 514 -224 471 -181 b 569 -26 471 -69 514 -26 b 668 -125 625 -26 668 -69 "},"⢚":{"ha":833,"x_min":0,"x_max":0,"o":"m 363 486 b 264 388 363 431 319 388 b 165 486 208 388 165 431 b 264 585 165 542 208 585 b 363 486 319 585 363 542 m 668 792 b 569 693 668 736 625 693 b 471 792 514 693 471 736 b 569 890 471 847 514 890 b 668 792 625 890 668 847 m 668 486 b 569 388 668 431 625 388 b 471 486 514 388 471 431 b 569 585 471 542 514 585 b 668 486 625 585 668 542 m 668 -125 b 569 -224 668 -181 625 -224 b 471 -125 514 -224 471 -181 b 569 -26 471 -69 514 -26 b 668 -125 625 -26 668 -69 "},"⠪":{"ha":833,"x_min":0,"x_max":0,"o":"m 363 486 b 264 388 363 431 319 388 b 165 486 208 388 165 431 b 264 585 165 542 208 585 b 363 486 319 585 363 542 m 668 792 b 569 693 668 736 625 693 b 471 792 514 693 471 736 b 569 890 471 847 514 890 b 668 792 625 890 668 847 m 668 181 b 569 82 668 125 625 82 b 471 181 514 82 471 125 b 569 279 471 236 514 279 b 668 181 625 279 668 236 "},"⡪":{"ha":833,"x_min":0,"x_max":0,"o":"m 363 486 b 264 388 363 431 319 388 b 165 486 208 388 165 431 b 264 585 165 542 208 585 b 363 486 319 585 363 542 m 668 792 b 569 693 668 736 625 693 b 471 792 514 693 471 736 b 569 890 471 847 514 890 b 668 792 625 890 668 847 m 668 181 b 569 82 668 125 625 82 b 471 181 514 82 471 125 b 569 279 471 236 514 279 b 668 181 625 279 668 236 m 363 -125 b 264 -224 363 -181 319 -224 b 165 -125 208 -224 165 -181 b 264 -26 165 -69 208 -26 b 363 -125 319 -26 363 -69 "},"⣪":{"ha":833,"x_min":0,"x_max":0,"o":"m 363 486 b 264 388 363 431 319 388 b 165 486 208 388 165 431 b 264 585 165 542 208 585 b 363 486 319 585 363 542 m 668 792 b 569 693 668 736 625 693 b 471 792 514 693 471 736 b 569 890 471 847 514 890 b 668 792 625 890 668 847 m 668 181 b 569 82 668 125 625 82 b 471 181 514 82 471 125 b 569 279 471 236 514 279 b 668 181 625 279 668 236 m 363 -125 b 264 -224 363 -181 319 -224 b 165 -125 208 -224 165 -181 b 264 -26 165 -69 208 -26 b 363 -125 319 -26 363 -69 m 668 -125 b 569 -224 668 -181 625 -224 b 471 -125 514 -224 471 -181 b 569 -26 471 -69 514 -26 b 668 -125 625 -26 668 -69 "},"⢪":{"ha":833,"x_min":0,"x_max":0,"o":"m 363 486 b 264 388 363 431 319 388 b 165 486 208 388 165 431 b 264 585 165 542 208 585 b 363 486 319 585 363 542 m 668 792 b 569 693 668 736 625 693 b 471 792 514 693 471 736 b 569 890 471 847 514 890 b 668 792 625 890 668 847 m 668 181 b 569 82 668 125 625 82 b 471 181 514 82 471 125 b 569 279 471 236 514 279 b 668 181 625 279 668 236 m 668 -125 b 569 -224 668 -181 625 -224 b 471 -125 514 -224 471 -181 b 569 -26 471 -69 514 -26 b 668 -125 625 -26 668 -69 "},"⡊":{"ha":833,"x_min":0,"x_max":0,"o":"m 363 486 b 264 388 363 431 319 388 b 165 486 208 388 165 431 b 264 585 165 542 208 585 b 363 486 319 585 363 542 m 668 792 b 569 693 668 736 625 693 b 471 792 514 693 471 736 b 569 890 471 847 514 890 b 668 792 625 890 668 847 m 363 -125 b 264 -224 363 -181 319 -224 b 165 -125 208 -224 165 -181 b 264 -26 165 -69 208 -26 b 363 -125 319 -26 363 -69 "},"⣊":{"ha":833,"x_min":0,"x_max":0,"o":"m 363 486 b 264 388 363 431 319 388 b 165 486 208 388 165 431 b 264 585 165 542 208 585 b 363 486 319 585 363 542 m 668 792 b 569 693 668 736 625 693 b 471 792 514 693 471 736 b 569 890 471 847 514 890 b 668 792 625 890 668 847 m 363 -125 b 264 -224 363 -181 319 -224 b 165 -125 208 -224 165 -181 b 264 -26 165 -69 208 -26 b 363 -125 319 -26 363 -69 m 668 -125 b 569 -224 668 -181 625 -224 b 471 -125 514 -224 471 -181 b 569 -26 471 -69 514 -26 b 668 -125 625 -26 668 -69 "},"⢊":{"ha":833,"x_min":0,"x_max":0,"o":"m 363 486 b 264 388 363 431 319 388 b 165 486 208 388 165 431 b 264 585 165 542 208 585 b 363 486 319 585 363 542 m 668 792 b 569 693 668 736 625 693 b 471 792 514 693 471 736 b 569 890 471 847 514 890 b 668 792 625 890 668 847 m 668 -125 b 569 -224 668 -181 625 -224 b 471 -125 514 -224 471 -181 b 569 -26 471 -69 514 -26 b 668 -125 625 -26 668 -69 "},"⠒":{"ha":833,"x_min":0,"x_max":0,"o":"m 363 486 b 264 388 363 431 319 388 b 165 486 208 388 165 431 b 264 585 165 542 208 585 b 363 486 319 585 363 542 m 668 486 b 569 388 668 431 625 388 b 471 486 514 388 471 431 b 569 585 471 542 514 585 b 668 486 625 585 668 542 "},"⠲":{"ha":833,"x_min":0,"x_max":0,"o":"m 363 486 b 264 388 363 431 319 388 b 165 486 208 388 165 431 b 264 585 165 542 208 585 b 363 486 319 585 363 542 m 668 486 b 569 388 668 431 625 388 b 471 486 514 388 471 431 b 569 585 471 542 514 585 b 668 486 625 585 668 542 m 668 181 b 569 82 668 125 625 82 b 471 181 514 82 471 125 b 569 279 471 236 514 279 b 668 181 625 279 668 236 "},"⡲":{"ha":833,"x_min":0,"x_max":0,"o":"m 363 486 b 264 388 363 431 319 388 b 165 486 208 388 165 431 b 264 585 165 542 208 585 b 363 486 319 585 363 542 m 668 486 b 569 388 668 431 625 388 b 471 486 514 388 471 431 b 569 585 471 542 514 585 b 668 486 625 585 668 542 m 668 181 b 569 82 668 125 625 82 b 471 181 514 82 471 125 b 569 279 471 236 514 279 b 668 181 625 279 668 236 m 363 -125 b 264 -224 363 -181 319 -224 b 165 -125 208 -224 165 -181 b 264 -26 165 -69 208 -26 b 363 -125 319 -26 363 -69 "},"⣲":{"ha":833,"x_min":0,"x_max":0,"o":"m 363 486 b 264 388 363 431 319 388 b 165 486 208 388 165 431 b 264 585 165 542 208 585 b 363 486 319 585 363 542 m 668 486 b 569 388 668 431 625 388 b 471 486 514 388 471 431 b 569 585 471 542 514 585 b 668 486 625 585 668 542 m 668 181 b 569 82 668 125 625 82 b 471 181 514 82 471 125 b 569 279 471 236 514 279 b 668 181 625 279 668 236 m 363 -125 b 264 -224 363 -181 319 -224 b 165 -125 208 -224 165 -181 b 264 -26 165 -69 208 -26 b 363 -125 319 -26 363 -69 m 668 -125 b 569 -224 668 -181 625 -224 b 471 -125 514 -224 471 -181 b 569 -26 471 -69 514 -26 b 668 -125 625 -26 668 -69 "},"⢲":{"ha":833,"x_min":0,"x_max":0,"o":"m 363 486 b 264 388 363 431 319 388 b 165 486 208 388 165 431 b 264 585 165 542 208 585 b 363 486 319 585 363 542 m 668 486 b 569 388 668 431 625 388 b 471 486 514 388 471 431 b 569 585 471 542 514 585 b 668 486 625 585 668 542 m 668 181 b 569 82 668 125 625 82 b 471 181 514 82 471 125 b 569 279 471 236 514 279 b 668 181 625 279 668 236 m 668 -125 b 569 -224 668 -181 625 -224 b 471 -125 514 -224 471 -181 b 569 -26 471 -69 514 -26 b 668 -125 625 -26 668 -69 "},"⡒":{"ha":833,"x_min":0,"x_max":0,"o":"m 363 486 b 264 388 363 431 319 388 b 165 486 208 388 165 431 b 264 585 165 542 208 585 b 363 486 319 585 363 542 m 668 486 b 569 388 668 431 625 388 b 471 486 514 388 471 431 b 569 585 471 542 514 585 b 668 486 625 585 668 542 m 363 -125 b 264 -224 363 -181 319 -224 b 165 -125 208 -224 165 -181 b 264 -26 165 -69 208 -26 b 363 -125 319 -26 363 -69 "},"⣒":{"ha":833,"x_min":0,"x_max":0,"o":"m 363 486 b 264 388 363 431 319 388 b 165 486 208 388 165 431 b 264 585 165 542 208 585 b 363 486 319 585 363 542 m 668 486 b 569 388 668 431 625 388 b 471 486 514 388 471 431 b 569 585 471 542 514 585 b 668 486 625 585 668 542 m 363 -125 b 264 -224 363 -181 319 -224 b 165 -125 208 -224 165 -181 b 264 -26 165 -69 208 -26 b 363 -125 319 -26 363 -69 m 668 -125 b 569 -224 668 -181 625 -224 b 471 -125 514 -224 471 -181 b 569 -26 471 -69 514 -26 b 668 -125 625 -26 668 -69 "},"⢒":{"ha":833,"x_min":0,"x_max":0,"o":"m 363 486 b 264 388 363 431 319 388 b 165 486 208 388 165 431 b 264 585 165 542 208 585 b 363 486 319 585 363 542 m 668 486 b 569 388 668 431 625 388 b 471 486 514 388 471 431 b 569 585 471 542 514 585 b 668 486 625 585 668 542 m 668 -125 b 569 -224 668 -181 625 -224 b 471 -125 514 -224 471 -181 b 569 -26 471 -69 514 -26 b 668 -125 625 -26 668 -69 "},"⠢":{"ha":833,"x_min":0,"x_max":0,"o":"m 363 486 b 264 388 363 431 319 388 b 165 486 208 388 165 431 b 264 585 165 542 208 585 b 363 486 319 585 363 542 m 668 181 b 569 82 668 125 625 82 b 471 181 514 82 471 125 b 569 279 471 236 514 279 b 668 181 625 279 668 236 "},"⡢":{"ha":833,"x_min":0,"x_max":0,"o":"m 363 486 b 264 388 363 431 319 388 b 165 486 208 388 165 431 b 264 585 165 542 208 585 b 363 486 319 585 363 542 m 668 181 b 569 82 668 125 625 82 b 471 181 514 82 471 125 b 569 279 471 236 514 279 b 668 181 625 279 668 236 m 363 -125 b 264 -224 363 -181 319 -224 b 165 -125 208 -224 165 -181 b 264 -26 165 -69 208 -26 b 363 -125 319 -26 363 -69 "},"⣢":{"ha":833,"x_min":0,"x_max":0,"o":"m 363 486 b 264 388 363 431 319 388 b 165 486 208 388 165 431 b 264 585 165 542 208 585 b 363 486 319 585 363 542 m 668 181 b 569 82 668 125 625 82 b 471 181 514 82 471 125 b 569 279 471 236 514 279 b 668 181 625 279 668 236 m 363 -125 b 264 -224 363 -181 319 -224 b 165 -125 208 -224 165 -181 b 264 -26 165 -69 208 -26 b 363 -125 319 -26 363 -69 m 668 -125 b 569 -224 668 -181 625 -224 b 471 -125 514 -224 471 -181 b 569 -26 471 -69 514 -26 b 668 -125 625 -26 668 -69 "},"⢢":{"ha":833,"x_min":0,"x_max":0,"o":"m 363 486 b 264 388 363 431 319 388 b 165 486 208 388 165 431 b 264 585 165 542 208 585 b 363 486 319 585 363 542 m 668 181 b 569 82 668 125 625 82 b 471 181 514 82 471 125 b 569 279 471 236 514 279 b 668 181 625 279 668 236 m 668 -125 b 569 -224 668 -181 625 -224 b 471 -125 514 -224 471 -181 b 569 -26 471 -69 514 -26 b 668 -125 625 -26 668 -69 "},"⡂":{"ha":833,"x_min":0,"x_max":0,"o":"m 363 486 b 264 388 363 431 319 388 b 165 486 208 388 165 431 b 264 585 165 542 208 585 b 363 486 319 585 363 542 m 363 -125 b 264 -224 363 -181 319 -224 b 165 -125 208 -224 165 -181 b 264 -26 165 -69 208 -26 b 363 -125 319 -26 363 -69 "},"⣂":{"ha":833,"x_min":0,"x_max":0,"o":"m 363 486 b 264 388 363 431 319 388 b 165 486 208 388 165 431 b 264 585 165 542 208 585 b 363 486 319 585 363 542 m 363 -125 b 264 -224 363 -181 319 -224 b 165 -125 208 -224 165 -181 b 264 -26 165 -69 208 -26 b 363 -125 319 -26 363 -69 m 668 -125 b 569 -224 668 -181 625 -224 b 471 -125 514 -224 471 -181 b 569 -26 471 -69 514 -26 b 668 -125 625 -26 668 -69 "},"⢂":{"ha":833,"x_min":0,"x_max":0,"o":"m 363 486 b 264 388 363 431 319 388 b 165 486 208 388 165 431 b 264 585 165 542 208 585 b 363 486 319 585 363 542 m 668 -125 b 569 -224 668 -181 625 -224 b 471 -125 514 -224 471 -181 b 569 -26 471 -69 514 -26 b 668 -125 625 -26 668 -69 "},"⠄":{"ha":833,"x_min":0,"x_max":0,"o":"m 363 181 b 264 82 363 125 319 82 b 165 181 208 82 165 125 b 264 279 165 236 208 279 b 363 181 319 279 363 236 "},"⠌":{"ha":833,"x_min":0,"x_max":0,"o":"m 363 181 b 264 82 363 125 319 82 b 165 181 208 82 165 125 b 264 279 165 236 208 279 b 363 181 319 279 363 236 m 668 792 b 569 693 668 736 625 693 b 471 792 514 693 471 736 b 569 890 471 847 514 890 b 668 792 625 890 668 847 "},"⠜":{"ha":833,"x_min":0,"x_max":0,"o":"m 363 181 b 264 82 363 125 319 82 b 165 181 208 82 165 125 b 264 279 165 236 208 279 b 363 181 319 279 363 236 m 668 792 b 569 693 668 736 625 693 b 471 792 514 693 471 736 b 569 890 471 847 514 890 b 668 792 625 890 668 847 m 668 486 b 569 388 668 431 625 388 b 471 486 514 388 471 431 b 569 585 471 542 514 585 b 668 486 625 585 668 542 "},"⠼":{"ha":833,"x_min":0,"x_max":0,"o":"m 363 181 b 264 82 363 125 319 82 b 165 181 208 82 165 125 b 264 279 165 236 208 279 b 363 181 319 279 363 236 m 668 792 b 569 693 668 736 625 693 b 471 792 514 693 471 736 b 569 890 471 847 514 890 b 668 792 625 890 668 847 m 668 486 b 569 388 668 431 625 388 b 471 486 514 388 471 431 b 569 585 471 542 514 585 b 668 486 625 585 668 542 m 668 181 b 569 82 668 125 625 82 b 471 181 514 82 471 125 b 569 279 471 236 514 279 b 668 181 625 279 668 236 "},"⡼":{"ha":833,"x_min":0,"x_max":0,"o":"m 363 181 b 264 82 363 125 319 82 b 165 181 208 82 165 125 b 264 279 165 236 208 279 b 363 181 319 279 363 236 m 668 792 b 569 693 668 736 625 693 b 471 792 514 693 471 736 b 569 890 471 847 514 890 b 668 792 625 890 668 847 m 668 486 b 569 388 668 431 625 388 b 471 486 514 388 471 431 b 569 585 471 542 514 585 b 668 486 625 585 668 542 m 668 181 b 569 82 668 125 625 82 b 471 181 514 82 471 125 b 569 279 471 236 514 279 b 668 181 625 279 668 236 m 363 -125 b 264 -224 363 -181 319 -224 b 165 -125 208 -224 165 -181 b 264 -26 165 -69 208 -26 b 363 -125 319 -26 363 -69 "},"⣼":{"ha":833,"x_min":0,"x_max":0,"o":"m 363 181 b 264 82 363 125 319 82 b 165 181 208 82 165 125 b 264 279 165 236 208 279 b 363 181 319 279 363 236 m 668 792 b 569 693 668 736 625 693 b 471 792 514 693 471 736 b 569 890 471 847 514 890 b 668 792 625 890 668 847 m 668 486 b 569 388 668 431 625 388 b 471 486 514 388 471 431 b 569 585 471 542 514 585 b 668 486 625 585 668 542 m 668 181 b 569 82 668 125 625 82 b 471 181 514 82 471 125 b 569 279 471 236 514 279 b 668 181 625 279 668 236 m 363 -125 b 264 -224 363 -181 319 -224 b 165 -125 208 -224 165 -181 b 264 -26 165 -69 208 -26 b 363 -125 319 -26 363 -69 m 668 -125 b 569 -224 668 -181 625 -224 b 471 -125 514 -224 471 -181 b 569 -26 471 -69 514 -26 b 668 -125 625 -26 668 -69 "},"⢼":{"ha":833,"x_min":0,"x_max":0,"o":"m 363 181 b 264 82 363 125 319 82 b 165 181 208 82 165 125 b 264 279 165 236 208 279 b 363 181 319 279 363 236 m 668 792 b 569 693 668 736 625 693 b 471 792 514 693 471 736 b 569 890 471 847 514 890 b 668 792 625 890 668 847 m 668 486 b 569 388 668 431 625 388 b 471 486 514 388 471 431 b 569 585 471 542 514 585 b 668 486 625 585 668 542 m 668 181 b 569 82 668 125 625 82 b 471 181 514 82 471 125 b 569 279 471 236 514 279 b 668 181 625 279 668 236 m 668 -125 b 569 -224 668 -181 625 -224 b 471 -125 514 -224 471 -181 b 569 -26 471 -69 514 -26 b 668 -125 625 -26 668 -69 "},"⡜":{"ha":833,"x_min":0,"x_max":0,"o":"m 363 181 b 264 82 363 125 319 82 b 165 181 208 82 165 125 b 264 279 165 236 208 279 b 363 181 319 279 363 236 m 668 792 b 569 693 668 736 625 693 b 471 792 514 693 471 736 b 569 890 471 847 514 890 b 668 792 625 890 668 847 m 668 486 b 569 388 668 431 625 388 b 471 486 514 388 471 431 b 569 585 471 542 514 585 b 668 486 625 585 668 542 m 363 -125 b 264 -224 363 -181 319 -224 b 165 -125 208 -224 165 -181 b 264 -26 165 -69 208 -26 b 363 -125 319 -26 363 -69 "},"⣜":{"ha":833,"x_min":0,"x_max":0,"o":"m 363 181 b 264 82 363 125 319 82 b 165 181 208 82 165 125 b 264 279 165 236 208 279 b 363 181 319 279 363 236 m 668 792 b 569 693 668 736 625 693 b 471 792 514 693 471 736 b 569 890 471 847 514 890 b 668 792 625 890 668 847 m 668 486 b 569 388 668 431 625 388 b 471 486 514 388 471 431 b 569 585 471 542 514 585 b 668 486 625 585 668 542 m 363 -125 b 264 -224 363 -181 319 -224 b 165 -125 208 -224 165 -181 b 264 -26 165 -69 208 -26 b 363 -125 319 -26 363 -69 m 668 -125 b 569 -224 668 -181 625 -224 b 471 -125 514 -224 471 -181 b 569 -26 471 -69 514 -26 b 668 -125 625 -26 668 -69 "},"⢜":{"ha":833,"x_min":0,"x_max":0,"o":"m 363 181 b 264 82 363 125 319 82 b 165 181 208 82 165 125 b 264 279 165 236 208 279 b 363 181 319 279 363 236 m 668 792 b 569 693 668 736 625 693 b 471 792 514 693 471 736 b 569 890 471 847 514 890 b 668 792 625 890 668 847 m 668 486 b 569 388 668 431 625 388 b 471 486 514 388 471 431 b 569 585 471 542 514 585 b 668 486 625 585 668 542 m 668 -125 b 569 -224 668 -181 625 -224 b 471 -125 514 -224 471 -181 b 569 -26 471 -69 514 -26 b 668 -125 625 -26 668 -69 "},"⠬":{"ha":833,"x_min":0,"x_max":0,"o":"m 363 181 b 264 82 363 125 319 82 b 165 181 208 82 165 125 b 264 279 165 236 208 279 b 363 181 319 279 363 236 m 668 792 b 569 693 668 736 625 693 b 471 792 514 693 471 736 b 569 890 471 847 514 890 b 668 792 625 890 668 847 m 668 181 b 569 82 668 125 625 82 b 471 181 514 82 471 125 b 569 279 471 236 514 279 b 668 181 625 279 668 236 "},"⡬":{"ha":833,"x_min":0,"x_max":0,"o":"m 363 181 b 264 82 363 125 319 82 b 165 181 208 82 165 125 b 264 279 165 236 208 279 b 363 181 319 279 363 236 m 668 792 b 569 693 668 736 625 693 b 471 792 514 693 471 736 b 569 890 471 847 514 890 b 668 792 625 890 668 847 m 668 181 b 569 82 668 125 625 82 b 471 181 514 82 471 125 b 569 279 471 236 514 279 b 668 181 625 279 668 236 m 363 -125 b 264 -224 363 -181 319 -224 b 165 -125 208 -224 165 -181 b 264 -26 165 -69 208 -26 b 363 -125 319 -26 363 -69 "},"⣬":{"ha":833,"x_min":0,"x_max":0,"o":"m 363 181 b 264 82 363 125 319 82 b 165 181 208 82 165 125 b 264 279 165 236 208 279 b 363 181 319 279 363 236 m 668 792 b 569 693 668 736 625 693 b 471 792 514 693 471 736 b 569 890 471 847 514 890 b 668 792 625 890 668 847 m 668 181 b 569 82 668 125 625 82 b 471 181 514 82 471 125 b 569 279 471 236 514 279 b 668 181 625 279 668 236 m 363 -125 b 264 -224 363 -181 319 -224 b 165 -125 208 -224 165 -181 b 264 -26 165 -69 208 -26 b 363 -125 319 -26 363 -69 m 668 -125 b 569 -224 668 -181 625 -224 b 471 -125 514 -224 471 -181 b 569 -26 471 -69 514 -26 b 668 -125 625 -26 668 -69 "},"⢬":{"ha":833,"x_min":0,"x_max":0,"o":"m 363 181 b 264 82 363 125 319 82 b 165 181 208 82 165 125 b 264 279 165 236 208 279 b 363 181 319 279 363 236 m 668 792 b 569 693 668 736 625 693 b 471 792 514 693 471 736 b 569 890 471 847 514 890 b 668 792 625 890 668 847 m 668 181 b 569 82 668 125 625 82 b 471 181 514 82 471 125 b 569 279 471 236 514 279 b 668 181 625 279 668 236 m 668 -125 b 569 -224 668 -181 625 -224 b 471 -125 514 -224 471 -181 b 569 -26 471 -69 514 -26 b 668 -125 625 -26 668 -69 "},"⡌":{"ha":833,"x_min":0,"x_max":0,"o":"m 363 181 b 264 82 363 125 319 82 b 165 181 208 82 165 125 b 264 279 165 236 208 279 b 363 181 319 279 363 236 m 668 792 b 569 693 668 736 625 693 b 471 792 514 693 471 736 b 569 890 471 847 514 890 b 668 792 625 890 668 847 m 363 -125 b 264 -224 363 -181 319 -224 b 165 -125 208 -224 165 -181 b 264 -26 165 -69 208 -26 b 363 -125 319 -26 363 -69 "},"⣌":{"ha":833,"x_min":0,"x_max":0,"o":"m 363 181 b 264 82 363 125 319 82 b 165 181 208 82 165 125 b 264 279 165 236 208 279 b 363 181 319 279 363 236 m 668 792 b 569 693 668 736 625 693 b 471 792 514 693 471 736 b 569 890 471 847 514 890 b 668 792 625 890 668 847 m 363 -125 b 264 -224 363 -181 319 -224 b 165 -125 208 -224 165 -181 b 264 -26 165 -69 208 -26 b 363 -125 319 -26 363 -69 m 668 -125 b 569 -224 668 -181 625 -224 b 471 -125 514 -224 471 -181 b 569 -26 471 -69 514 -26 b 668 -125 625 -26 668 -69 "},"⢌":{"ha":833,"x_min":0,"x_max":0,"o":"m 363 181 b 264 82 363 125 319 82 b 165 181 208 82 165 125 b 264 279 165 236 208 279 b 363 181 319 279 363 236 m 668 792 b 569 693 668 736 625 693 b 471 792 514 693 471 736 b 569 890 471 847 514 890 b 668 792 625 890 668 847 m 668 -125 b 569 -224 668 -181 625 -224 b 471 -125 514 -224 471 -181 b 569 -26 471 -69 514 -26 b 668 -125 625 -26 668 -69 "},"⠔":{"ha":833,"x_min":0,"x_max":0,"o":"m 363 181 b 264 82 363 125 319 82 b 165 181 208 82 165 125 b 264 279 165 236 208 279 b 363 181 319 279 363 236 m 668 486 b 569 388 668 431 625 388 b 471 486 514 388 471 431 b 569 585 471 542 514 585 b 668 486 625 585 668 542 "},"⠴":{"ha":833,"x_min":0,"x_max":0,"o":"m 363 181 b 264 82 363 125 319 82 b 165 181 208 82 165 125 b 264 279 165 236 208 279 b 363 181 319 279 363 236 m 668 486 b 569 388 668 431 625 388 b 471 486 514 388 471 431 b 569 585 471 542 514 585 b 668 486 625 585 668 542 m 668 181 b 569 82 668 125 625 82 b 471 181 514 82 471 125 b 569 279 471 236 514 279 b 668 181 625 279 668 236 "},"⡴":{"ha":833,"x_min":0,"x_max":0,"o":"m 363 181 b 264 82 363 125 319 82 b 165 181 208 82 165 125 b 264 279 165 236 208 279 b 363 181 319 279 363 236 m 668 486 b 569 388 668 431 625 388 b 471 486 514 388 471 431 b 569 585 471 542 514 585 b 668 486 625 585 668 542 m 668 181 b 569 82 668 125 625 82 b 471 181 514 82 471 125 b 569 279 471 236 514 279 b 668 181 625 279 668 236 m 363 -125 b 264 -224 363 -181 319 -224 b 165 -125 208 -224 165 -181 b 264 -26 165 -69 208 -26 b 363 -125 319 -26 363 -69 "},"⣴":{"ha":833,"x_min":0,"x_max":0,"o":"m 363 181 b 264 82 363 125 319 82 b 165 181 208 82 165 125 b 264 279 165 236 208 279 b 363 181 319 279 363 236 m 668 486 b 569 388 668 431 625 388 b 471 486 514 388 471 431 b 569 585 471 542 514 585 b 668 486 625 585 668 542 m 668 181 b 569 82 668 125 625 82 b 471 181 514 82 471 125 b 569 279 471 236 514 279 b 668 181 625 279 668 236 m 363 -125 b 264 -224 363 -181 319 -224 b 165 -125 208 -224 165 -181 b 264 -26 165 -69 208 -26 b 363 -125 319 -26 363 -69 m 668 -125 b 569 -224 668 -181 625 -224 b 471 -125 514 -224 471 -181 b 569 -26 471 -69 514 -26 b 668 -125 625 -26 668 -69 "},"⢴":{"ha":833,"x_min":0,"x_max":0,"o":"m 363 181 b 264 82 363 125 319 82 b 165 181 208 82 165 125 b 264 279 165 236 208 279 b 363 181 319 279 363 236 m 668 486 b 569 388 668 431 625 388 b 471 486 514 388 471 431 b 569 585 471 542 514 585 b 668 486 625 585 668 542 m 668 181 b 569 82 668 125 625 82 b 471 181 514 82 471 125 b 569 279 471 236 514 279 b 668 181 625 279 668 236 m 668 -125 b 569 -224 668 -181 625 -224 b 471 -125 514 -224 471 -181 b 569 -26 471 -69 514 -26 b 668 -125 625 -26 668 -69 "}}}
